<?xml version="1.0" standalone="no"?>
<!DOCTYPE svg PUBLIC "-//W3C//DTD SVG 1.1//EN" "http://www.w3.org/Graphics/SVG/1.1/DTD/svg11.dtd" >
<svg>
<metadata>
Created by FontForge 20090914 at Wed Jan 29 11:52:15 2020
 By www-data
Copyright (C) 1990 ParaGraph JV.
</metadata>
<defs>
<font id="BodoniItalic" horiz-adv-x="2179" >
  <font-face 
    font-family="Bodoni"
    font-weight="400"
    font-style="italic"
    font-stretch="normal"
    units-per-em="4096"
    panose-1="2 11 114 0 0 0 0 0 0 0"
    ascent="3276"
    descent="-820"
    x-height="1745"
    cap-height="2707"
    bbox="-745.001 -1032 4415 3510"
    underline-thickness="56"
    underline-position="-224"
    slope="15"
    unicode-range="U+0020-U+2122"
  />
<missing-glyph horiz-adv-x="3072" 
d="M512 0v2560h2048v-2560h-2048zM2494 66v2428h-1916v-2428h1916z" />
    <glyph glyph-name=".notdef" horiz-adv-x="3072" 
d="M512 0v2560h2048v-2560h-2048zM2494 66v2428h-1916v-2428h1916z" />
    <glyph glyph-name="space" unicode=" " horiz-adv-x="1438" 
 />
    <glyph glyph-name="exclam" unicode="!" horiz-adv-x="1475" 
d="M631 618h-82.001c74.667 284 133.5 581.333 176.5 892l98 719.5c22.333 169 53.333 296.333 93 382s104.167 128.5 193.5 128.5c47.333 0 91.333 -17 132 -51s61 -90.667 61 -170c0 -89.333 -95.667 -354.333 -287 -795c-94.667 -212 -167.167 -387.333 -217.5 -526
s-106.166 -332 -167.499 -580zM286.999 188c0 64.667 21.501 118.5 64.501 161.5s96.5 64.5 160.5 64.5c62 0 114.333 -21.333 157 -64s64 -96.667 64 -162c0 -64 -21.5 -116.833 -64.5 -158.5s-95.167 -62.5 -156.5 -62.5c-64.667 0 -118.334 21.667 -161.001 65
s-64 95.333 -64 156z" />
    <glyph glyph-name="quotedbl" unicode="&#x22;" horiz-adv-x="1618" 
d="M594 2728l-115 -905h-160l-114 905h389zM1319 2728l-119 -905h-156l-118 905h393z" />
    <glyph glyph-name="numbersign" unicode="#" horiz-adv-x="3670" 
d="M2294 -242h-361l140 729h-766l-140 -729h-360l135 729h-713l70 369h717l147 778h-717l70 369h717l139 725h361l-140 -725h770l140 725h360l-139 -725h717l-70 -369h-717l-151 -778h716l-69 -369h-717zM2142 856l148 778h-766l-148 -778h766z" />
    <glyph glyph-name="dollar" unicode="$" horiz-adv-x="2351" 
d="M0 4l204.999 852h49c65.333 -451.333 266 -717.666 602 -798.999l274 1102l-159 49c-106.667 33.333 -203 93.5 -289 180.5s-129 213.833 -129 380.5c0 175.333 43.5 336.5 130.5 483.5s205.667 263 356 348s311.833 127.5 484.5 127.5l73 299h119l-78 -315
c69.333 -6 162.333 -32 279 -78c86.667 -38.667 145.334 -58 176.001 -58c48.667 0 93.667 35.667 135 107h66l-148 -647h-53c-66 342.667 -224.333 542 -475 598l-254 -1016l229 -66c295.333 -84 443 -292.667 443 -626c0 -176 -48 -338.833 -144 -488.5
s-220.667 -267.5 -374 -353.5s-309.666 -129 -468.999 -129h-99l-86 -356h-123l95 368c-121.333 15.333 -239 53.666 -353 114.999c-84.667 49.333 -143.334 74 -176.001 74c-44 0 -84.5 -13.333 -121.5 -40s-66.167 -64 -87.5 -112h-98zM974.999 41h49.001
c131.333 0 252.166 32.167 362.499 96.5s197 149.5 260 255.5s94.5 219.333 94.5 340c0 70 -30.167 138.5 -90.5 205.5s-136.833 113.167 -229.5 138.5l-176 49zM1253 1651l249.999 999c-37.333 5.33301 -64.666 8 -81.999 8c-112.667 0 -216.167 -33.333 -310.5 -100
s-168.5 -149 -222.5 -247s-81 -189.667 -81 -275c0 -118.667 35 -203.5 105 -254.5s166 -90.5 288 -118.5z" />
    <glyph glyph-name="percent" unicode="%" horiz-adv-x="3391" 
d="M2998 2990l48.998 -41l-2433 -2994l-49 49l2134 2622l-8 28c-68.667 -56.667 -146.667 -107.834 -234 -153.5c-87.333 -45.667 -175.166 -82 -263.5 -109c-88.333 -27 -166.833 -40.5 -235.5 -40.5c-104 0 -217.333 26 -340 78l-16 -4
c32.667 -61.333 49 -143.333 49 -246c0 -111.333 -34.333 -215 -103 -311s-160.334 -172 -275.001 -228s-234.667 -84 -360 -84c-121.333 0 -221.833 48.167 -301.5 144.5s-119.5 217.5 -119.5 363.5c0 129.333 33.833 245.833 101.5 349.5s154.334 184 260.001 241
s213.167 85.5 322.5 85.5c70.667 0 130.834 -11.333 180.501 -34s106.834 -57.667 171.501 -105c88.667 -63.333 165 -109.166 229 -137.5c64 -28.333 142 -42.5 234 -42.5c110.667 0 229.167 28.5 355.5 85.5s246 129 359 216s210.5 176.167 292.5 267.5zM892.998 2425
l-151.999 -422c-16 -42.667 -24 -109.667 -24 -201c0 -51.333 22.333 -95.5 67 -132.5s100 -55.5 166 -55.5c81.333 0 144.166 25.333 188.499 76s82.5 118 114.5 202l136 361c27.333 76 41 141.333 41 196c0 78.667 -22.5 137.334 -67.5 176
c-45 38.667 -100.5 58 -166.5 58c-138 0 -239 -86 -303 -258zM1880 541c0 126.667 33.834 236.501 101.501 329.501s152.667 163.667 255 212s204.833 72.5 307.5 72.5c95.333 0 181.166 -20 257.499 -60s136.333 -98.333 180 -175s65.5 -169 65.5 -277
c0 -103.333 -27.5 -207 -82.5 -311s-133.833 -190.167 -236.5 -258.5s-220 -102.5 -352 -102.5c-170.667 0 -296 52.667 -376 158s-120 242.666 -120 411.999zM2265 807.001l-131 -347.999c-22 -67.333 -33 -137 -33 -209c0 -51.333 15.833 -101 47.5 -149
s80.167 -72 145.5 -72c104 0 186.667 33.5 248 100.5s104.333 141.167 129 222.5l90 287c30 104.667 45 184 45 238c0 147.333 -76.667 221 -230 221c-87.333 0 -152.833 -27.833 -196.5 -83.5s-81.834 -124.834 -114.5 -207.501z" />
    <glyph glyph-name="ampersand" unicode="&#x26;" horiz-adv-x="3097" 
d="M1405 1475c-139.333 0 -255.502 -24.1709 -348.502 -72.5039s-164.667 -107 -215 -176s-89.333 -143.167 -117 -222.5l-60.5 -177l-9 -24c-21.333 -66 -32 -178 -32 -336c0 -115.333 50.333 -215.166 151 -299.499s241.334 -126.5 422.001 -126.5
c208 0 376.833 50.667 506.5 152s223.5 223.333 281.5 366s93 285.334 105 428.001l-229 4c-168.667 0 -299 -14.5 -391 -43.5s-153.667 -61.333 -185 -97s-47 -66.5 -47 -92.5c0 -11.333 5.33301 -17 16 -17c24.667 0 44 3 58 9c49.333 16 84.666 24 105.999 24
c46 0 86.833 -10.667 122.5 -32s53.5 -57 53.5 -107c0 -77.333 -28.333 -146.5 -85 -207.5s-123.667 -91.5 -201 -91.5c-66.667 0 -117.5 17.5 -152.5 52.5s-52.5 73.5 -52.5 115.5c0 97.333 36.667 214.333 110 351s181.5 255 324.5 355s313.5 150 511.5 150
c114.667 -5.33301 215.667 -8 303 -8c480.667 0 721 79 721 237c0 11.333 -4 17 -12 17c-18.667 0 -38 -4.33301 -58 -13c-36 -16 -71.333 -24 -106 -24c-43.333 0 -84.166 11.333 -122.499 34s-57.5 57.667 -57.5 105c0 73.333 28.833 141.5 86.5 204.5
s124.167 94.5 199.5 94.5c66.667 0 118.167 -17.667 154.5 -53s54.5 -73.666 54.5 -114.999c0 -111.333 -37.5 -234.166 -112.5 -368.499s-188.5 -248.5 -340.5 -342.5s-334 -141 -546 -141c-20 -170 -70.667 -332.333 -152 -487s-199.666 -282.167 -354.999 -382.5
s-345.333 -150.5 -570 -150.5c-150 0 -297.167 11.667 -441.5 35s-276.833 80.333 -397.5 171s-181 227 -181 409c0 128.667 22.667 245.167 68 349.5s115.5 196 210.5 275s215.5 145 361.5 198s319 92.833 519 119.5l4 16c-25.333 7.33301 -44.5 13.166 -57.5 17.499
s-26.5 8.16602 -40.5 11.499c-122 33.333 -218.167 70.333 -288.5 111s-105.5 111.334 -105.5 212.001c0 120.667 33 246.667 99 378.001c66 131.333 172.167 242.5 318.5 333.5s332.166 136.5 557.499 136.5c380 0 570 -162.333 570 -487
c0 -62 -17.167 -114.167 -51.5 -156.5s-76 -73.333 -125 -93s-94.167 -29.5 -135.5 -29.5c-60 0 -106.333 14.833 -139 44.5s-49 58.5 -49 86.5c0 66 14.333 118.833 43 158.5s68.334 82 119.001 127s80 79.5 88 103.5v62c-11.333 34.667 -47 61.667 -107 81
s-121.333 29 -184 29c-114 0 -206.667 -23.167 -278 -69.5s-123 -98.166 -155 -155.5c-32 -57.333 -55.667 -114.666 -71 -171.999l-69 -274c-16.667 -62.667 -25 -117.334 -25 -164.001c0 -177.333 135 -266 405 -266h148l-21 -90h-319z" />
    <glyph glyph-name="quotesingle" unicode="'" horiz-adv-x="893" 
d="M643 2728l-119 -905h-155l-119 905h393z" />
    <glyph glyph-name="parenleft" unicode="(" horiz-adv-x="1585" 
d="M569 -840l-85.998 -49c-128 210 -221.333 414.5 -280 613.5s-88 410.833 -88 635.5c0 92 7 196 21 312s49.833 262.667 107.5 440s143.167 357 256.5 539c87.333 143.333 176.166 275 266.499 395s186.666 235.667 288.999 347s211.833 221.666 328.5 331l74 -33
c-228 -268.667 -418.5 -570.167 -571.5 -904.5s-265.333 -665.333 -337 -993s-107.5 -626.167 -107.5 -895.5c0 -338.667 42.333 -584.667 127 -738z" />
    <glyph glyph-name="parenright" unicode=")" horiz-adv-x="1585" 
d="M1016 2675l85.9971 48.999c79.333 -119.333 147 -250.333 203 -393s97.5 -286 124.5 -430s40.5 -286 40.5 -426c0 -205.333 -32.667 -422.5 -98 -651.5s-159.333 -442.167 -282 -639.5c-225.333 -368.667 -521.666 -726.334 -888.999 -1073l-74 33
c150.667 164.667 288.834 359.334 414.501 584.001s234.334 465.834 326.001 723.501s161.167 513.667 208.5 768s71 493.5 71 717.5c0 325.333 -43.667 571.333 -131 738z" />
    <glyph glyph-name="asterisk" unicode="*" horiz-adv-x="2281" 
d="M1503 1909l-24.0059 -77.9922c66.667 -46.667 141.834 -94.834 225.501 -144.501s139 -84.834 166 -105.501s45.167 -45.334 54.5 -74.001c5.33301 -10.667 8 -28.334 8 -53.001s-2.66699 -43.667 -8 -57c-23.333 -71.333 -60 -107 -110 -107
c-68 0 -122.667 19.167 -164 57.5s-88.166 106.166 -140.499 203.499s-90.166 163.333 -113.499 198l-78 -16c-14 -140 -21 -249.333 -21 -328v-148c-6.66699 -34 -22.334 -63.667 -47.001 -89s-52.667 -38 -84 -38c-133.333 0 -200 46.667 -200 140
c0 37.333 5.16699 65.666 15.5 84.999s39.333 69.166 87 149.499s92.5 165.833 134.5 256.5l-53 58c-80.667 -36.667 -162.5 -77 -245.5 -121s-138.5 -71.833 -166.5 -83.5s-58.667 -17.5 -92 -17.5c-28 0 -54.833 12 -80.5 36s-42.5 53 -50.5 87v82
c8 30 24.333 57.833 49 83.5s52 41.5 82 47.5c0.666992 0 21.334 -1.33301 62.001 -4s98 -4 172 -4c24.667 0 105 2.66699 241 8l21 78c-28.667 19.333 -90 57.166 -184 113.499s-161.333 107.166 -202 152.5c-40.667 45.333 -61 101.333 -61 168
c0 24 12.5 47.833 37.5 71.5s50.833 35.5 77.5 35.5c70 0 124.333 -19.167 163 -57.5s82 -102.333 130 -192s89.667 -159.5 125 -209.5l78 16c16 128 24 230.667 24 308c0 28 -1.33301 56.667 -4 86s-4 56.666 -4 82c12.667 64.667 57.667 107 135 127h78
c32 -8 60.5 -24.833 85.5 -50.5s37.5 -55.5 37.5 -89.5c0 -27.333 -4.5 -52.666 -13.5 -76c-9 -23.333 -22.833 -50 -41.5 -80l-82.5 -138c-36.333 -62 -71.166 -127.667 -104.499 -197l58 -58l217 110c86.667 45.333 148.334 75.333 185.001 90s70.334 22 101.001 22
c66 0 109.667 -41 131 -123v-82c-8 -34.667 -24.333 -63.667 -49 -87s-53.334 -38 -86.001 -44c-10 0 -31 1.33301 -63 4s-80.667 4 -146 4c-95.333 0 -182.666 -2.66699 -261.999 -8z" />
    <glyph glyph-name="plus" unicode="+" horiz-adv-x="2859" 
d="M229 1380h1143v1143h172v-1143h1143v-172h-1143v-1138h-172v1138h-1143v172z" />
    <glyph glyph-name="comma" unicode="," horiz-adv-x="1667" 
d="M328 -700l-41.001 61c89.333 58.667 187.833 144 295.5 256s166.167 204.333 175.5 277v45c-5.33301 27.333 -24.666 41 -57.999 41c-12.667 0 -21.5 -2.16699 -26.5 -6.5s-21.833 -6.5 -50.5 -6.5c-40 0 -78.667 17.333 -116 52s-56 89.667 -56 165
c0 74.667 21.833 131.667 65.5 171s99.5 59 167.5 59c158.667 0 238 -102.667 238 -308c0 -132.667 -60 -275 -180 -427s-258 -278.333 -414 -379z" />
    <glyph glyph-name="hyphen" unicode="-" horiz-adv-x="1491" 
d="M287 1008l45 139h872l-41 -139h-876z" />
    <glyph glyph-name="period" unicode="." horiz-adv-x="1479" 
d="M287 188c0 63.333 21.333 116.833 64 160.5s96.334 65.5 161.001 65.5c62 0 114.333 -21.333 157 -64s64 -96.667 64 -162c0 -62 -21 -114.333 -63 -157s-94.667 -64 -158 -64c-64.667 0 -118.334 21.667 -161.001 65s-64 95.333 -64 156z" />
    <glyph glyph-name="slash" unicode="/" horiz-adv-x="1937" 
d="M-360 -1032l-103 69l2597 3773l115 -78z" />
    <glyph glyph-name="zero" unicode="0" horiz-adv-x="2290" 
d="M233 1040c18.667 274.667 81.6689 543.333 189.002 806s249.5 477.334 426.5 644c177 166.667 372.167 250 585.5 250c162.667 0 295.167 -46.167 397.5 -138.5s175.666 -211 219.999 -356s66.5 -299.5 66.5 -463.5c0 -175.333 -28 -368.166 -84 -578.499
s-136.5 -409.833 -241.5 -598.5s-231.333 -342.167 -379 -460.5s-308.834 -177.5 -483.501 -177.5c-135.333 0 -249.5 34 -342.5 102s-165.667 153.833 -218 257.5s-88.833 208.667 -109.5 315s-31 199.833 -31 280.5c0 51.333 1.33301 90.666 4 117.999zM852.002 2036
l-258 -1131c-38 -161.333 -57 -293.666 -57 -396.999c0 -165.333 40.5 -284.5 121.5 -357.5s171.5 -109.5 271.5 -109.5c266 0 454.333 228 565 684l283 1171c35.333 140 53 265.667 53 377c0 140 -40.167 240.5 -120.5 301.5s-176.833 91.5 -289.5 91.5
c-110 0 -204 -31.667 -282 -95s-139.667 -142.833 -185 -238.5s-79.333 -194.5 -102 -296.5z" />
    <glyph glyph-name="one" unicode="1" horiz-adv-x="1630" 
d="M336 74l610 2437c0 46 -24.667 69 -74 69h-110c-13.333 0 -44.333 -1.33301 -93 -4s-79 -4 -91 -4l24 99c62.667 3.33301 190.5 11 383.5 23s291.833 18 296.5 18l176 28l-33.5 -119.5l-51.5 -183.5c-16.667 -59.333 -25 -90.666 -25 -94l-562 -2269h316l-21 -74h-1081
l20 74h316z" />
    <glyph glyph-name="two" unicode="2" horiz-adv-x="2400" 
d="M1839 803l89.999 -0.000976562l-233 -803h-1696l66 258l872 664c67.333 50.667 147 118.834 239 204.501s186.333 190.667 283 315s177.834 263 243.501 416s98.5 309.5 98.5 469.5c0 78.667 -31.333 154.834 -94 228.5c-62.667 73.667 -166.334 110.5 -311.001 110.5
c-88 0 -168.167 -20.167 -240.5 -60.5s-128.833 -89.666 -169.5 -148c-40.667 -58.333 -61 -111.5 -61 -159.5c0 -33.333 3 -55.333 9 -66s17 -18.667 33 -24s30.333 -13.666 43 -25c12.667 -11.333 25.334 -34.333 38.001 -69c10.667 -29.333 16 -65 16 -107
c0 -78.667 -28.5 -142 -85.5 -190s-125.5 -72 -205.5 -72c-62 0 -119.167 19.333 -171.5 58s-78.5 97 -78.5 175c0 110.667 46 225.834 138 345.5c92 119.667 214 219 366 298s313 118.5 483 118.5c158.667 0 292 -31.167 400 -93.5s187.833 -146.666 239.5 -252.999
s77.5 -226.833 77.5 -361.5c0 -141.333 -38.667 -268.833 -116 -382.5s-166 -208.167 -266 -283.5s-251 -178.333 -453 -309l-1061 -680h1130c64 0 115.167 8.83301 153.5 26.5s68.5 42.667 90.5 75s44.333 79.666 67 141.999z" />
    <glyph glyph-name="three" unicode="3" horiz-adv-x="2249" 
d="M1298 1606c92 30 161.169 78.002 207.502 144.002s81.166 147.667 104.499 245l69 274c11.333 51.333 17 88.333 17 111c0 89.333 -29 159.333 -87 210s-137 76 -237 76c-97.333 0 -185.166 -19.333 -263.499 -58s-117.5 -76.667 -117.5 -114
c0 -34 20.5 -73.833 61.5 -119.5s61.5 -88.834 61.5 -129.5c0 -44.667 -13.667 -92.667 -41 -144c-50.667 -87.333 -124.334 -131 -221.001 -131c-74.667 0 -133 21.333 -175 64s-63 92.334 -63 149c0 76.667 33.667 158.834 101 246.5
c67.333 87.667 163.5 161.334 288.5 221c125 59.667 269.833 89.5 434.5 89.5c156.667 0 285 -22.833 385 -68.5s172 -101.5 216 -167.5s66 -129.333 66 -190c0 -149.333 -43.333 -294.833 -130 -436.5s-263 -243.167 -529 -304.5l-50 -13.5l-73 -19.5l-4 -16
c150.667 -26.667 283.167 -85.5 397.5 -176.5s171.5 -219.167 171.5 -384.5c0 -136 -39.333 -281.667 -118 -437s-205 -287.333 -379 -396s-393.333 -163 -658 -163c-210 0 -379.833 39.833 -509.5 119.5s-194.5 184.5 -194.5 314.5c0 115.333 24.667 220.666 74 315.999
s125.666 143 228.999 143c122.667 0 197.667 -51.667 225 -155v-119c-18 -66.667 -72.667 -132.334 -164 -197.001c-41.333 -26 -69.333 -44.667 -84 -56s-22 -28 -22 -50c0 -161.333 124 -242 372 -242c138 0 253.5 35.667 346.5 107s162.333 151.333 208 240
s76.834 169.667 93.501 243l90 368c16 79.333 24 168.333 24 267c0 139.333 -99.667 209 -299 209c-21.333 0 -43.5 -1.83301 -66.5 -5.5s-49 -8.66699 -78 -15s-48.833 -10.5 -59.5 -12.5c-36.667 -8 -76.334 -12 -119.001 -12c-38.667 0 -62 15 -70 45v36
c5.33301 36.667 21.166 63.667 47.499 81s52.833 26 79.5 26c22.667 0 55.334 -5.33301 98.001 -16c48.667 -14 113 -21 193 -21c52.667 0 103 8.33301 151 25z" />
    <glyph glyph-name="four" unicode="4" horiz-adv-x="2068" 
d="M786 74l172 692h-958l25 106l1609 1868h217l-454 -1810h422l-41 -164h-418l-172 -692h315l-20 -74h-1061l20 74h344zM995 930l336 1331l-1167 -1331h831z" />
    <glyph glyph-name="five" unicode="5" horiz-adv-x="2245" 
d="M872 2302l-229 -708.997c188 131.333 383.333 197 586 197c142.667 0 269.334 -23.667 380.001 -71s197.834 -117.833 261.501 -211.5s95.5 -205.834 95.5 -336.501c0 -186.667 -45.667 -373.334 -137 -560.001s-225.5 -340.667 -402.5 -462s-384.833 -182 -623.5 -182
c-148 0 -290.167 25.667 -426.5 77s-204.5 161 -204.5 329c0 125.333 27.167 233.833 81.5 325.5s133.833 137.5 238.5 137.5c84 0 145.167 -24.333 183.5 -73s57.5 -107.667 57.5 -177c0 -88.667 -60 -162.334 -180 -221.001l-42 -23.5
c-23.333 -13 -40.666 -25.167 -51.999 -36.5s-17 -24.333 -17 -39c0 -65.333 18.667 -118.5 56 -159.5s118.333 -61.5 243 -61.5c113.333 0 208.166 24.167 284.499 72.5s136.5 108.5 180.5 180.5s74.167 134 90.5 186s38.833 133.667 67.5 245l111 434
c13.333 50 20 128 20 234c0 82 -33 149.5 -99 202.5s-161.333 79.5 -286 79.5c-172 0 -353.667 -87.333 -545 -262l-45 8l410 1315c121.333 -58.667 232.5 -95.834 333.5 -111.5c101 -15.667 202.833 -23.5 305.5 -23.5c201.333 0 408.666 45 621.999 135l25 -53
c-98 -133.333 -253.5 -235 -466.5 -305s-409.833 -105 -590.5 -105c-28.667 0 -124.334 8.33301 -287.001 25z" />
    <glyph glyph-name="six" unicode="6" horiz-adv-x="2269" 
d="M860 1864l-131.001 -492.001c54 76.667 118.667 140 194 190s152 86.167 230 108.5s152.333 33.5 223 33.5c82 0 167.667 -17 257 -51s165.833 -90.5 229.5 -169.5s95.5 -181.5 95.5 -307.5c0 -154.667 -29.167 -305 -87.5 -451s-139 -276 -242 -390
s-222.167 -203.833 -357.5 -269.5s-276.333 -98.5 -423 -98.5c-164 0 -310 45 -438 135s-207.333 233.333 -238 430c-8 54 -12 106 -12 156c0 60 4 118.667 12 176c30 262 99.333 536.833 208 824.5s266.834 534.834 474.501 741.501s459.5 310 755.5 310
c196.667 0 342 -31.833 436 -95.5s149.333 -142.5 166 -236.5v-127c-12 -68.667 -40.833 -132.167 -86.5 -190.5s-105.5 -87.5 -179.5 -87.5c-78 0 -139.167 18.667 -183.5 56s-66.5 77.333 -66.5 120c0 107.333 38 190.666 114 250c46.667 40 70 75.333 70 106
c0 87.333 -95.667 131 -287 131c-158.667 0 -286.667 -40.167 -384 -120.5s-169.333 -175 -216 -284s-91 -241.5 -133 -397.5zM650.999 1057l-114 -466.997c-16.667 -64.667 -25 -123.334 -25 -176.001c0 -122.667 35.333 -214.834 106 -276.501s161 -92.5 271 -92.5
c256 0 433.333 191 532 573l103 406c8 31.333 16.833 82.666 26.5 153.999s14.5 125 14.5 161c0 68.667 -24.167 130.334 -72.5 185.001s-118.5 82 -210.5 82c-88 0 -176.333 -24.5 -265 -73.5s-165.667 -115.333 -231 -199s-110.333 -175.834 -135 -276.501z" />
    <glyph glyph-name="seven" unicode="7" horiz-adv-x="2077" 
d="M430 2019h-86.0049l274 688h1479c24.667 0 37 -8 37 -24s-19 -63.667 -57 -143c-74 -152 -197 -357 -369 -615l-297.5 -469c-60.333 -99.333 -120.166 -209.166 -179.499 -329.499s-122.166 -263.333 -188.499 -429s-154.5 -398.167 -264.5 -697.5h-446
c98.667 270 220.334 513.667 365.001 731s308.334 433.666 491.001 648.999l239.5 297c67.667 86 139.334 184.333 215.001 295s145.167 223.334 208.5 338h-1077c-72 0 -133.833 -20.333 -185.5 -61s-104.5 -117.334 -158.5 -230z" />
    <glyph glyph-name="eight" unicode="8" horiz-adv-x="2187" 
d="M872 1421l-180 139.999c-62 48 -107.5 106.833 -136.5 176.5s-43.5 130.834 -43.5 183.501c0 120 35.5 243.833 106.5 371.5s176 234.167 315 319.5s302.833 128 491.5 128c125.333 0 235.166 -21.833 329.499 -65.5s166.833 -106.667 217.5 -189s76 -179.166 76 -290.5
c0 -142.667 -68.833 -267 -206.5 -373s-294.167 -183.667 -469.5 -233l168 -135c191.333 -152.667 287 -307 287 -463c0 -160.667 -43.833 -320.5 -131.5 -479.5s-209.667 -289.5 -366 -391.5s-329.166 -153 -518.499 -153c-265.333 0 -457.333 49.833 -576 149.5
s-178 209.5 -178 329.5c0 165.333 39 309.333 117 432s175 224.667 291 306s251.667 160.333 407 237zM987 1880l303.001 -229c182.667 71.333 307.5 172 374.5 302s100.5 249 100.5 357c0 103.333 -31.833 188.5 -95.5 255.5s-154.5 100.5 -272.5 100.5
c-130 0 -240.333 -27.5 -331 -82.5s-157.834 -122 -201.501 -201s-65.5 -153.5 -65.5 -223.5c0 -93.333 62.667 -186.333 188 -279zM1339 1069l-380.999 291c-162.667 -88.667 -288.5 -193 -377.5 -313s-148 -234.167 -177 -342.5s-43.5 -203.833 -43.5 -286.5
c0 -100.667 39.167 -188.667 117.5 -264s193.5 -113 345.5 -113c114 0 221.667 30.833 323 92.5s182.166 143.667 242.499 246s90.5 210.833 90.5 325.5c0 86 -8.33301 156.667 -25 212s-55 106 -115 152z" />
    <glyph glyph-name="nine" unicode="9" horiz-adv-x="2269" 
d="M1409 844l130.996 491.002c-81.333 -112.667 -182 -196 -302 -250s-235 -81 -345 -81c-126.667 0 -255.334 37.167 -386.001 111.5s-196 213.166 -196 416.499c0 155.333 29.5 306.166 88.5 452.499s140.167 276.166 243.5 389.5
c103.333 113.333 222.333 202.666 357 268c134.667 65.333 275 98 421 98c164 0 310.333 -45.167 439 -135.5s207.667 -233.5 237.001 -429.5c8 -52.667 12 -104.667 12 -156c0 -62.667 -4 -122.667 -12 -180c-30 -262.667 -99.5 -537.667 -208.5 -825
s-267.333 -533.666 -475 -738.999s-459.167 -308 -754.5 -308c-197.333 0 -342.666 31.333 -435.999 94s-148.666 142 -165.999 238v127c14 69.333 41.333 132.333 82 189s102.334 85 185.001 85c80.667 0 142.334 -17.167 185.001 -51.5s64 -74.5 64 -120.5
c0 -106.667 -38 -189.667 -114 -249c-46.667 -34 -70 -71 -70 -111c0 -28.667 21.167 -57 63.5 -85s116.833 -42 223.5 -42c150 0 272.667 36.333 368 109s168.5 164.667 219.5 276s99.5 250.666 145.5 417.999zM1618 1647l115.002 471c16 68.667 24 128.667 24 180
c0 131.333 -38.667 224.833 -116 280.5s-164.333 83.5 -261 83.5c-120.667 0 -219 -37.5 -295 -112.5s-128.833 -150.167 -158.5 -225.5s-55.834 -155 -78.501 -239l-103 -402c-8 -26.667 -16.667 -78 -26 -154s-14 -131 -14 -165c0 -79.333 28.167 -143.5 84.5 -192.5
s122.166 -73.5 197.499 -73.5c72.667 0 153.167 21.833 241.5 65.5s168.5 107.167 240.5 190.5s121.667 181 149 293z" />
    <glyph glyph-name="colon" unicode=":" horiz-adv-x="1491" 
d="M643 1602c0 60.667 21 112.667 63 156s94.667 65 158 65c64.667 0 118.5 -21.5 161.5 -64.5s64.5 -95.167 64.5 -156.5c0 -63.333 -21.5 -116.833 -64.5 -160.5s-96.833 -65.5 -161.5 -65.5c-62 0 -114.333 21.667 -157 65s-64 97 -64 161zM287 188
c0 64.667 21.501 118.5 64.501 161.5s96.5 64.5 160.5 64.5c62 0 114.333 -21.333 157 -64s64 -96.667 64 -162c0 -64 -21.5 -116.833 -64.5 -158.5s-95.167 -62.5 -156.5 -62.5c-64.667 0 -118.334 21.667 -161.001 65s-64 95.333 -64 156z" />
    <glyph glyph-name="semicolon" unicode=";" horiz-adv-x="1663" 
d="M815 1602c0 52 20.5 101.833 61.5 149.5s95.5 71.5 163.5 71.5c62.667 0 115.334 -21 158.001 -63s64 -94.667 64 -158c0 -64.667 -21.5 -118.5 -64.5 -161.5s-95.5 -64.5 -157.5 -64.5c-66.667 0 -120.834 24 -162.501 72s-62.5 99.333 -62.5 154zM332 -700
l-44.9971 60.999c99.333 64.667 185.666 134.334 258.999 209.001s127.666 141.167 162.999 199.5s53 99.833 53 124.5c0 57.333 -19 86 -57 86c-4.66699 0 -10 -0.833008 -16 -2.5s-10.333 -2.5 -13 -2.5c-22.667 -5.33301 -40.334 -8 -53.001 -8c-44 0 -83.667 20 -119 60
s-53 92.333 -53 157c0 65.333 21.167 120 63.5 164s100.166 66 173.499 66c75.333 0 133.833 -27.167 175.5 -81.5s62.5 -129.833 62.5 -226.5c0 -94 -28.667 -190.667 -86 -290s-131.666 -193.833 -222.999 -283.5s-186.333 -167.167 -285 -232.5z" />
    <glyph glyph-name="less" unicode="&#x3c;" 
d="M57 1348l1889 1089l118 -221l-1503 -868l1503 -869l-118 -221z" />
    <glyph glyph-name="equal" unicode="=" horiz-adv-x="2859" 
d="M229 1667h2458v-172h-2458v172zM229 1094h2458v-172h-2458v172z" />
    <glyph glyph-name="greater" unicode="&#x3e;" 
d="M2122 1348l-1889 -1090l-118 221l1503 869l-1503 868l118 221z" />
    <glyph glyph-name="question" unicode="?" horiz-adv-x="2036" 
d="M791 668l-98.9971 0.00390625c39.333 163.333 84 302.166 134 416.499s102.5 211.5 157.5 291.5s131.167 181 228.5 303c104 130.667 178.5 233.167 223.5 307.5s67.5 169.833 67.5 286.5c0 2.66699 0.666992 13 2 31s2 35 2 51c0 204.667 -98.333 307 -295 307
c-98 0 -189.5 -21.167 -274.5 -63.5s-152.667 -95.333 -203 -159s-75.5 -123.167 -75.5 -178.5c0 -32 10.833 -52.333 32.5 -61s53.167 -13 94.5 -13h37c51.333 0 88.166 -15.667 110.499 -47s33.5 -62 33.5 -92c0 -60.667 -27.5 -122.334 -82.5 -185.001
s-127.167 -94 -216.5 -94c-47.333 0 -88.5 25.833 -123.5 77.5s-52.5 116.167 -52.5 193.5c0 88 28.167 187.167 84.5 297.5s141.166 205 254.499 284s250 118.5 410 118.5c135.333 0 250.166 -19.5 344.499 -58.5s164.333 -92.5 210 -160.5s68.5 -145 68.5 -231
c0 -180.667 -48.667 -338.334 -146 -473.001s-231.666 -273.334 -402.999 -416.001c-148.667 -119.333 -265.334 -231.333 -350.001 -336s-142.667 -237 -174 -397zM401.003 188.004c0 63.333 21.5 116.833 64.5 160.5s96.833 65.5 161.5 65.5c62 0 114.333 -21.333 157 -64
s64 -96.667 64 -162c0 -62 -21 -114.333 -63 -157s-94.667 -64 -158 -64c-64.667 0 -118.5 21.5 -161.5 64.5s-64.5 95.167 -64.5 156.5z" />
    <glyph glyph-name="at" unicode="@" horiz-adv-x="3846" 
d="M3015 2327l-340.001 -1127c-52 -168.667 -78 -283.334 -78 -344.001c0 -96 21.667 -163.667 65 -203s87 -59 131 -59c117.333 0 238.5 48.333 363.5 145s228.167 229.334 309.5 398.001s122 355 122 559c0 193.333 -36.5 378 -109.5 554s-178.833 331.5 -317.5 466.5
s-310 241.667 -514 320s-433.667 117.5 -689 117.5c-241.333 0 -463.666 -47.5 -666.999 -142.5s-377.833 -224 -523.5 -387s-257.5 -347.5 -335.5 -553.5s-117 -415.667 -117 -629c0 -216 39.667 -428.167 119 -636.5s193.166 -395 341.499 -560s324.833 -295 529.5 -390
s426.334 -142.5 665.001 -142.5c450.667 0 819.334 125.667 1106 377l90 -115c-150.667 -112 -295.334 -197.667 -434 -257c-138.667 -59.333 -266.834 -98.833 -384.5 -118.5c-117.667 -19.667 -239.5 -29.5 -365.5 -29.5c-270 0 -520 51 -750 153
s-428.667 242.167 -596 420.5s-296 380.333 -386 606s-135 457.834 -135 696.501c0 230 42.667 455.667 128 677s208.5 420.666 369.5 598c161 177.333 355.5 317.666 583.5 420.999s479.333 155 754 155c242 0 470 -36.5 684 -109.5s403.5 -179 568.5 -318
s294.333 -308.167 388 -507.5s140.5 -421.333 140.5 -666c0 -208 -39.5 -408.167 -118.5 -600.5s-192.667 -347.833 -341 -466.5s-321.166 -178 -518.5 -178c-216.667 0 -378 86 -484 258c-182.667 -144.667 -375 -217 -577 -217c-138 0 -256.833 34.667 -356.5 104
s-175.167 162.666 -226.5 279.999s-77 247.333 -77 390c0 147.333 27.5 290 82.5 428s131.667 259.667 230 365s214.5 188.5 348.5 249.5s278.333 91.5 433 91.5c196 0 358.333 -88.667 487 -266l62 193h340zM2236 893.001l279 982.999
c-20.667 125.333 -69.5 222.166 -146.5 290.499s-160.5 102.5 -250.5 102.5c-102 0 -207 -44.667 -315 -134s-197.167 -213.166 -267.5 -371.499s-105.5 -335.166 -105.5 -530.499c0 -192 24.167 -339 72.5 -441s140.166 -153 275.499 -153
c178.667 0 331.334 84.667 458.001 254z" />
    <glyph glyph-name="A" unicode="A" horiz-adv-x="2314" 
d="M1384 975h-815l-254 -471c-46 -88 -69 -160.333 -69 -217c0 -64 18.667 -115.5 56 -154.5s88.333 -58.5 153 -58.5h32l-16 -74h-700l20 74c74 19.333 154 76.833 240 172.5s156.333 192.5 211 290.5l1224 2203h37l426 -2666h299l-20 -74h-1004l21 74h291zM1372 1049
l-176 1065l-582 -1065h758z" />
    <glyph glyph-name="B" unicode="B" horiz-adv-x="2712" 
d="M283 74l639.002 2560h-377l16 73h1282c191.333 0 343.5 -26.833 456.5 -80.5s190.833 -118.5 233.5 -194.5s64 -152 64 -228c0 -105.333 -27.667 -211 -83 -317s-141.666 -198.5 -259 -277.5c-117.333 -79 -264 -132.167 -440 -159.5v-29
c102 -4.66699 200.5 -23.334 295.5 -56.001s176 -89.667 243 -171s100.5 -191.333 100.5 -330c0 -108.667 -31.833 -229 -95.5 -361s-183.834 -248.833 -360.501 -350.5s-419.334 -152.5 -728.001 -152.5h-1385l21 74h377zM729.002 74.001l548.999 -0.000976562
c129.333 0 246.333 25.833 351 77.5s180 170.5 226 356.5l91 364c16 74 24 137 24 189c0 98 -24.5 171.333 -73.5 220s-105.667 78.834 -170 90.501s-136.166 17.5 -215.499 17.5h-446zM1081 1466h455c158.667 0 280 36.5 364 109.5s137.333 156.833 160 251.5l70 282
c13.333 60 20 151.667 20 275c0 108.667 -39.5 177.5 -118.5 206.5s-173.167 43.5 -282.5 43.5h-381z" />
    <glyph glyph-name="C" unicode="C" horiz-adv-x="2482" 
d="M2060 791l73.999 3.99805l-209 -795h-74c-5.33301 32.667 -17.666 57.167 -36.999 73.5s-37 24.5 -53 24.5c-68.667 0 -143.667 -16.333 -225 -49c-79.333 -29.333 -144.166 -50.333 -194.499 -63s-119.166 -19 -206.499 -19c-155.333 0 -302.5 33.167 -441.5 99.5
s-251.167 168.333 -336.5 306s-128 305.834 -128 504.501c0 222.667 34.5 445.334 103.5 668.001s166.333 424.167 292 604.5s275 323.833 448 430.5s358.833 160 557.5 160c103.333 0 177 -9 221 -27s93 -44.667 147 -80s104.667 -53 152 -53c76 0 141.667 42.333 197 127
h78l-176 -778h-70c0 146 -23.333 274.667 -70 386s-110.5 197.666 -191.5 259c-81 61.333 -169.833 92 -266.5 92c-90 0 -182.333 -21.167 -277 -63.5s-187.334 -127.333 -278.001 -255s-163.667 -308.167 -219 -541.5l-222 -934c-24.667 -111.333 -37 -200 -37 -266
c0 -229.333 56.333 -380.833 169 -454.5s230 -110.5 352 -110.5c204 0 384.667 59 542 177s283.666 309 378.999 573z" />
    <glyph glyph-name="D" unicode="D" horiz-adv-x="3006" 
d="M922 2634h-328v73h1085c110 0 222.5 -9.33301 337.5 -28s236.167 -64 363.5 -136s234.833 -188 322.5 -348s131.5 -370 131.5 -630c0 -193.333 -36.833 -382.5 -110.5 -567.5s-182.834 -353 -327.501 -504s-324.167 -271 -538.5 -360s-455.166 -133.5 -722.499 -133.5
h-1250l21 74h377zM721 74h413.999c244 0 450.333 59.167 619 177.5s299.834 271 393.501 458s159.834 384 198.5 591c38.667 207 58 409.833 58 608.5c0 82 -10.5 175.167 -31.5 279.5s-75.333 204.666 -163 301c-87.667 96.333 -219.167 144.5 -394.5 144.5h-447z" />
    <glyph glyph-name="E" unicode="E" horiz-adv-x="2601" 
d="M2179 848l78.002 -0.00195312l-209 -848h-2163l21 74h377l639 2560h-377l16 73h1983l-185 -741l-78 4c6 27.333 9 68.333 9 123c0 98 -18.833 188.333 -56.5 271s-93.834 148.334 -168.5 197.001c-74.667 48.667 -163.667 73 -267 73h-430l-278 -1114h344
c152 0 275.333 42.833 370 128.5s161 192.834 199 321.501l65 -4l-253 -1024h-70v172c0 136.667 -44.833 225.5 -134.5 266.5s-166.5 61.5 -230.5 61.5h-307l-340 -1368h434c134 0 259.667 21.833 377 65.5s230.166 122.667 338.499 237s207.166 271.5 296.499 471.5z" />
    <glyph glyph-name="F" unicode="F" horiz-adv-x="2572" 
d="M283 74l639 2560h-377l16 73h2011l-184 -741l-78 4c5.33301 27.333 8 68.333 8 123c0 94.667 -18.667 182.5 -56 263.5s-100.333 147.5 -189 199.5s-205 78 -349 78h-356l-283 -1143h320c152.667 0 276.667 43.333 372 130s161 193.667 197 321l66 -5l-254 -1024h-70v172
c0 136.667 -44.833 225.5 -134.5 266.5s-166.167 61.5 -229.5 61.5h-283l-336 -1339h434l-20 -74h-1262l21 74h377z" />
    <glyph glyph-name="G" unicode="G" horiz-adv-x="2789" 
d="M1761 1118l970.998 -0.00195312l-20 -78h-242l-41 -155c-44.667 -170.667 -131.334 -326.167 -260.001 -466.5s-286.167 -250.666 -472.5 -330.999s-383.166 -120.5 -590.499 -120.5c-142 0 -268.167 26.167 -378.5 78.5s-202.666 124.5 -276.999 216.5
s-129.833 196.167 -166.5 312.5s-55 240.166 -55 371.499c0 218.667 45.167 435.667 135.5 651s212.666 409.333 366.999 582s327.333 309.334 519 410.001s385.167 151 580.5 151c82 0 151.5 -7.66699 208.5 -23s122.667 -36.5 197 -63.5s126.166 -40.5 155.5 -40.5
c78 0 145 42.333 201 127h98l-213 -876h-90c13.333 72 20 145.667 20 221c0 164.667 -39.333 302.667 -118 414s-214 167 -406 167c-201.333 0 -377.666 -71.833 -528.999 -215.5s-274.166 -328.667 -368.499 -555s-164.166 -466.5 -209.499 -720.5s-68 -490 -68 -708
c0 -37.333 12.333 -89.166 37 -155.499s71.5 -128 140.5 -185s163.833 -85.5 284.5 -85.5c385.333 0 636.666 236.333 753.999 709l74 290h-258z" />
    <glyph glyph-name="H" unicode="H" horiz-adv-x="3129" 
d="M1098 1552h1089l271 1082h-377l16 73h1204l-16 -73h-381l-635 -2560h377l-20 -74h-1205l21 74h377l352 1405h-1094l-348 -1405h377l-16 -74h-1205l17 74h381l635 2560h-377l20 73h1204l-20 -73h-377z" />
    <glyph glyph-name="I" unicode="I" horiz-adv-x="1593" 
d="M918 2634h-377l20 73h1204l-16 -73h-381l-639 -2560h377l-16 -74h-1205l17 74h381z" />
    <glyph glyph-name="J" unicode="J" horiz-adv-x="1663" 
d="M811 2707l1024 0.000976562l-20 -73h-222l-512 -1954c-126.667 -475.333 -380.667 -713 -762 -713c-162.667 0 -285.167 40.167 -367.5 120.5s-123.5 179.5 -123.5 297.5c0 96 29 170.5 87 223.5s128.667 79.5 212 79.5c74.667 0 133.667 -25.5 177 -76.5
s65 -111.5 65 -181.5c0 -77.333 -33 -137.333 -99 -180c-24 -17.333 -53.833 -31 -89.5 -41s-56.167 -19.667 -61.5 -29v-57c22.667 -57.333 65 -86 127 -86c86 0 154 37.667 204 113s84.333 149.666 103 222.999l594 2261h-356z" />
    <glyph glyph-name="K" unicode="K" horiz-adv-x="2753" 
d="M971 1294l1155 942c60 47.333 105 87.166 135 119.5c30 32.333 45 66.5 45 102.5c0 70.667 -26 117 -78 139s-128.333 34.333 -229 37l20 73h963l-21 -73c-78.667 -0.666992 -152.834 -15.834 -222.5 -45.5c-69.667 -29.667 -140.167 -71.167 -211.5 -124.5
s-175.833 -138.666 -313.5 -256l-312.5 -262l-213 -172l626 -1700h234l-17 -74h-1032l17 74h294l-483 1401l-393 -320l-266 -1081h286l-20 -74h-1049l17 74h315l639 2560h-315l20 73h1049l-21 -73h-286z" />
    <glyph glyph-name="L" unicode="L" horiz-adv-x="2363" 
d="M918 2634l-376.998 0.000976562l20 73h1204l-20 -73h-377l-639 -2560h483c134 0 259.667 22 377 66s230.166 123.167 338.499 237.5s207.166 271.166 296.499 470.499h82l-213 -848h-2208l17 74h381z" />
    <glyph glyph-name="M" unicode="M" horiz-adv-x="3461" 
d="M1507 537l1295 2170h831l-16 -73h-377l-639 -2560h377l-17 -74h-1204l17 74h380l599 2412l-1508 -2519h-74l-262 2495l-467 -1925c-16 -66 -24 -122 -24 -168c0 -186.667 98.333 -285 295 -295l-21 -74h-807l17 74c91.333 14 181 56.667 269 128
s152.667 189.666 194 354.999l413 1630c16.667 66 25 131.667 25 197c0 166.667 -64.333 250 -193 250h-168l17 73h856z" />
    <glyph glyph-name="N" unicode="N" horiz-adv-x="2683" 
d="M266 426l422 1704c22 84 33 151 33 201c0 146.667 -91.667 247.667 -275 303l17 73h622l943 -2048l397 1622c10.667 40.667 16 80.334 16 119c0 76 -21 134 -63 174s-97.333 60 -166 60l16 73h684l-16 -73c-194.667 -12.667 -320.334 -130.334 -377 -353l-582 -2314h-45
l-1073 2314l-463 -1855c-5.33301 -33.333 -8 -62 -8 -86c0 -71.333 18.833 -133 56.5 -185s99.5 -79 185.5 -81l-21 -74h-684l21 74c88.667 2 164.667 35 228 99s107.333 148.333 132 253z" />
    <glyph glyph-name="O" unicode="O" horiz-adv-x="2851" 
d="M229 1004c-2.66699 21.333 -3.99902 56.667 -3.99902 106c0 191.333 31.5 383 94.5 575s156.333 368.167 280 528.5s276.167 288.166 457.5 383.5c181.333 95.333 386 143 614 143c218 0 403.167 -51 555.5 -153s265.833 -233.333 340.5 -394s112 -327.667 112 -501
c0 -180.667 -31.667 -371.667 -95 -573s-155.833 -389.166 -277.5 -563.499s-273.834 -316 -456.501 -425s-387 -163.5 -613 -163.5c-202 0 -377 45.167 -525 135.5s-262.5 214.166 -343.5 371.499s-127.5 334 -139.5 530zM848.001 1839l-197.001 -795.001
c-24.667 -103.333 -37 -274 -37 -512c0 -159.333 58.167 -282.333 174.5 -369s261.833 -130 436.5 -130c408 0 678.333 300.333 811 901l176 786c19.333 82.667 29 231.667 29 447c0 110.667 -27 204.334 -81 281.001s-123.667 133 -209 169s-174.666 54 -267.999 54
c-188.667 0 -357.5 -67.333 -506.5 -202s-258.5 -344.667 -328.5 -630z" />
    <glyph glyph-name="P" unicode="P" horiz-adv-x="2654" 
d="M979 2634h-381l20 73h1205c255.333 0 462.5 -44.5 621.5 -133.5s238.5 -235.5 238.5 -439.5c0 -216 -69.167 -420.833 -207.5 -614.5s-448.833 -290.5 -931.5 -290.5h-471l-287 -1155h381l-20 -74h-1204l16 74h381zM1094 1303h498.999c272.667 0 443.334 131 512.001 393
l103 413c16 66 24 122 24 168c0 128.667 -37.167 218.834 -111.5 270.5c-74.333 51.667 -158.5 80.5 -252.5 86.5h-443z" />
    <glyph glyph-name="Q" unicode="Q" horiz-adv-x="2851" 
d="M451 -229l-61.998 57.0039c130.667 118.667 267.334 191 410.001 217c-134 66 -262.5 171 -385.5 315s-184.5 358.667 -184.5 644c0 219.333 32.667 432.666 98 639.999s160.333 393.666 285 558.999s277.167 296.166 457.5 392.5
c180.333 96.333 380.833 144.5 601.5 144.5c217.333 0 402.333 -50.667 554.999 -152c152.667 -101.333 266.334 -232.333 341.001 -393s112 -328.334 112 -503.001c0 -194.667 -34 -392.834 -102 -594.501s-166.833 -388.334 -296.5 -560.001s-287 -309.667 -472 -414
s-387.833 -156.5 -608.5 -156.5h-8v-24c58 -34 102.667 -71.833 134 -113.5s64.333 -98.167 99 -169.5c113.333 -237.333 218.666 -356 315.999 -356c41.333 0 75.5 9.5 102.5 28.5s40.5 39.5 40.5 61.5c0 28.667 -16.333 75 -49 139c-16.667 30 -25 62.667 -25 98
c0 47.333 17.167 88.5 51.5 123.5s76.166 52.5 125.499 52.5c52.667 0 99.834 -17 141.501 -51s62.5 -79.667 62.5 -137c0 -65.333 -24.167 -130.666 -72.5 -195.999s-115 -119.333 -200 -162s-179.833 -64 -284.5 -64c-155.333 0 -279.333 38 -372 114
s-177.334 173.333 -254.001 292c-106.667 177.333 -213.334 266 -320.001 266c-67.333 0 -146.333 -32.667 -237 -98zM848.002 1839l-197.001 -795c-24.667 -103.333 -37 -274 -37 -512c0 -159.333 58.167 -282.333 174.5 -369s261.833 -130 436.5 -130
c228.667 0 405.5 82 530.5 246s218.5 382.333 280.5 655l176 786c19.333 82.667 29 231.667 29 447c0 110.667 -27 204.334 -81 281c-54 76.667 -123.667 133 -209 169s-174.666 54 -267.999 54c-188.667 0 -357.5 -67.333 -506.5 -202s-258.5 -344.667 -328.5 -630z" />
    <glyph glyph-name="R" unicode="R" horiz-adv-x="2814" 
d="M283 74l638.999 2560h-377l16 73h1282c185.333 0 337.333 -23.333 455.999 -70c118.667 -46.667 207 -104 265 -172s96.333 -134.167 115 -198.5s28 -122.166 28 -173.5c0 -97.333 -23.5 -194.5 -70.5 -291.5s-141 -182.833 -282 -257.5s-338.833 -115.667 -593.5 -123
v-28c352.667 -97.333 529 -310.333 529 -639v-385c0 -114.667 39.333 -172 118 -172c41.333 0 84.333 20.333 129 61s81 85.667 109 135c12 21.333 28.333 44.666 49 69.999l86 -41c-151.333 -303.333 -331.333 -455 -540 -455c-75.333 0 -145.166 16.5 -209.499 49.5
s-115.166 80.833 -152.499 143.5s-56 136.334 -56 221.001c0 100.667 1.33301 177 4 229l12 308c0 322 -157 483 -471 483h-307l-332 -1327h381l-20 -74h-1205l21 74h377zM1368 2634l-287.001 -1155h447c123.333 0 239.833 27.667 349.5 83s198.334 139.166 266.001 251.499
s101.5 247.833 101.5 406.499c0 179.333 -49 293.166 -147 341.5c-98 48.333 -214.333 72.5 -349 72.5h-381z" />
    <glyph glyph-name="S" unicode="S" horiz-adv-x="2351" 
d="M0 0l200.999 868h53c41.333 -323.333 139.5 -542 294.5 -656s313.5 -171 475.5 -171c116 0 229.833 29.5 341.5 88.5s202.167 139.667 271.5 242s104 214.833 104 337.5c0 107.333 -28.333 186.333 -85 237s-135 93 -235 127l-446 152c-141.333 48 -248.333 126 -321 234
s-109 232 -109 372c0 153.333 38.667 300 116 440s186.666 253.167 327.999 339.5s301.666 129.5 480.999 129.5c170.667 0 318.334 -20.333 443.001 -61c66.667 -24.667 132 -37 196 -37c34.667 0 74.334 21.667 119.001 65h66l-144 -659h-57
c-30 164.667 -81.333 293.167 -154 385.5s-150.167 154.166 -232.5 185.499s-163.833 47 -244.5 47c-105.333 0 -208.166 -22 -308.499 -66s-182.5 -109 -246.5 -195s-96 -188.667 -96 -308c0 -201.333 113.333 -335 340 -401l442 -131
c144.667 -42 254.667 -119.667 330 -233s113 -253 113 -419c0 -167.333 -43.667 -323.833 -131 -469.5s-206.833 -261.5 -358.5 -347.5s-317.5 -129 -497.5 -129c-134 0 -242.167 10.833 -324.5 32.5s-166.833 55.834 -253.5 102.501c-84 44 -138.667 66 -164 66
c-90 0 -159.667 -56 -209 -168h-98z" />
    <glyph glyph-name="T" unicode="T" horiz-adv-x="2474" 
d="M1343 2634h-270.001c-137.333 0 -258.666 -40.5 -363.999 -121.5s-189.5 -172.833 -252.5 -275.5s-114.167 -202.667 -153.5 -300h-74l238 770h2236l-188 -770h-82c10.667 51.333 16 113 16 185c0 91.333 -14 175.833 -42 253.5s-74.667 140.167 -140 187.5
s-149.333 71 -252 71h-225l-639 -2560h381l-21 -74h-1204l21 74h377z" />
    <glyph glyph-name="U" unicode="U" horiz-adv-x="2753" 
d="M754 2634h-377.001l16 73h1204l-16 -73h-381l-475 -1909c-10.667 -40 -16 -85 -16 -135c0 -94 23.333 -182.167 70 -264.5s113.834 -148.333 201.501 -198s189.5 -74.5 305.5 -74.5c136.667 0 279.5 37 428.5 111s253.5 222.667 313.5 446l438 1651
c13.333 58.667 20 110.667 20 156c0 81.333 -24.667 137.833 -74 169.5s-101 47.5 -155 47.5l16 73h709l-21 -73c-82.667 0 -161.834 -29 -237.5 -87c-75.667 -58 -132.834 -158.667 -171.501 -302l-443 -1655c-52.667 -200.667 -156.667 -354.667 -312 -462
s-348.666 -161 -579.999 -161c-199.333 0 -369 34 -509 102s-245.167 157.333 -315.5 268s-105.5 227.667 -105.5 351c0 49.333 6.66699 101.333 20 156z" />
    <glyph glyph-name="V" unicode="V" horiz-adv-x="2380" 
d="M1204 557l824 1471l43 76c14 24.667 26.667 53.334 38 86c11.333 32.667 21 75.334 29 128v90c-13.333 72.667 -57 134.334 -131 185c-44 27.333 -87.667 41 -131 41h-66l21 73h893l-17 -73c-74 -6 -140.333 -27.667 -199 -65s-110.334 -84.666 -155 -142
c-44.667 -57.333 -88.5 -124.5 -131.5 -201.5l-116.5 -210.5l-1151 -2048h-73l-488 2667h-307l25 73h1028l-21 -73h-295z" />
    <glyph glyph-name="W" unicode="W" horiz-adv-x="3756" 
d="M1200 557l713 1270l-148 807h-303l21 73h1032l-21 -73h-294l376 -2077l828 1471c73.333 126 110 222.667 110 290c0 88 -24.5 162.667 -73.5 224s-111.833 92 -188.5 92h-65l16 73h897l-16 -73c-76 -4 -143.333 -24.833 -202 -62.5s-109.334 -84 -152 -139
c-42.667 -55 -84.5 -119.667 -125.5 -194l-122.5 -223.5l-1151 -2048h-74l-320 1745l-983 -1745h-73l-492 2667h-303l20 73h1033l-21 -73h-295z" />
    <glyph glyph-name="X" unicode="X" horiz-adv-x="2535" 
d="M1200 1204l-646.999 -712.001c-76.667 -86 -115 -154.333 -115 -205c0 -53.333 23.833 -101.666 71.5 -144.999s122.167 -66 223.5 -68l-16 -74h-832v74c168 45.333 332 154.333 492 327l799 873l-480 1360h-303l13 73h1056l-12 -73h-283l365 -1024l565 651
c71.333 82 107 149 107 201c0 66.667 -28.833 112 -86.5 136s-110.834 36 -159.501 36h-41l12 73h836v-73c-133.333 -18.667 -237.5 -57.667 -312.5 -117s-156.5 -140.666 -244.5 -244l-652 -733l512 -1466h328l-24 -74h-1115l21 74h319z" />
    <glyph glyph-name="Y" unicode="Y" horiz-adv-x="2343" 
d="M1348 1343l597.999 766l54.5 72.5c25.667 34.333 46.834 67.5 63.501 99.5s25 62.333 25 91c0 105.333 -23 174.833 -69 208.5s-118.667 51.5 -218 53.5l17 73h856l-21 -73c-82 -6 -158.833 -39.333 -230.5 -100s-168.167 -168 -289.5 -322l-766 -963l-295 -1175h381
l-20 -74h-1205l21 74h377l291 1163l-373 1397h-275l21 73h1032l-20 -73h-304z" />
    <glyph glyph-name="Z" unicode="Z" horiz-adv-x="2408" 
d="M639 2707h1769l-1843 -2633h516c137.333 0 262.5 27.5 375.5 82.5s214.167 125.167 303.5 210.5s193.666 196.333 312.999 333h98l-242 -700h-1929l1843 2634h-360c-90 0 -194 -19.167 -312 -57.5s-237.333 -102.333 -358 -192s-225 -205.834 -313 -348.5h-99z" />
    <glyph glyph-name="bracketleft" unicode="[" horiz-adv-x="1966" 
d="M963 -762l-25 -98h-856l893 3567h909l-24 -102h-496l-840 -3367h439z" />
    <glyph glyph-name="backslash" unicode="\" 
d="M1892 -287h-286l-1319 3441h286z" />
    <glyph glyph-name="bracketright" unicode="]" horiz-adv-x="1909" 
d="M1004 2605l24 102h799l-889 -3567h-856l24 98h439l844 3367h-385z" />
    <glyph glyph-name="asciicircum" unicode="^" horiz-adv-x="1491" 
d="M745 2351l-331 -332h-344l675 676l676 -676h-344z" />
    <glyph glyph-name="underscore" unicode="_" 
d="M0 -803v287h2179v-287h-2179z" />
    <glyph glyph-name="grave" unicode="`" horiz-adv-x="819" 
d="M557 2707l258 -561h-45l-766 561h553z" />
    <glyph glyph-name="a" unicode="a" horiz-adv-x="2122" 
d="M1442 1495h19.999l62 250h364l-397 -1503c-8 -42 -12 -72 -12 -90c0 -18.667 7.33301 -35.667 22 -51s34.667 -23 60 -23c35.333 0 79 26 131 78c93.333 101.333 178 232.333 254 393l61 -29c-75.333 -146 -144.333 -260 -207 -342s-125 -139.667 -187 -173
s-131.333 -50 -208 -50c-81.333 0 -145.333 25.5 -192 76.5s-70 116.833 -70 197.5v45h-17c-67.333 -106 -138.5 -185.667 -213.5 -239s-166.167 -80 -273.5 -80c-98 0 -187.167 30.5 -267.5 91.5s-143.166 143.167 -188.499 246.5s-68 216 -68 338
c0 174.667 36.167 334 108.5 478s165 267 278 369s229.333 179.5 349 232.5s225.167 79.5 316.5 79.5c157.333 0 249 -98.333 275 -295zM1237 705l119.003 438.001c0 -6 6.83301 24.5 20.5 91.5s20.5 126.5 20.5 178.5c0 101.333 -23.167 180 -69.5 236s-102.5 84 -168.5 84
c-100.667 0 -189.334 -39.833 -266.001 -119.5s-135.834 -164.5 -177.501 -254.5s-69.834 -163.333 -84.501 -220l-115 -459c-40.667 -166 -61 -289 -61 -369c0 -94.667 22.167 -168.167 66.5 -220.5s98.5 -78.5 162.5 -78.5c106 0 209.833 60.667 311.5 182
s182.167 291.666 241.5 510.999z" />
    <glyph glyph-name="b" unicode="b" horiz-adv-x="1925" 
d="M676 1524l12.001 -8c139.333 182.667 289.666 274 450.999 274c113.333 0 216.833 -31.333 310.5 -94s167.667 -149.667 222 -261s81.5 -237.333 81.5 -378c0 -165.333 -49.333 -334.333 -148 -507s-229.334 -315 -392.001 -427s-333.667 -168 -513 -168
c-120 0 -224.333 32.333 -313 97s-156.167 149.667 -202.5 255s-69.5 217.333 -69.5 336c0 40 2.33301 80.167 7 120.5s11.334 78 20.001 113s19.167 72.333 31.5 112s18.833 61.167 19.5 64.5l430 1527h-492l12 58h836zM524.001 942l-86 -273.999
c-10 -32.667 -20.667 -81.5 -32 -146.5s-17 -113.167 -17 -144.5c0 -90.667 27.333 -167.334 82 -230.001s131 -94 229 -94c204.667 0 361.667 166.667 471 500l127 385c16 47.333 32.333 109.666 49 186.999s25 138 25 182c0 130 -26.667 226.667 -80 290s-118 95 -194 95
c-85.333 0 -161 -27.833 -227 -83.5s-122.333 -126.167 -169 -211.5s-85.5 -174.666 -116.5 -267.999z" />
    <glyph glyph-name="c" unicode="c" horiz-adv-x="1892" 
d="M1532 606l57 -33.002c-85.333 -150.667 -169.5 -271.334 -252.5 -362.001s-168.667 -156 -257 -196s-183.166 -60 -284.499 -60c-120 0 -232 27 -336 81s-187.333 135.167 -250 243.5s-94 240.5 -94 396.5s31.167 302.333 93.5 439s146.666 255.667 252.999 357
s223.833 179.666 352.5 234.999s258.667 83 390 83c110.667 0 205 -18.167 283 -54.5s136.333 -83.833 175 -142.5s58 -120 58 -184c0 -74 -21.667 -141.667 -65 -203s-109 -92 -197 -92c-83.333 0 -145.166 24.667 -185.499 74s-60.5 105.333 -60.5 168
c0 48.667 26 96.334 78 143.001c52 44.667 78 80.334 78 107.001c0 84.667 -57.333 127 -172 127c-280.667 0 -473.334 -220 -578.001 -660l-102 -393c-24.667 -81.333 -37 -162 -37 -242c0 -131.333 32.167 -235.166 96.5 -311.499s151.166 -114.5 260.499 -114.5
c102 0 215.333 41.333 340 124s243.334 239.334 356.001 470.001z" />
    <glyph glyph-name="d" unicode="d" horiz-adv-x="2249" 
d="M1315 328l-25.0029 -0.00195312c-61.333 -86.667 -114.666 -155.167 -159.999 -205.5s-98.166 -90.833 -158.499 -121.5s-130.166 -46 -209.499 -46c-107.333 0 -202.333 21.333 -285 64s-151 98.667 -205 168s-93.667 143.333 -119 222s-38 152.667 -38 222
c0 144 40.667 307.833 122 491.5s199.833 340.834 355.5 471.501s339.167 196 550.5 196c125.333 0 223.166 -34 293.499 -102s117.166 -151.333 140.499 -250h8l283 1142h-459l12 58h828l-590 -2396c-8 -42 -12 -72 -12 -90c0 -18.667 7.33301 -35.667 22 -51
s34.667 -23 60 -23c36.667 0 76.334 21.5 119.001 64.5s99.667 123.833 171 242.5c41.333 66.667 71.333 121.334 90 164.001l58 -29c-100.667 -220.667 -198.167 -370 -292.5 -448s-193.5 -117 -297.5 -117c-95.333 0 -164.166 28.167 -206.499 84.5
s-63.5 122.5 -63.5 198.5c0 26.667 2.66699 56.667 8 90zM699.997 1204l-106.002 -290.999c-41.333 -109.333 -77 -247 -107 -413c0 -12.667 -0.666992 -31 -2 -55s-2 -41.333 -2 -52c0 -40.667 1.33301 -70.667 4 -90c17.333 -70 50.5 -129.167 99.5 -177.5
s110.167 -72.5 183.5 -72.5c120.667 0 237.334 72 350.001 216s204 319.833 274 527.5s105 394.167 105 559.5c0 106.667 -32.167 189.334 -96.5 248.001s-137.166 88 -218.499 88s-155 -28.833 -221 -86.5s-119.5 -121.834 -160.5 -192.501
s-75.167 -140.334 -102.5 -209.001z" />
    <glyph glyph-name="e" unicode="e" horiz-adv-x="1864" 
d="M508 750l-48.999 -197c-14 -48.667 -21 -103.334 -21 -164.001c0 -88 28.333 -172.833 85 -254.5s150 -122.5 280 -122.5c69.333 0 151 14.667 245 44s190.167 81.5 288.5 156.5s182.5 174.833 252.5 299.5l58 -25c-90 -121.333 -173 -219.166 -249 -293.499
s-163.5 -132.666 -262.5 -174.999s-218.167 -63.5 -357.5 -63.5c-142 0 -263 38.5 -363 115.5s-175 176 -225 297s-75 246.833 -75 377.5c0 195.333 57 373 171 533s256.167 285.333 426.5 376s334.166 136 491.499 136c105.333 0 194.5 -18 267.5 -54s128 -85.333 165 -148
s55.5 -133.334 55.5 -212.001c0 -150 -55.167 -262.667 -165.5 -338s-276.5 -136 -498.5 -182zM528.001 815l447.001 103c70 16 135 48.833 195 98.5s108.333 154.5 145 314.5l41 180c5.33301 33.333 8 55.333 8 66c0 104 -52 156 -156 156
c-116.667 0 -232.334 -50 -347.001 -150s-205 -276.667 -271 -530z" />
    <glyph glyph-name="f" unicode="f" horiz-adv-x="1159" 
d="M86 -377l397 2065h-377l13 57h377c42 298.667 134.167 529 276.5 691s312.166 243 509.499 243c150 0 262.667 -38.833 338 -116.5s113 -157.834 113 -240.5c0 -62 -16.833 -116.333 -50.5 -163s-85.167 -70 -154.5 -70c-74.667 0 -129.5 23.333 -164.5 70
s-52.5 91.667 -52.5 135c0 41.333 15 94.666 45 160c10.667 18 16 41 16 69c0 17.333 -9.16699 34 -27.5 50s-44.5 24 -78.5 24c-90 0 -159.833 -48.333 -209.5 -145s-86.5 -200 -110.5 -310l-82 -397h479l-8 -57h-483l-270 -1418c-72.667 -340 -174.5 -623 -305.5 -849
s-318.833 -339 -563.5 -339c-136 0 -246.333 36.167 -331 108.5s-127 155.166 -127 248.499c0 68 18 123.833 54 167.5s87.333 65.5 154 65.5s118.167 -19.667 154.5 -59s54.5 -87.666 54.5 -144.999c0 -42 -5.33301 -77.667 -16 -107
c-2.66699 -7.33301 -8.16699 -20 -16.5 -38s-14.5 -33 -18.5 -45s-6 -24 -6 -36c0 -52 39.667 -78 119 -78h41c53.333 7.33301 110.833 46 172.5 116s107.834 184.333 138.501 343z" />
    <glyph glyph-name="g" unicode="g" horiz-adv-x="1962" 
d="M1274 336c138 0 233.165 -33.1689 285.498 -99.502s78.5 -134.166 78.5 -203.499c0 -104 -41.333 -228.667 -124 -374s-211.5 -272.333 -386.5 -381s-391.167 -163 -648.5 -163c-230.667 0 -396.834 36.333 -498.501 109s-152.5 159.334 -152.5 260.001
c0 66 15.167 130.333 45.5 193s71.5 113.667 123.5 153s109 59 171 59c44.667 0 79.834 -15.5 105.501 -46.5s40.834 -69.833 45.501 -116.5c-125.333 -88.667 -188 -196.667 -188 -324c0 -61.333 29.333 -113.5 88 -156.5s151 -64.5 277 -64.5
c155.333 0 300.666 28.833 435.999 86.5s242.5 130.5 321.5 218.5s118.5 173.333 118.5 256c0 82 -26.833 136 -80.5 162s-136.167 39 -247.5 39l-593 -29c-153.333 0 -270.166 32 -350.499 96s-120.5 142.667 -120.5 236c0 83.333 31 175.833 93 277.5
s179.667 175.5 353 221.5c-95.333 82 -143 192.667 -143 332c0 131.333 41.333 251.833 124 361.5s188.5 195.667 317.5 258s257.5 93.5 385.5 93.5c130.667 0 246.667 -37 348 -111c48 118 111.833 199.5 191.5 244.5s145.5 67.5 197.5 67.5c60 0 113.333 -17.667 160 -53
s70 -82 70 -140c0 -59.333 -16.667 -107.666 -50 -144.999s-72.666 -56 -117.999 -56c-40.667 0 -76.167 10.667 -106.5 32s-45.5 53 -45.5 95c0 20 4 40.667 12 62c11.333 20 17 37.667 17 53c0 35.333 -15 53 -45 53c-31.333 0 -70 -23.333 -116 -70
s-82.333 -109.334 -109 -188.001c87.333 -87.333 131 -195 131 -323c0 -110 -34.667 -220.167 -104 -330.5s-165.833 -201 -289.5 -272s-261.5 -106.5 -413.5 -106.5c-132 0 -249.667 31.333 -353 94c-78 -7.33301 -148 -32 -210 -74s-93 -100.667 -93 -176
c0 -60.667 20.833 -99.667 62.5 -117s97.5 -26 167.5 -26l745 33h115zM1192 1016l82.0029 347.999c8 36.667 12 70.667 12 102c0 79.333 -22.5 138.833 -67.5 178.5s-96.167 59.5 -153.5 59.5c-62.667 0 -125.834 -24.333 -189.501 -73s-109.834 -137.667 -138.501 -267
l-69 -320c-2 -9.33301 -4.5 -22.166 -7.5 -38.499s-5.33301 -30.833 -7 -43.5s-2.5 -29 -2.5 -49c0 -150 78 -225 234 -225c151.333 0 253.666 109.333 306.999 328z" />
    <glyph glyph-name="h" unicode="h" horiz-adv-x="2163" 
d="M676 1200l11.998 -0.000976562c121.333 163.333 258.333 302.5 411 417.5s299.667 172.5 441 172.5c88 0 162.5 -26 223.5 -78s91.5 -136.667 91.5 -254c0 -91.333 -12 -177.333 -36 -258l-283 -958c-8 -26 -12 -41 -12 -45v-45c0 -49.333 27.333 -74 82 -74
c43.333 0 99.333 41 168 123c31.333 36.667 70.666 93.5 117.999 170.5s80.333 136.167 99 177.5l57 -29c-64 -124.667 -124.167 -227.667 -180.5 -309s-118.833 -144.333 -187.5 -189s-146.667 -67 -234 -67c-78.667 0 -142 24.667 -190 74s-72 116 -72 200
c0 41.333 15 123.333 45 246l250 832c6.66699 26.667 13.334 67.667 20.001 123v65c-4.66699 40.667 -20.5 75.334 -47.5 104.001s-63.167 43 -108.5 43c-95.333 0 -208.333 -57.333 -339 -172c-87.333 -77.333 -158.166 -152 -212.499 -224s-112.166 -161 -173.499 -267
l-249 -979h-369l684 2580h-459l17 58h802z" />
    <glyph glyph-name="i" unicode="i" horiz-adv-x="1040" 
d="M811 1745l-396.999 -1503c-8.66699 -36.667 -13 -66.667 -13 -90c0 -49.333 27.333 -74 82 -74c32 0 59.5 10.333 82.5 31s51.5 51.334 85.5 92.001c85.333 108.667 157.666 224.667 216.999 348l58 -29c-72 -158.667 -144.333 -280 -217 -364
s-139.167 -138.5 -199.5 -163.5s-120.833 -37.5 -181.5 -37.5c-80.667 0 -144.5 25.833 -191.5 77.5s-70.5 117.167 -70.5 196.5c0 58.667 15 140.667 45 246l319 1213h-373l13 57h741zM541.001 2458c52.667 158 148 237 286 237c104 0 156 -39.667 156 -119
c0 -84 -26.167 -164.333 -78.5 -241s-125.833 -115 -220.5 -115c-53.333 0 -93.333 11.5 -120 34.5s-40 51.167 -40 84.5c0 47.333 5.66699 87 17 119z" />
    <glyph glyph-name="j" unicode="j" horiz-adv-x="1016" 
d="M901 1745l-449.999 -1749c-44.667 -173.333 -87.834 -306.333 -129.501 -399s-103.334 -165.334 -185.001 -218.001s-194.167 -79 -337.5 -79c-113.333 0 -203.666 25 -270.999 75s-101 113.667 -101 191c0 60 17.167 108.5 51.5 145.5s78.5 55.5 132.5 55.5
c52.667 0 96.5 -15.833 131.5 -47.5s52.5 -76.167 52.5 -133.5c0 -23.333 -4 -45 -12 -65c-6.66699 -18.667 -15.167 -37.334 -25.5 -56.001s-15.5 -31.334 -15.5 -38.001c0 -33.333 19 -50 57 -50c36.667 0 73.667 15 111 45c18.667 16.667 33.167 40 43.5 70
s28.333 97.5 54 202.5s64.167 254.5 115.5 448.5l409 1545h-393l17 57h745zM631.001 2458c52.667 158 148.334 237 287.001 237c103.333 0 155 -39.667 155 -119c0 -81.333 -26.833 -161 -80.5 -239s-127.834 -117 -222.501 -117c-104 0 -156 39.667 -156 119
c0 47.333 5.66699 87 17 119z" />
    <glyph glyph-name="k" unicode="k" horiz-adv-x="2019" 
d="M1044 2638l-426.003 -1651c30.667 19.333 73 29 127 29c63.333 0 122.333 -2.66699 177 -8c78.667 0.666992 136.5 13.167 173.5 37.5s62.667 57.166 77 98.499s31.833 112 52.5 212c32.667 142.667 75.334 250.667 128.001 324s137 110 253 110
c101.333 0 176.5 -27.167 225.5 -81.5s73.5 -118.5 73.5 -192.5c0 -70 -21.667 -127.833 -65 -173.5s-97 -68.5 -161 -68.5c-66 0 -118.667 19.667 -158 59s-59 86.666 -59 141.999c0 20.667 3.5 37.834 10.5 51.501s16.167 26.667 27.5 39s19.333 22.833 24 31.5
c2.66699 16.667 4 41.334 4 74.001c0 11.333 -20.667 17 -62 17c-69.333 0 -130.666 -116.333 -183.999 -349c-27.333 -114 -53.5 -198.667 -78.5 -254s-73.833 -89.333 -146.5 -102v-16c130.667 -22.667 224.667 -62 282 -118s90.333 -130 99 -222v-127
c-2 -26 -17 -113.333 -45 -262c-1.33301 -10 -3.83301 -21.333 -7.5 -34s-5.5 -24.667 -5.5 -36c0 -60 12.333 -90 37 -90c52 0 117.833 46.667 197.5 140s149.167 201 208.5 323l57 -21c-60 -137.333 -141.667 -265.833 -245 -385.5s-223.666 -179.5 -360.999 -179.5
c-108 0 -179.333 34.833 -214 104.5s-52 165.834 -52 288.501c0 23.333 2.33301 46.333 7 69s10.667 46.667 18 72l20 72l20.5 83.5l20.5 84.5c10.667 26 16 50.667 16 74c0 44.667 -17.5 80.334 -52.5 107.001s-74.833 40 -119.5 40c-91.333 -30 -165 -45 -221 -45
c-54 0 -91 8.33301 -111 25l-241 -930h-365l684 2580h-459l17 58h802z" />
    <glyph glyph-name="l" unicode="l" horiz-adv-x="1044" 
d="M1044 2638l-633.999 -2396c-8.66699 -36.667 -13 -66.667 -13 -90c0 -49.333 27.333 -74 82 -74c32 0 59.5 10.333 82.5 31s51.5 51.334 85.5 92.001c85.333 108.667 157.666 224.667 216.999 348l58 -29c-72 -158.667 -144.333 -280 -217 -364
s-139.167 -138.5 -199.5 -163.5s-120.833 -37.5 -181.5 -37.5c-84 0 -149.5 25.333 -196.5 76s-70.5 116.667 -70.5 198c0 34.667 16.333 116.667 49 246l558 2105h-463l16 58h827z" />
    <glyph glyph-name="m" unicode="m" horiz-adv-x="3285" 
d="M733 1200l12 0.000976562c110.667 156.667 239.5 294.167 386.5 412.5s291.5 177.5 433.5 177.5c92 0 167.5 -28.667 226.5 -86s88.5 -139.333 88.5 -246c0 -48.667 -8.33301 -118.334 -25 -209.001h25c100 142.667 224.5 268.5 373.5 377.5s286.5 163.5 412.5 163.5
c85.333 0 159.333 -24.833 222 -74.5s94 -135.5 94 -257.5c0 -76 -13.667 -162 -41 -258l-283 -958c-8 -34 -12 -64 -12 -90c0 -49.333 27.333 -74 82 -74c32 0 59.5 10.333 82.5 31s51.5 51.334 85.5 92.001c96 120.667 168.333 236.667 217 348l57 -29
c-73.333 -161.333 -146 -283.333 -218 -366s-138 -136.5 -198 -161.5s-120.667 -37.5 -182 -37.5c-80.667 0 -144.5 25.833 -191.5 77.5s-70.5 117.167 -70.5 196.5c0 72 15 154 45 246l246 832c4.66699 18 11.334 59 20 123v65c-4 47.333 -20.333 83.666 -49 108.999
s-64 38 -106 38c-66.667 0 -143.334 -31.333 -230.001 -94c-104 -77.333 -186 -155.666 -246 -234.999s-132 -190.666 -216 -333.999l-250 -979h-369l348 1307c8 28.667 15 69.667 21 123v65c-4.66699 41.333 -20.667 76.166 -48 104.499s-63.333 42.5 -108 42.5
c-67.333 0 -143.666 -31.333 -228.999 -94c-104 -76.667 -186.167 -154.834 -246.5 -234.501s-132.5 -191.167 -216.5 -334.5l-250 -979h-369l447 1688h-393l16 57h745z" />
    <glyph glyph-name="n" unicode="n" horiz-adv-x="2220" 
d="M733 1200l12.001 0.000976562c144.667 192.667 291.167 339.167 439.5 439.5s285.833 150.5 412.5 150.5c81.333 0 154.333 -25 219 -75s97 -135.667 97 -257c0 -78.667 -13.667 -164.667 -41 -258l-283 -958c-8 -26 -12 -56 -12 -90c0 -18.667 7.33301 -35.667 22 -51
s34.667 -23 60 -23c35.333 0 79 26 131 78c93.333 101.333 178 232.333 254 393l61 -29c-75.333 -146 -144.333 -260 -207 -342s-125 -139.667 -187 -173s-131.333 -50 -208 -50c-81.333 0 -145.333 25.5 -192 76.5s-70 116.833 -70 197.5c0 72 15 154 45 246l246 832
c13.333 40.667 21.333 81.667 24 123v65c-4.66699 39.333 -19.834 73.666 -45.501 102.999s-62.167 44 -109.5 44c-98.667 0 -212 -57.333 -340 -172c-142.667 -126 -271 -289.667 -385 -491l-254 -979h-365l447 1688h-393l16 57h745z" />
    <glyph glyph-name="o" unicode="o" horiz-adv-x="2077" 
d="M115 770c0 136.667 33.502 267.667 100.502 393s156.5 235 268.5 329s235.667 167.167 371 219.5s268 78.5 398 78.5c133.333 0 249.333 -34.333 348 -103s174 -160.667 226 -276s78 -240.333 78 -375c0 -166.667 -49.667 -334.5 -149 -503.5
s-231.833 -307.5 -397.5 -415.5s-339.834 -162 -522.501 -162c-142.667 0 -268.834 36.5 -378.501 109.5s-194.167 172 -253.5 297s-89 261.167 -89 408.5zM631.002 1155l-144.001 -532c-16 -60 -24 -123 -24 -189c0 -136 34.333 -240.333 103 -313s158.667 -109 270 -109
c128 0 238.167 47.167 330.5 141.5s156.833 208.5 193.5 342.5l160 589c18.667 72 28 159.667 28 263c0 118.667 -28.167 212.5 -84.5 281.5s-130.5 103.5 -222.5 103.5c-108.667 0 -205.667 -31.5 -291 -94.5s-154.166 -138.667 -206.499 -227
s-89.833 -173.833 -112.5 -256.5z" />
    <glyph glyph-name="p" unicode="p" horiz-adv-x="2138" 
d="M774 1397h17c32 76.667 68.333 142.834 109 198.501s94.834 102 162.501 139s149.167 55.5 244.5 55.5c112 0 219 -34.333 321 -103s183.833 -167 245.5 -295s92.5 -276.667 92.5 -446c0 -172.667 -44.333 -335.334 -133 -488.001s-205.834 -274.667 -351.501 -366
s-298.167 -137 -457.5 -137c-143.333 0 -253.5 44.833 -330.5 134.5s-117.167 199.167 -120.5 328.5h-24l-291 -1221h-373l619 2491h-393l12 57h745zM737 1036l-65 -281.998c-22 -100.667 -33 -185.334 -33 -254.001c0 -195.333 39.833 -325.5 119.5 -390.5
s154.5 -97.5 224.5 -97.5c135.333 0 239.833 57.833 313.5 173.5s130.167 265.5 169.5 449.5l95 438c16 74 24 142.333 24 205c0 92 -15.5 172.667 -46.5 242s-72 122.166 -123 158.499s-105.167 54.5 -162.5 54.5c-100 0 -184.5 -36.167 -253.5 -108.5
s-122.5 -157.5 -160.5 -255.5s-72 -209 -102 -333z" />
    <glyph glyph-name="q" unicode="q" horiz-adv-x="2068" 
d="M1982 1745l-667.002 -2605h-377l291 1098l-17 12c-135.333 -196.667 -289.333 -295 -462 -295c-127.333 0 -239.5 36.5 -336.5 109.5s-171 166.5 -222 280.5s-76.5 229.667 -76.5 347c0 190 50.833 369.833 152.5 539.5s231.167 305.167 388.5 406.5s314 152 470 152
c102.667 0 192.334 -27.333 269.001 -82s126.334 -134 149.001 -238l123 275h315zM695.998 1192l-117.999 -389.002c-29.333 -95.333 -48.333 -161.666 -57 -198.999s-13 -92.666 -13 -165.999c0 -102 16.833 -181.833 50.5 -239.5s71.667 -96.334 114 -116.001
s80.166 -29.5 113.499 -29.5c239.333 0 428 248.667 566 746l78 278c32.667 126.667 49 222.334 49 287.001c0 85.333 -25.833 161.333 -77.5 228s-132.5 100 -242.5 100c-206 0 -360.333 -166.667 -463 -500z" />
    <glyph glyph-name="r" unicode="r" horiz-adv-x="1458" 
d="M815 1745l-64.9961 -262.001l16 -8c47.333 92.667 116.666 168.334 207.999 227.001s185.666 88 282.999 88c104.667 0 183.5 -31.333 236.5 -94s79.5 -131 79.5 -205c0 -68 -21.833 -124.667 -65.5 -170s-98.5 -68 -164.5 -68c-58.667 0 -106 17.5 -142 52.5
s-54 77.833 -54 128.5c0 48 16.333 90.333 49 127c24.667 32.667 37 55.667 37 69c0 30 -20.667 45 -62 45c-4.66699 0 -19.667 -4 -45 -12c-100.667 -34.667 -188.334 -109 -263.001 -223s-130.334 -243 -167.001 -387l-270 -1053h-369l447 1688h-389l12 57h688z" />
    <glyph glyph-name="s" unicode="s" horiz-adv-x="1659" 
d="M868 627l-371.997 261.999c-112 79.333 -168 198 -168 356c0 65.333 28.667 141.333 86 228s143 161.167 257 223.5s249.333 93.5 406 93.5c138 0 250.333 -32.167 337 -96.5s130 -159.166 130 -284.499c0 -71.333 -22.333 -123.333 -67 -156s-89.334 -49 -134.001 -49
c-61.333 0 -111.333 16.333 -150 49s-58 73.667 -58 123c0 29.333 12 60.666 36 93.999l34.5 41c12.333 14.667 22.666 29.834 30.999 45.501s12.5 32.167 12.5 49.5c0 78.667 -72.333 118 -217 118c-120 0 -206.167 -31.833 -258.5 -95.5s-83.5 -128.5 -93.5 -194.5v-95
c12 -77.333 55.667 -142.666 131 -195.999l397 -279c117.333 -81.333 176 -208.333 176 -381c0 -92 -33.833 -178.5 -101.5 -259.5s-163.334 -146 -287.001 -195s-264.5 -73.5 -422.5 -73.5c-204.667 0 -351.334 36.333 -440.001 109s-133 166 -133 280
c0 70 21 125.667 63 167s93.333 62 154 62c56.667 0 104.334 -16 143.001 -48s58 -76 58 -132c0 -34.667 -19.333 -83.667 -58 -147l-21 -36.5c-7.33301 -12.333 -11 -24.833 -11 -37.5c0 -52.667 25.5 -91.834 76.5 -117.501s112.833 -38.5 185.5 -38.5
c114 0 213.5 40.333 298.5 121s127.5 162 127.5 244c0 92.667 -49.333 174.667 -148 246z" />
    <glyph glyph-name="t" unicode="t" horiz-adv-x="1110" 
d="M115 1688l12 57h373l164 606h364l-160 -606h414l-12 -57h-418l-381 -1446c-8 -34 -12 -64 -12 -90c0 -49.333 27.333 -74 82 -74c72 0 170.333 102.333 295 307l39.5 67c21.667 36.667 38.5 69 50.5 97l57 -29c-72 -158.667 -144.333 -280 -217 -364
s-139.167 -138.5 -199.5 -163.5s-120.833 -37.5 -181.5 -37.5c-80.667 0 -144.5 25.833 -191.5 77.5s-70.5 117.167 -70.5 196.5c0 58.667 15 140.667 45 246l319 1213h-372z" />
    <glyph glyph-name="u" unicode="u" horiz-adv-x="2191" 
d="M1962 1745l-397 -1503c-8.66699 -36.667 -13 -66.667 -13 -90c0 -49.333 27.333 -74 82 -74c73.333 0 171.666 102.333 294.999 307c50 86.667 80 141.334 90 164.001l58 -29c-72 -158.667 -144.333 -280 -217 -364s-139.167 -138.5 -199.5 -163.5
s-120.833 -37.5 -181.5 -37.5c-80.667 0 -144.5 25.833 -191.5 77.5s-70.5 117.167 -70.5 196.5c0 33.333 15 115.333 45 246l16 70h-12c-102 -159.333 -233 -297.5 -393 -414.5s-306.333 -175.5 -439 -175.5c-92.667 0 -163 19.5 -211 58.5s-78.667 85.333 -92 139
s-20 113.5 -20 179.5c0 58 12 129 36 213l304 1143h-394l17 57h741l-336 -1307c-13.333 -57.333 -20 -121.333 -20 -192c0 -29.333 11.167 -60.666 33.5 -93.999s61.5 -50 117.5 -50c72.667 0 154.834 32.667 246.501 98s180.5 149.5 266.5 252.5s156.667 207.5 212 313.5
l258 979h369z" />
    <glyph glyph-name="v" unicode="v" horiz-adv-x="1892" 
d="M70 1745l748.999 0.000976562l-250 -1090c-43.333 -192.667 -65 -315.334 -65 -368.001c0 -74 20.167 -129.333 60.5 -166s87.166 -55 140.499 -55c124.667 0 261.667 61.167 411 183.5s275.166 273 377.499 452s153.5 347.833 153.5 506.5c0 148 -34.333 222 -103 222
c-25.333 0 -46.5 -2.83301 -63.5 -8.5s-43.5 -8.5 -79.5 -8.5c-34 0 -64.333 15.667 -91 47s-40 77 -40 137c0 67.333 23.833 116.333 71.5 147s98.834 46 153.501 46c77.333 0 148.5 -39.333 213.5 -118s97.5 -191 97.5 -337c0 -144 -35.667 -297.167 -107 -459.5
s-167.666 -314 -288.999 -455s-254.666 -253.833 -399.999 -338.5s-288 -127 -428 -127c-150.667 0 -263.5 40.5 -338.5 121.5s-112.5 171.5 -112.5 271.5c0 41.333 12.333 108.333 37 201l274 1139h-385z" />
    <glyph glyph-name="w" unicode="w" horiz-adv-x="2888" 
d="M1855 1745l-245.001 -1090c-46.667 -200.667 -70 -323.334 -70 -368.001c0 -54.667 16.833 -105.167 50.5 -151.5s83.834 -69.5 150.501 -69.5c89.333 0 187 34.833 293 104.5s207 162.5 303 278.5s174.167 241.333 234.5 376s90.5 262.334 90.5 383.001
c0 148 -46.333 222 -139 222c-12.667 0 -34.5 -2.83301 -65.5 -8.5s-56.833 -8.5 -77.5 -8.5c-36 0 -67.5 17.167 -94.5 51.5s-40.5 78.5 -40.5 132.5c0 60.667 23.667 108 71 142s100 51 158 51c86.667 0 163 -41 229 -123s99 -192.667 99 -332
c0 -143.333 -35.167 -296.333 -105.5 -459s-164.5 -314.167 -282.5 -454.5s-247.333 -253.166 -388 -338.499s-276.667 -128 -408 -128c-140 0 -249.5 37.833 -328.5 113.5s-118.5 167.5 -118.5 275.5c0 11.333 3 38.666 9 81.999c-92 -116.667 -203 -224.334 -333 -323.001
s-265 -148 -405 -148c-220.667 0 -331 125.667 -331 377c0 38.667 13.667 109.667 41 213l299 1143h-394l17 57h745l-336 -1307c-13.333 -57.333 -20 -121.333 -20 -192c0 -31.333 11.333 -63.166 34 -95.499s63 -48.5 121 -48.5c85.333 0 184.5 45.833 297.5 137.5
s210.5 194.834 292.5 309.501l271 1139h-385l12 57h749z" />
    <glyph glyph-name="x" unicode="x" horiz-adv-x="2376" 
d="M1331 1053l106.999 -693c14.667 -95.333 33 -169 55 -221s70.333 -78 145 -78c88 0 167.833 38.5 239.5 115.5s169.5 198.5 293.5 364.5l41 -33c-115.333 -177.333 -230.833 -313.833 -346.5 -409.5s-244.5 -143.5 -386.5 -143.5c-243.333 0 -384 135 -422 405l-49 336
l-105 -150l-105.5 -145l-88.5 -118c-64.667 -86 -111.167 -146.167 -139.5 -180.5s-68.166 -67.5 -119.499 -99.5s-110 -48 -176 -48c-98.667 0 -178.5 35.667 -239.5 107s-91.5 151.666 -91.5 240.999c0 71.333 26.167 133.5 78.5 186.5s114.833 79.5 187.5 79.5
c55.333 0 106 -18.667 152 -56s69 -85.333 69 -144c0 -38 -4.33301 -69.667 -13 -95s-20 -46.666 -34 -63.999s-28.167 -31.666 -42.5 -42.999l-45.5 -36c-14 -10.667 -21 -34 -21 -70c0 -21.333 23.333 -32 70 -32c31.333 0 64.833 14 100.5 42s77.667 71.333 126 130
s90.166 112.834 125.499 162.501l295 410.5l-90 586c-17.333 115.333 -34.166 197.333 -50.499 246s-52.833 73 -109.5 73c-77.333 0 -166 -61.333 -266 -184l-119 -131l-41 33c118.667 145.333 219.834 247.166 303.501 305.499s175.167 87.5 274.5 87.5
c106.667 0 194 -28.167 262 -84.5s109 -138.833 123 -247.5l41 -328c144 252 269.667 425 377 519s202.666 141 285.999 141c90 0 168.5 -27.833 235.5 -83.5s100.5 -119.167 100.5 -190.5c0 -76 -20.833 -138.833 -62.5 -188.5s-93.167 -74.5 -154.5 -74.5
c-64.667 0 -121 20.5 -169 61.5s-72 91.5 -72 151.5c0 36.667 11.333 74 34 112s46.667 62.333 72 73c16.667 5.33301 25 14.666 25 27.999c0 30 -13.667 45 -41 45c-158.667 0 -365 -223.667 -619 -671z" />
    <glyph glyph-name="y" unicode="y" horiz-adv-x="2068" 
d="M1954 1745l-401.999 -1503c-80 -296.667 -189.333 -532 -328 -706s-280.5 -293.167 -425.5 -357.5s-280.167 -96.5 -405.5 -96.5c-170 0 -301.167 41.167 -393.5 123.5s-138.5 175.166 -138.5 278.499c0 66.667 24.5 125.667 73.5 177s113.167 77 192.5 77
c77.333 0 137.666 -26 180.999 -78s65 -112 65 -180c0 -62.667 -24.667 -114.667 -74 -156c-6.66699 -6.66699 -21.334 -16.167 -44.001 -28.5s-39.5 -23.333 -50.5 -33s-16.5 -21.834 -16.5 -36.501c0 -57.333 68.333 -86 205 -86c164.667 0 298.667 60.5 402 181.5
s192 303.5 266 547.5l205 676h-4c-114 -164.667 -247.333 -304.167 -400 -418.5s-296.667 -171.5 -432 -171.5c-218.667 0 -328 125.667 -328 377c0 40 12.333 111 37 213l303 1143h-393l12 57h746l-336 -1307c-10.667 -47.333 -16 -111.333 -16 -192
c0 -96 50.333 -144 151 -144c72.667 0 154.834 32.667 246.501 98s180.5 149.5 266.5 252.5s156.667 207.5 212 313.5l258 979h365z" />
    <glyph glyph-name="z" unicode="z" horiz-adv-x="1524" 
d="M20 102l0.00292969 -41.002c0 -73.333 -23 -110 -69 -110c-44 0 -66 21.667 -66 65c0 56.667 49.333 137.334 148 242.001l889 975l93.5 94.5c29.667 30.333 63.834 68.5 102.501 114.5l-12 12c-117.333 -24.667 -203.333 -37 -258 -37c-35.333 0 -92 3.5 -170 10.5
s-134.667 10.5 -170 10.5c-85.333 0 -145.833 -12.5 -181.5 -37.5s-70.834 -80.833 -105.501 -167.5h-78l217 590c426 -104.667 743 -159.334 951 -164.001l20.5 62c7.66699 22.667 15 41.5 22 56.5s16.167 29.333 27.5 43s24.666 22.5 39.999 26.5h29
c30 -7.33301 45 -27.666 45 -60.999c0 -36 -38 -102.667 -114 -200s-146 -179.666 -210 -246.999l-925 -974l16 -29c80 19.333 148.333 29 205 29c97.333 0 184.666 -19.333 261.999 -58l96.5 -48.5c22.333 -11 49.666 -20.667 81.999 -29s71.166 -12.5 116.499 -12.5
c102.667 0 194 54.667 274 164l54 -45c-98.667 -146.667 -187.667 -251 -267 -313s-174.666 -93 -285.999 -93c-101.333 0 -232.333 31.667 -393 95c-142 51.333 -255.333 77 -340 77h-46z" />
    <glyph glyph-name="braceleft" unicode="{" horiz-adv-x="1446" 
d="M1208 2982l21.0039 -139c-78.667 -14.667 -151 -51.334 -217 -110c-66 -58.667 -99 -151.667 -99 -279c0 -48 2.66699 -112.167 8 -192.5s9.66602 -151.5 12.999 -213.5v-221c-8 -126 -30 -236 -66 -330s-88.833 -175.5 -158.5 -244.5s-160.167 -131.5 -271.5 -187.5
c112 -52 203.667 -114 275 -186s124.166 -154.667 158.499 -248s55.166 -201.333 62.499 -324v-221c-4 -69.333 -9.33301 -137.666 -16 -204.999c-3.33301 -43.333 -5 -110 -5 -200c0 -103.333 29.667 -190.833 89 -262.5s135 -114.167 227 -127.5l-21 -139
c-406.667 43.333 -610 316.333 -610 819c0 33.333 2 83 6 149s6 116 6 150c0 165.333 -16.833 300.166 -50.5 404.499s-79 180.833 -136 229.5s-121.833 75 -194.5 79v168c105.333 10 195.166 67.667 269.499 173s111.5 285.333 111.5 540c0 32 -2 83 -6 153
s-6 118.667 -6 146c0 502.667 203.333 775.667 610 819z" />
    <glyph glyph-name="bar" unicode="|" 
d="M946 -803v4313h287v-4313h-287z" />
    <glyph glyph-name="braceright" unicode="}" horiz-adv-x="1446" 
d="M238 -848l-21 139.002c90 14 165 55.167 225 123.5s90 157.166 90 266.499c0 38.667 -1.5 86.667 -4.5 144s-5.5 101.333 -7.5 132l-8 129v221c7.33301 126 28 234.833 62 326.5s86.833 173.5 158.5 245.5s163.5 134 275.5 186c-111.333 56 -201.833 118.5 -271.5 187.5
s-122.5 150.5 -158.5 244.5s-58 204 -66 330v221c1.33301 26.667 4 63.667 8 111l8 94c2.66699 43.333 4 110.333 4 201c0 214 -105 343.667 -315 389l21 139c256.667 -28.667 422.5 -121.167 497.5 -277.5s112.5 -336.833 112.5 -541.5c0 -36.667 -1.33301 -85.667 -4 -147
s-4 -112 -4 -152c0 -454.667 125.667 -692.334 377 -713.001v-168c-251.333 -17.333 -377 -255 -377 -713c0 -36 1.33301 -85 4 -147s4 -112.667 4 -152c0 -204.667 -37.667 -385.167 -113 -541.5s-241 -248.833 -497 -277.5z" />
    <glyph glyph-name="asciitilde" unicode="~" horiz-adv-x="2122" 
d="M1839 1503h111.001c-132.667 -286.667 -281.667 -430 -447 -430c-86.667 0 -246.334 24.667 -479.001 74c-214.667 46.667 -355.334 70 -422.001 70c-118 0 -204 -49.333 -258 -148h-115c54.667 126 130.334 232 227.001 318s204 129 322 129
c119.333 0 284.666 -27.333 495.999 -82c178.667 -52 312.334 -78 401.001 -78c30 0 55.5 11.5 76.5 34.5s50.167 60.5 87.5 112.5z" />
    <glyph glyph-name="afii10062" unicode="&#xa1;" horiz-adv-x="2499" 
d="M1511 872l712.999 1135c50 80 85.667 149.333 107 208s32 127.334 32 206c0 66.667 -23 118.834 -69 156.5c-46 37.667 -106 56.5 -180 56.5h-50l17 73h934l-13 -73c-133.333 0 -257.333 -61.667 -372 -185c-48.667 -48.667 -90.667 -97.667 -126 -147
s-97.333 -143.666 -186 -282.999l-1040 -1663c-161.333 -259.333 -364.666 -389 -609.999 -389c-148.667 0 -261.667 41.5 -339 124.5s-116 182.167 -116 297.5c0 85.333 30.833 155.166 92.5 209.499s142.834 81.5 243.501 81.5c96 0 163.667 -28 203 -84
s59 -122.333 59 -199c0 -90 -45 -159.667 -135 -209c-50.667 -28 -79.334 -51 -86.001 -69v-41c13.333 -27.333 50 -41 110 -41c102.667 0 193.5 31.833 272.5 95.5s156.167 150.5 231.5 260.5l-745 2241h-287l16 73h1033l-13 -73h-295zM2454 3420l68.999 -16
c-54.667 -92 -127.334 -180.333 -218 -265c-90.667 -84.667 -187.667 -153.167 -291 -205.5s-200 -78.5 -290 -78.5c-105.333 0 -195.166 30.5 -269.499 91.5s-111.5 141.167 -111.5 240.5c0 70.667 23 130.667 69 180s105 74 177 74c81.333 0 143.333 -24 186 -72
s64 -102 64 -162c0 -57.333 -20.333 -106.333 -61 -147c-17.333 -17.333 -27 -29.666 -29 -37v-41c6.66699 -24.667 27 -37 61 -37c61.333 0 131.833 23.833 211.5 71.5s158.5 108.667 236.5 183s143.333 147.833 196 220.5z" />
    <glyph glyph-name="afii10110" unicode="&#xa2;" horiz-adv-x="2073" 
d="M1929 1745l-400.999 -1503c-80 -298 -189.167 -533.667 -327.5 -707s-279.833 -292.166 -424.5 -356.499s-280.334 -96.5 -407.001 -96.5c-172.667 0 -304.667 41 -396 123s-137 175 -137 279c0 66.667 24.833 125.667 74.5 177s113.5 77 191.5 77
c77.333 0 137.666 -26 180.999 -78s65 -112 65 -180c0 -31.333 -9.66699 -65.666 -29 -102.999c-20.667 -33.333 -54.667 -63.333 -102 -90c-35.333 -14 -53 -34.333 -53 -61c0 -57.333 68.333 -86 205 -86c112.667 0 210.334 28.333 293.001 85s153.667 138.5 213 245.5
s113 239.833 161 398.5l205 676h-4c-114 -164.667 -247 -304.167 -399 -418.5s-296 -171.5 -432 -171.5c-218.667 0 -328 125.667 -328 377c0 46 12.333 117 37 213l303 1143h-393l12 57h745l-336 -1307c-10.667 -47.333 -16 -111.333 -16 -192c0 -96 50.667 -144 152 -144
c72 0 154 32.667 246 98s181 149.5 267 252.5s156.667 207.5 212 313.5l258 979h364zM1942 2605l39.998 -49c-62.667 -70.667 -137.667 -144.334 -225 -221c-87.333 -76.667 -183.166 -143 -287.499 -199s-205.166 -84 -302.499 -84c-102.667 0 -189.667 30.167 -261 90.5
s-107 138.166 -107 233.5c0 78 25.5 139.167 76.5 183.5s112.833 66.5 185.5 66.5c74 0 131.333 -22.667 172 -68s61 -98 61 -158c0 -44 -8 -79.333 -24 -106c-21.333 -35.333 -50 -57.333 -86 -66c-44 -14 -66 -31.667 -66 -53c0 -38 26 -57 78 -57
c84.667 0 197.667 44.833 339 134.5s277 207.167 407 352.5z" />
    <glyph glyph-name="afii10057" unicode="&#xa3;" horiz-adv-x="1663" 
d="M811 2707l1024 0.000976562l-20 -73h-222l-512 -1954c-126.667 -475.333 -380.667 -713 -762 -713c-162.667 0 -285.167 40.167 -367.5 120.5s-123.5 179.5 -123.5 297.5c0 96 29 170.5 87 223.5s128.667 79.5 212 79.5c74.667 0 133.667 -25.5 177 -76.5
s65 -111.5 65 -181.5c0 -77.333 -33 -137.333 -99 -180c-24 -17.333 -53.833 -31 -89.5 -41s-56.167 -19.667 -61.5 -29v-57c22.667 -57.333 65 -86 127 -86c86 0 154 37.667 204 113s84.333 149.666 103 222.999l594 2261h-356z" />
    <glyph glyph-name="currency" unicode="&#xa4;" horiz-adv-x="3170" 
d="M2720 2712l164 -164l-414 -410c89.333 -106.667 155.333 -222 198 -346s64 -250.333 64 -379s-21.167 -254.5 -63.5 -377.5s-108.5 -238.833 -198.5 -347.5l414 -409l-164 -164l-410 413c-210 -174.667 -451.667 -262 -725 -262s-515 87.333 -725 262l-409 -413l-164 164
l413 409c-174.667 210 -262 451.667 -262 725s87.333 515 262 725l-413 410l164 164l409 -414c108.667 90 224.5 156.167 347.5 198.5s248.833 63.5 377.5 63.5s255 -21.333 379 -64s239.333 -108.667 346 -198zM668 1413c0 -170.667 41.5 -328.334 124.5 -473.001
s194.833 -259 335.5 -343s293 -126 457 -126s316.333 42 457 126s252.667 198.333 336 343s125 302.334 125 473.001s-41.667 328.334 -125 473.001s-195.333 259 -336 343s-293 126 -457 126s-316.333 -42 -457 -126s-252.5 -198.333 -335.5 -343
s-124.5 -302.334 -124.5 -473.001z" />
    <glyph glyph-name="afii10050" unicode="&#xa5;" horiz-adv-x="2294" 
d="M922 2634h-381l20 73h1430c86 0 162.167 9.33301 228.5 28s128.833 57.667 187.5 117s111 145 157 257h74l-279 -1155h-73c2.66699 27.333 4 68.333 4 123c0 371.333 -140.667 557 -422 557h-500l-639 -2560h381l-20 -74h-1205l21 74h377z" />
    <glyph glyph-name="brokenbar" unicode="&#xa6;" horiz-adv-x="1491" 
d="M643 1602c0 60.667 21 112.667 63 156s94.667 65 158 65c64.667 0 118.5 -21.5 161.5 -64.5s64.5 -95.167 64.5 -156.5c0 -63.333 -21.5 -116.833 -64.5 -160.5s-96.833 -65.5 -161.5 -65.5c-62 0 -114.333 21.667 -157 65s-64 97 -64 161zM287 188
c0 64.667 21.501 118.5 64.501 161.5s96.5 64.5 160.5 64.5c62 0 114.333 -21.333 157 -64s64 -96.667 64 -162c0 -64 -21.5 -116.833 -64.5 -158.5s-95.167 -62.5 -156.5 -62.5c-64.667 0 -118.334 21.667 -161.001 65s-64 95.333 -64 156z" />
    <glyph glyph-name="section" unicode="&#xa7;" horiz-adv-x="2257" 
d="M1130 8l-498.998 552.999c-52.667 60.667 -97.334 132.834 -134.001 216.501s-55 168.5 -55 254.5c0 278 142 532 426 762c-38 87.333 -57 176 -57 266c0 126 35.833 241.167 107.5 345.5s164.667 186.166 279 245.5c114.333 59.333 229.833 89 346.5 89
c107.333 0 203.166 -25 287.499 -75s149.666 -115.333 195.999 -196s69.5 -163.667 69.5 -249c0 -67.333 -20 -121.666 -60 -163c-40 -41.333 -87 -62 -141 -62c-58.667 0 -109.5 18.333 -152.5 55s-64.5 86.667 -64.5 150c0 72.667 37 134 111 184
c49.333 40.667 74 73.334 74 98c0 25.333 -12 52.5 -36 81.5s-60.667 53.333 -110 73s-107.333 29.5 -174 29.5c-126 0 -233.167 -32.667 -321.5 -98s-132.5 -151.333 -132.5 -258c0 -86 18.333 -170.833 55 -254.5s75.667 -147.5 117 -191.5l462 -521
c126 -133.333 189 -273.666 189 -420.999c0 -76.667 -6.66699 -150.167 -20 -220.5s-49.333 -157.833 -108 -262.5s-150 -222.334 -274 -353.001c49.333 -82 74 -183 74 -303c0 -145.333 -38.5 -273 -115.5 -383s-178.167 -194.5 -303.5 -253.5s-256 -88.5 -392 -88.5
c-127.333 0 -237.5 31.333 -330.5 94s-163.5 141.667 -211.5 237s-72 188.333 -72 279c0 81.333 23.167 146.833 69.5 196.5s103.5 74.5 171.5 74.5c70 0 123.667 -21.5 161 -64.5s56 -92.5 56 -148.5c0 -47.333 -13.333 -85.333 -40 -114s-63.667 -59 -111 -91
c-31.333 -22 -54.166 -41 -68.499 -57s-21.5 -43.333 -21.5 -82c0 -61.333 37.833 -117.666 113.5 -168.999s170.167 -77 283.5 -77c156 0 282.333 36.667 379 110s145 178.666 145 315.999c0 173.333 -56 322 -168 446zM840.002 896.999l626.001 -740.999
c85.333 66 149 143.667 191 233s63 172.666 63 249.999c0 42 -16.5 94.5 -49.5 157.5s-77.833 125.167 -134.5 186.5l-553 614l-94 119c-90.667 -79.333 -150.834 -152 -180.501 -218s-44.5 -142 -44.5 -228c0 -108 58.667 -232.333 176 -373z" />
    <glyph glyph-name="afii10023" unicode="&#xa8;" horiz-adv-x="2601" 
d="M1876 3023c0 67.333 24 110 72 128s111.333 27 190 27c76 0 139.333 -9.16699 190 -27.5s76 -60.833 76 -127.5c0 -68 -25.333 -111 -76 -129s-114 -27 -190 -27c-78.667 0 -142 8.83301 -190 26.5s-72 60.834 -72 129.5zM946 3023c0 67.333 24 110 72 128
s111.333 27 190 27s142.834 -9 192.501 -27s74.5 -60.667 74.5 -128c0 -68.667 -24.833 -111.834 -74.5 -129.5c-49.667 -17.667 -113.834 -26.5 -192.501 -26.5s-142 8.83301 -190 26.5s-72 60.834 -72 129.5zM2179 848l78.002 -0.00195312l-213 -848h-2159l21 74h377
l639 2560h-377l16 73h1983l-185 -741l-78 4c6 27.333 9 68.333 9 123c0 98 -18.833 188.333 -56.5 271s-93.834 148.334 -168.501 197.001s-163.667 73 -267 73h-426l-282 -1114h344c152 0 275.333 42.833 370 128.5s161 192.834 199 321.501l65 -4l-253 -1024h-70v172
c0 136.667 -44.833 225.5 -134.5 266.5s-166.5 61.5 -230.5 61.5h-307l-340 -1368h430c165.333 0 311.666 31.167 438.999 93.5s237.333 151 330 266s175 253.167 247 414.5z" />
    <glyph glyph-name="copyright" unicode="&#xa9;" horiz-adv-x="3121" 
d="M172 1339c0 173.333 32.665 342.998 97.998 508.998s159.5 315.667 282.5 449s270.667 238.5 443 315.5s360.833 115.5 565.5 115.5c251.333 0 483.5 -62.5 696.5 -187.5s381.5 -294.167 505.5 -507.5s186 -444.666 186 -693.999c0 -246.667 -61.667 -476.5 -185 -689.5
s-291.666 -382 -504.999 -507s-446 -187.5 -698 -187.5c-190.667 0 -371.167 36.167 -541.5 108.5s-319.166 173 -446.499 302s-226 277.333 -296 445s-105 343.834 -105 528.501zM286.998 1339c0 -228 56.333 -439.168 169 -633.501s267 -348.833 463 -463.5
s410 -172 642 -172c230.667 0 443.667 57 639 171s349.833 268.333 463.5 463s170.5 406.334 170.5 635.001c0 175.333 -33.333 341 -100 497s-159.334 292.333 -278 409c-118.667 116.667 -255.5 207.167 -410.5 271.5s-316.5 96.5 -484.5 96.5
c-226 0 -437 -56.5 -633 -169.5s-351.833 -267 -467.5 -462s-173.5 -409.167 -173.5 -642.5zM2064 1663l-68.9951 -0.00292969c-48 308.667 -197 463 -447 463c-150.667 0 -253.167 -67.167 -307.5 -201.5s-86.833 -269.166 -97.5 -404.499v-197
c5.33301 -283.333 51.166 -483.166 137.499 -599.499s186.5 -174.5 300.5 -174.5c111.333 0 214.166 49 308.499 147s156.833 221 187.5 369h69l-20 -561h-70c0 20.667 -4.33301 38.834 -13 54.501s-19.334 23.5 -32.001 23.5c-28.667 0 -57.334 -10.833 -86.001 -32.5
s-65.167 -39.5 -109.5 -53.5s-123.833 -21 -238.5 -21c-182.667 0 -334.167 40.833 -454.5 122.5s-207.833 185.667 -262.5 312s-82 257.5 -82 393.5c0 149.333 28.833 293 86.5 431s144.667 250.833 261 338.5s257.166 131.5 422.499 131.5c92 0 159.333 -3.66699 202 -11
s78.5 -16.333 107.5 -27s54.167 -16 75.5 -16c20 0 35 18 45 54h62z" />
    <glyph glyph-name="afii10053" unicode="&#xaa;" horiz-adv-x="2482" 
d="M782 1430l1061 -0.00195312l-20 -74h-1041l-73 -414c-16.667 -96 -25 -184.667 -25 -266c0 -208 51.333 -365.833 154 -473.5s241 -161.5 415 -161.5c172 0 317.667 33.833 437 101.5s188 141.834 206 222.501v53c-8 26.667 -31 49.667 -69 69
c-76.667 43.333 -115 110.333 -115 201c0 70 23.667 126.5 71 169.5s100.333 64.5 159 64.5c61.333 0 115.5 -23 162.5 -69s70.5 -105 70.5 -177c0 -97.333 -36.5 -201.5 -109.5 -312.5s-181.333 -204.833 -325 -281.5s-315.5 -115 -515.5 -115
c-194 0 -365.833 34.167 -515.5 102.5s-267.167 171.333 -352.5 309s-128 305.167 -128 502.5c0 218 34.5 437.833 103.5 659.5s166.667 423.334 293 605.001s275.833 326.167 448.5 433.5s358 161 556 161c94 0 169.5 -10 226.5 -30s113.5 -45.833 169.5 -77.5
s97.333 -47.5 124 -47.5c34.667 0 70.5 12.167 107.5 36.5s66.833 54.5 89.5 90.5h78l-139 -783h-82c-2.66699 163.333 -32 300.5 -88 411.5s-126.5 193 -211.5 246s-172.5 79.5 -262.5 79.5c-160.667 0 -296 -51 -406 -153s-193.667 -218.333 -251 -349
s-97.666 -250 -120.999 -358z" />
    <glyph glyph-name="guillemotleft" unicode="&#xab;" horiz-adv-x="1794" 
d="M1102 33l-40.999 -33c-202 340 -460 626.667 -774 860c440 235.333 840 519.333 1200 852l24 -29c-124 -154 -249.5 -299.167 -376.5 -435.5s-258.167 -266.833 -393.5 -391.5c149.333 -250 269.666 -524.333 360.999 -823zM1503 410l-49.001 -17.001
c-116.667 182.667 -265.334 338.334 -446.001 467.001c242.667 124 469.334 278.333 680.001 463l36 -16c-115.333 -165.333 -247.666 -314.333 -396.999 -447c86 -146 144.667 -296 176 -450z" />
    <glyph glyph-name="logicalnot" unicode="&#xac;" horiz-adv-x="3035" 
d="M2863 1147v-746h-147v615h-2544v131h2691z" />
    <glyph glyph-name="registered" unicode="&#xae;" horiz-adv-x="3150" 
d="M1348 623l175.996 0.00195312v-45h-684v45h180v1425h-180v45h663c178 0 333.833 -20.167 467.5 -60.5s200.5 -132.166 200.5 -275.499c0 -202.667 -158.333 -325.334 -475 -368.001v-13c189.333 -43.333 312 -110 368 -200c20.667 -34.667 38.5 -113.834 53.5 -237.501
s26 -205.167 33 -244.5s24.833 -59 53.5 -59c27.333 0 68.333 27.333 123 82l36 -41c-50.667 -54 -94.334 -88 -131 -102c-36.667 -14 -83 -21 -139 -21c-109.333 0 -185.166 22.667 -227.499 68s-70.166 138.666 -83.499 279.999c-13.333 143.333 -30.166 247 -50.499 311
s-46.666 104 -78.999 120s-83.5 24 -153.5 24h-151v-733zM1348 1401h127c100.667 0 181.667 22.333 243 67s92 141 92 289c0 112 -24.5 188.5 -73.5 229.5s-130.833 61.5 -245.5 61.5h-143v-647zM183.996 1343c0 252.667 63.332 485.999 189.999 699.999s297 383 511 507
s443.333 186 688 186c246.667 0 477.334 -62 692.001 -186s385.167 -292.667 511.5 -506s189.5 -447 189.5 -701c0 -248 -62 -478.667 -186 -692s-293 -382.666 -507 -507.999s-447.333 -188 -700 -188c-251.333 0 -483.5 62.333 -696.5 187s-381.667 293.5 -506 506.5
s-186.5 444.5 -186.5 694.5zM298.995 1343c0 -244.667 61.334 -464.502 184.001 -659.502s282.167 -346 478.5 -453s400.166 -160.5 611.499 -160.5c229.333 0 441.833 56.667 637.5 170s350.667 267.833 465 463.5s171.5 408.834 171.5 639.501
c0 232 -57.333 445.833 -172 641.5s-270 350 -466 463s-408 169.5 -636 169.5c-168 0 -329 -32 -483 -96s-290.833 -154.833 -410.5 -272.5s-213 -254.167 -280 -409.5s-100.5 -320.666 -100.5 -495.999z" />
    <glyph glyph-name="afii10056" unicode="&#xaf;" horiz-adv-x="1589" 
d="M1430 3023c0 67.333 24.667 110 74 128s113.333 27 192 27c76.667 0 139.5 -9 188.5 -27s73.5 -60.667 73.5 -128c0 -68 -24.5 -111 -73.5 -129s-111.833 -27 -188.5 -27c-78.667 0 -142.667 9 -192 27s-74 61 -74 129zM500 3023c0 67.333 24.833 110 74.5 128
s113.5 27 191.5 27c79.333 0 142.833 -9 190.5 -27s71.5 -60.667 71.5 -128c0 -68.667 -23.833 -111.834 -71.5 -129.5c-47.667 -17.667 -111.167 -26.5 -190.5 -26.5c-78 0 -141.833 8.83301 -191.5 26.5s-74.5 60.834 -74.5 129.5zM918 2634h-377l16 73h1208l-20 -73h-381
l-635 -2560h377l-16 -74h-1205l17 74h381z" />
    <glyph glyph-name="degree" unicode="&#xb0;" horiz-adv-x="1434" 
d="M631 2367c0 66.667 16.334 128.834 49.001 186.5c32.667 57.667 77.667 103.167 135 136.5s120.333 50 189 50c101.333 0 188.666 -35.833 261.999 -107.5s110 -160.167 110 -265.5c0 -102.667 -36 -190.334 -108 -263c-72 -72.667 -160 -109 -264 -109
c-105.333 0 -193.833 36.667 -265.5 110s-107.5 160.666 -107.5 262zM733.001 2367c0 -72 26.501 -135 79.501 -189s116.833 -81 191.5 -81c73.333 0 136.666 26.333 189.999 79s80 116.334 80 191c0 76 -26.5 140.167 -79.5 192.5s-116.5 78.5 -190.5 78.5
c-75.333 0 -139.333 -26.667 -192 -80s-79 -117 -79 -191z" />
    <glyph glyph-name="plusminus" unicode="&#xb1;" horiz-adv-x="2753" 
d="M1466 717h-172v618h-1007v176h1007v795h172v-795h1000v-176h-1000v-618zM287 238v168h2179v-168h-2179z" />
    <glyph glyph-name="afii10055" unicode="&#xb2;" horiz-adv-x="1593" 
d="M918 2634h-377l20 73h1204l-16 -73h-381l-639 -2560h377l-16 -74h-1205l17 74h381z" />
    <glyph glyph-name="afii10103" unicode="&#xb3;" horiz-adv-x="1040" 
d="M811 1745l-396.999 -1503c-8.66699 -36.667 -13 -66.667 -13 -90c0 -49.333 27.333 -74 82 -74c32 0 59.5 10.333 82.5 31s51.5 51.334 85.5 92.001c85.333 108.667 157.666 224.667 216.999 348l58 -29c-72 -158.667 -144.333 -280 -217 -364
s-139.167 -138.5 -199.5 -163.5s-120.833 -37.5 -181.5 -37.5c-80.667 0 -144.5 25.833 -191.5 77.5s-70.5 117.167 -70.5 196.5c0 58.667 15 140.667 45 246l319 1213h-373l13 57h741zM541.001 2458c52.667 158 148 237 286 237c104 0 156 -39.667 156 -119
c0 -84 -26.167 -164.333 -78.5 -241s-125.833 -115 -220.5 -115c-53.333 0 -93.333 11.5 -120 34.5s-40 51.167 -40 84.5c0 47.333 5.66699 87 17 119z" />
    <glyph glyph-name="afii10098" unicode="&#xb4;" horiz-adv-x="1622" 
d="M487 1688l-375.998 0.000976562l12 57h893c95.333 0 175.666 11 240.999 33s116.166 48.167 152.499 78.5s71.833 66.833 106.5 109.5c52.667 70 89.334 135.667 110.001 197h82l-188 -783h-82c-21.333 93.333 -50.833 162.666 -88.5 207.999s-77.834 73.333 -120.501 84
s-94.667 16 -156 16h-213l-438 -1688h-365z" />
    <glyph glyph-name="mu" unicode="&#xb5;" horiz-adv-x="2191" 
d="M1962 1745l-396.999 -1503c-8.66699 -36.667 -13 -66.667 -13 -90c0 -49.333 27.333 -74 82 -74c73.333 0 171.666 102.333 294.999 307c50 86.667 80 141.334 90 164.001l58 -29c-72 -158.667 -144.333 -280 -217 -364s-139.167 -138.5 -199.5 -163.5
s-120.833 -37.5 -181.5 -37.5c-80.667 0 -144.5 25.833 -191.5 77.5s-70.5 117.167 -70.5 196.5c0 33.333 15 115.333 45 246l16 70h-12c-70.667 -110.667 -158 -211.834 -262 -303.501s-207.167 -162.334 -309.5 -212.001s-189.166 -74.5 -260.499 -74.5
c-70.667 0 -140.334 31.333 -209.001 94l-20 -123c-8 -48 -19.333 -143.5 -34 -286.5s-30.334 -252 -47.001 -327s-45 -137.5 -85 -187.5s-96.667 -75 -170 -75c-37.333 0 -78.833 15.333 -124.5 46s-68.5 89 -68.5 175c0 55.333 14.333 119.666 43 192.999
s74.167 174.833 136.5 304.5s115 245.834 158 348.501s79.5 212.334 109.5 329.001l344 1299h348l-336 -1307c-13.333 -57.333 -20 -121.333 -20 -192c0 -29.333 11.167 -60.666 33.5 -93.999s61.5 -50 117.5 -50c72.667 0 154.834 32.667 246.501 98
s180.5 149.5 266.5 252.5s156.667 207.5 212 313.5l258 979h369z" />
    <glyph glyph-name="paragraph" unicode="&#xb6;" horiz-adv-x="1835" 
d="M856 -803l0.000976562 2237c-148.667 4 -277.5 41.333 -386.5 112s-191.333 160.334 -247 269.001s-83.5 220.334 -83.5 335.001c0 115.333 28 227.5 84 336.5s138.667 198.5 248 268.5s237.666 107.333 384.999 112h287v-3670h-287zM1430 -803.002v3670h286v-3670h-286z
" />
    <glyph glyph-name="periodcentered" unicode="&#xb7;" horiz-adv-x="791" 
d="M172 1511c0 64.667 21.501 118.5 64.501 161.5s96.5 64.5 160.5 64.5c62 0 114.333 -21.333 157 -64s64 -96.667 64 -162c0 -62 -21 -114.333 -63 -157s-94.667 -64 -158 -64c-64.667 0 -118.334 21.667 -161.001 65s-64 95.333 -64 156z" />
    <glyph glyph-name="afii10071" unicode="&#xb8;" horiz-adv-x="1802" 
d="M791 2458c52.667 158 148 237 286 237c104 0 156 -39.667 156 -119c0 -83.333 -26.5 -163.5 -79.5 -240.5s-126.167 -115.5 -219.5 -115.5c-53.333 0 -93.333 11.5 -120 34.5s-40 51.167 -40 84.5c0 47.333 5.66699 87 17 119zM1532 2454
c28.667 89.333 70.001 151.166 124.001 185.5c54 34.333 107 51.5 159 51.5c54 0 94 -11.5 120 -34.5s39 -51.167 39 -84.5c0 -74.667 -23.833 -152.667 -71.5 -234s-124.834 -122 -231.501 -122c-103.333 0 -155 38.333 -155 115c0 45.333 5.33301 86.333 16 123z
M512.001 750l-53.001 -197.001c-11.333 -46.667 -17 -101.334 -17 -164.001c0 -108 32.5 -197.167 97.5 -267.5s154.167 -105.5 267.5 -105.5c152.667 0 302.5 47.833 449.5 143.5s259.167 213.167 336.5 352.5l54 -25c-84 -132 -197.833 -253.667 -341.5 -365
s-318.167 -167 -523.5 -167c-140 0 -260.667 38.5 -362 115.5s-177.5 176.167 -228.5 297.5s-76.5 247 -76.5 377c0 194 57.833 371.333 173.5 532s259.334 286.334 431.001 377.001s334.5 136 488.5 136c128 0 240.667 -32.667 338 -98s146 -170.666 146 -315.999
c0 -103.333 -26.667 -188.5 -80 -255.5s-128 -120.333 -224 -160s-216 -74.5 -360 -104.5zM532 814.999l447 102.999c180.667 44 294 181.667 340 413l37 180c5.33301 22.667 8 48.667 8 78c0 96 -50.667 144 -152 144c-56 0 -120.833 -14.667 -194.5 -44
s-150.5 -94.666 -230.5 -195.999s-144.333 -248 -193 -440z" />
    <glyph glyph-name="afii61352" unicode="&#xb9;" horiz-adv-x="4313" 
d="M3006 1106c0 146.667 32.167 271.671 96.5 375.004s147.333 180.666 249 231.999s207.834 77 318.5 77c105.333 0 194.333 -28 267 -84s126.834 -128.833 162.5 -218.5s53.5 -182.834 53.5 -279.501c0 -124.667 -33.666 -240.334 -101 -347.001
c-67.333 -106.667 -155.333 -190.834 -264 -252.501s-221.667 -92.5 -339 -92.5c-126.667 0 -232.167 54 -316.5 162s-126.5 250.667 -126.5 428zM3375 1384l-78 -409.001c-10.667 -77.333 -16 -126.666 -16 -147.999c0 -158 71 -237 213 -237
c150 0 242.667 102.333 278 307l78 446c8.66699 50 13 89.667 13 119c0 92 -19.833 157.333 -59.5 196s-85.5 58 -137.5 58c-89.333 0 -155 -29.5 -197 -88.5s-73.333 -140.167 -94 -243.5zM2765 0.00292969l45 139h1143l-41 -139h-1147zM2519 647.003l352 1454
c37.333 153.333 72.333 271.666 105 355c32.667 83.333 81.667 151.5 147 204.5s153.333 79.5 264 79.5c121.333 0 216.666 -39.833 286 -119.5c69.333 -79.667 104 -164.167 104 -253.5c0 -72.667 -20.5 -138.5 -61.5 -197.5s-105.167 -88.5 -192.5 -88.5
c-74.667 0 -133.667 20.667 -177 62s-65 93 -65 155c0 92.667 41 159.667 123 201c26.667 12.667 45.667 25.334 57 38c11.333 12.667 17 35.334 17 68c0 40.667 -39.667 61 -119 61c-92.667 0 -165.5 -28.667 -218.5 -86s-89.833 -118.166 -110.5 -182.499
s-50.334 -175.5 -89 -333.5l-504 -2097h-53l-942 2294l-422 -1753c-32 -133.333 -69 -239.166 -111 -317.499s-93.833 -135.166 -155.5 -170.499s-139.5 -53 -233.5 -53c-138.667 0 -233.334 39.833 -284.001 119.5s-76 154.5 -76 224.5c0 78 21 145.333 63 202
s101.333 85 178 85c76 0 136 -20.667 180 -62s66 -100 66 -176c0 -121.333 -61.333 -189.333 -184 -204c-38 -7.33301 -57 -22.333 -57 -45c0 -46.667 50.333 -70 151 -70c93.333 0 169.5 34.833 228.5 104.5s111.167 195.834 156.5 378.501l393 1598
c27.333 140 41 230 41 270c0 73.333 -12.833 126.333 -38.5 159s-55.167 52.334 -88.5 59.001s-101.666 14.667 -204.999 24l17 73h635z" />
    <glyph glyph-name="afii10101" unicode="&#xba;" horiz-adv-x="1892" 
d="M1720 1778l-151 -582h-74v86c0 173.333 -34.333 291.833 -103 355.5s-147.667 95.5 -237 95.5c-93.333 0 -181.5 -36.833 -264.5 -110.5s-153.667 -170.5 -212 -290.5s-98.833 -246 -121.5 -378h643l-20 -82h-643c-27.333 -118.667 -41 -268.667 -41 -450
c0 -116.667 32.667 -214.167 98 -292.5s150 -117.5 254 -117.5c94.667 0 183.167 27.167 265.5 81.5s123.5 107.833 123.5 160.5c0 23.333 -15 42.333 -45 57c-60 36 -90 92 -90 168c0 58 21.833 105.333 65.5 142s94.167 55 151.5 55s105.166 -20.5 143.499 -61.5
s57.5 -84.833 57.5 -131.5c0 -62.667 -30.833 -136 -92.5 -220s-148 -156.333 -259 -217s-236.833 -91 -377.5 -91c-104.667 0 -209 22 -313 66s-190.5 115 -259.5 213s-103.5 222 -103.5 372c0 185.333 45.167 370.333 135.5 555s212.833 335.667 367.5 453
s321.334 176 500.001 176c86 0 160.833 -10.167 224.5 -30.5s110.5 -30.5 140.5 -30.5c69.333 0 124 16.333 164 49h73z" />
    <glyph glyph-name="guillemotright" unicode="&#xbb;" horiz-adv-x="1794" 
d="M692 1683l44.999 28.999c202 -336.667 458.667 -622 770 -856c-446 -243.333 -846 -528.666 -1200 -855.999l-24 33c248 304 504.667 578.333 770 823c-149.333 261.333 -269.666 537 -360.999 827zM294.999 1303l45 15.999
c118.667 -181.333 267.334 -335.666 446.001 -462.999c-246.667 -132 -471.667 -287.667 -675 -467l-41 17c113.333 162 245.666 312 396.999 450c-86 138.667 -143.333 287.667 -172 447z" />
    <glyph glyph-name="afii10105" unicode="&#xbc;" horiz-adv-x="1016" 
d="M901 1745l-449.999 -1749c-44.667 -173.333 -87.834 -306.333 -129.501 -399s-103.334 -165.334 -185.001 -218.001s-194.167 -79 -337.5 -79c-113.333 0 -203.666 25 -270.999 75s-101 113.667 -101 191c0 60 17.167 108.5 51.5 145.5s78.5 55.5 132.5 55.5
c52.667 0 96.5 -15.833 131.5 -47.5s52.5 -76.167 52.5 -133.5c0 -23.333 -4 -45 -12 -65c-6.66699 -18.667 -15.167 -37.334 -25.5 -56.001s-15.5 -31.334 -15.5 -38.001c0 -33.333 19 -50 57 -50c36.667 0 73.667 15 111 45c18.667 16.667 33.167 40 43.5 70
s28.333 97.5 54 202.5s64.167 254.5 115.5 448.5l409 1545h-393l17 57h745zM631.001 2458c52.667 158 148.334 237 287.001 237c103.333 0 155 -39.667 155 -119c0 -81.333 -26.833 -161 -80.5 -239s-127.834 -117 -222.501 -117c-104 0 -156 39.667 -156 119
c0 47.333 5.66699 87 17 119z" />
    <glyph glyph-name="afii10054" unicode="&#xbd;" horiz-adv-x="2351" 
d="M0 0l200.999 868h53c41.333 -323.333 139.5 -542 294.5 -656s313.5 -171 475.5 -171c116 0 229.833 29.5 341.5 88.5s202.167 139.667 271.5 242s104 214.833 104 337.5c0 107.333 -28.333 186.333 -85 237s-135 93 -235 127l-446 152c-141.333 48 -248.333 126 -321 234
s-109 232 -109 372c0 153.333 38.667 300 116 440s186.666 253.167 327.999 339.5s301.666 129.5 480.999 129.5c170.667 0 318.334 -20.333 443.001 -61c66.667 -24.667 132 -37 196 -37c34.667 0 74.334 21.667 119.001 65h66l-144 -659h-57
c-30 164.667 -81.333 293.167 -154 385.5s-150.167 154.166 -232.5 185.499s-163.833 47 -244.5 47c-105.333 0 -208.166 -22 -308.499 -66s-182.5 -109 -246.5 -195s-96 -188.667 -96 -308c0 -201.333 113.333 -335 340 -401l442 -131
c144.667 -42 254.667 -119.667 330 -233s113 -253 113 -419c0 -167.333 -43.667 -323.833 -131 -469.5s-206.833 -261.5 -358.5 -347.5s-317.5 -129 -497.5 -129c-134 0 -242.167 10.833 -324.5 32.5s-166.833 55.834 -253.5 102.501c-84 44 -138.667 66 -164 66
c-90 0 -159.667 -56 -209 -168h-98z" />
    <glyph glyph-name="afii10102" unicode="&#xbe;" horiz-adv-x="1659" 
d="M868 627l-371.997 261.999c-112 79.333 -168 198 -168 356c0 65.333 28.667 141.333 86 228s143 161.167 257 223.5s249.333 93.5 406 93.5c138 0 250.333 -32.167 337 -96.5s130 -159.166 130 -284.499c0 -71.333 -22.333 -123.333 -67 -156s-89.334 -49 -134.001 -49
c-61.333 0 -111.333 16.333 -150 49s-58 73.667 -58 123c0 29.333 12 60.666 36 93.999l34.5 41c12.333 14.667 22.666 29.834 30.999 45.501s12.5 32.167 12.5 49.5c0 78.667 -72.333 118 -217 118c-120 0 -206.167 -31.833 -258.5 -95.5s-83.5 -128.5 -93.5 -194.5v-95
c12 -77.333 55.667 -142.666 131 -195.999l397 -279c117.333 -81.333 176 -208.333 176 -381c0 -92 -33.833 -178.5 -101.5 -259.5s-163.334 -146 -287.001 -195s-264.5 -73.5 -422.5 -73.5c-204.667 0 -351.334 36.333 -440.001 109s-133 166 -133 280
c0 70 21 125.667 63 167s93.333 62 154 62c56.667 0 104.334 -16 143.001 -48s58 -76 58 -132c0 -34.667 -19.333 -83.667 -58 -147l-21 -36.5c-7.33301 -12.333 -11 -24.833 -11 -37.5c0 -52.667 25.5 -91.834 76.5 -117.501s112.833 -38.5 185.5 -38.5
c114 0 213.5 40.333 298.5 121s127.5 162 127.5 244c0 92.667 -49.333 174.667 -148 246z" />
    <glyph glyph-name="afii10104" unicode="&#xbf;" horiz-adv-x="1262" 
d="M840 1745l-398 -1503c-8 -34 -12 -64 -12 -90c0 -49.333 27.333 -74 82 -74c32 0 59.5 10.333 82.5 31s51.5 51.334 85.5 92.001c84.667 108.667 157 224.667 217 348l57 -29c-73.333 -161.333 -146 -283.333 -218 -366s-138 -136.5 -198 -161.5
s-120.667 -37.5 -182 -37.5c-80.667 0 -144.5 25.833 -191.5 77.5s-70.5 117.167 -70.5 196.5c0 54.667 15 136.667 45 246l320 1213h-385l20 57h746zM57 2466c0 44 15.833 85.667 47.5 125s76.167 59 133.5 59c52.667 0 96.5 -18.167 131.5 -54.5s52.5 -79.5 52.5 -129.5
c0 -50.667 -17.833 -94.167 -53.5 -130.5s-79.167 -54.5 -130.5 -54.5c-56 0 -100.167 19.833 -132.5 59.5s-48.5 81.5 -48.5 125.5zM774 2466c0 51.333 18.499 94.833 55.499 130.5s79.833 53.5 128.5 53.5c54.667 0 99.834 -18.333 135.501 -55s53.5 -79.667 53.5 -129
c0 -48.667 -18 -91.667 -54 -129s-81 -56 -135 -56c-48 0 -90.667 17.833 -128 53.5s-56 79.5 -56 131.5z" />
    <glyph glyph-name="afii10017" unicode="&#xc0;" horiz-adv-x="2314" 
d="M1384 975h-815l-254 -471c-46 -88 -69 -160.333 -69 -217c0 -64 18.667 -115.5 56 -154.5s88.333 -58.5 153 -58.5h32l-16 -74h-700l20 74c74 19.333 154 76.833 240 172.5s156.333 192.5 211 290.5l1224 2203h37l426 -2666h299l-20 -74h-1004l21 74h291zM1372 1049
l-176 1065l-582 -1065h758z" />
    <glyph glyph-name="afii10017" unicode="&#x410;" horiz-adv-x="2314" 
d="M1384 975h-815l-254 -471c-46 -88 -69 -160.333 -69 -217c0 -64 18.667 -115.5 56 -154.5s88.333 -58.5 153 -58.5h32l-16 -74h-700l20 74c74 19.333 154 76.833 240 172.5s156.333 192.5 211 290.5l1224 2203h37l426 -2666h299l-20 -74h-1004l21 74h291zM1372 1049
l-176 1065l-582 -1065h758z" />
    <glyph glyph-name="afii10018" unicode="&#xc1;" horiz-adv-x="2744" 
d="M1098 1556l527.999 0.000976562c118.667 0 239.334 -13.667 362.001 -41s233 -87.5 331 -180.5s147 -227.833 147 -404.5c0 -154.667 -41 -302.834 -123 -444.501s-209.167 -258 -381.5 -349s-383.833 -136.5 -634.5 -136.5h-1442l17 74h381l635 2560h-377l16 73h2015
l-159 -761h-70c5.33301 32 8 60.667 8 86c0 134.667 -27.333 254.667 -82 360c-46 86 -99.833 147.833 -161.5 185.5s-141.5 56.5 -239.5 56.5h-500zM1081 1483l-352 -1409h639c272.667 0 444.667 137.667 516 413l107 422c5.33301 17.333 11.333 56.333 18 117
s10 99.667 10 117c0 144 -39.167 236.667 -117.5 278s-182.5 62 -312.5 62h-508z" />
    <glyph glyph-name="afii10018" unicode="&#x411;" horiz-adv-x="2744" 
d="M1098 1556l527.999 0.000976562c118.667 0 239.334 -13.667 362.001 -41s233 -87.5 331 -180.5s147 -227.833 147 -404.5c0 -154.667 -41 -302.834 -123 -444.501s-209.167 -258 -381.5 -349s-383.833 -136.5 -634.5 -136.5h-1442l17 74h381l635 2560h-377l16 73h2015
l-159 -761h-70c5.33301 32 8 60.667 8 86c0 134.667 -27.333 254.667 -82 360c-46 86 -99.833 147.833 -161.5 185.5s-141.5 56.5 -239.5 56.5h-500zM1081 1483l-352 -1409h639c272.667 0 444.667 137.667 516 413l107 422c5.33301 17.333 11.333 56.333 18 117
s10 99.667 10 117c0 144 -39.167 236.667 -117.5 278s-182.5 62 -312.5 62h-508z" />
    <glyph glyph-name="afii10019" unicode="&#xc2;" horiz-adv-x="2712" 
d="M283 74l639.002 2560h-377l16 73h1282c191.333 0 343.5 -26.833 456.5 -80.5s190.833 -118.5 233.5 -194.5s64 -152 64 -228c0 -105.333 -27.667 -211 -83 -317s-141.666 -198.5 -259 -277.5c-117.333 -79 -264 -132.167 -440 -159.5v-29
c102 -4.66699 200.5 -23.334 295.5 -56.001s176 -89.667 243 -171s100.5 -191.333 100.5 -330c0 -108.667 -31.833 -229 -95.5 -361s-183.834 -248.833 -360.501 -350.5s-419.334 -152.5 -728.001 -152.5h-1385l21 74h377zM729.002 74.001l548.999 -0.000976562
c129.333 0 246.333 25.833 351 77.5s180 170.5 226 356.5l91 364c16 74 24 137 24 189c0 98 -24.5 171.333 -73.5 220s-105.667 78.834 -170 90.501s-136.166 17.5 -215.499 17.5h-446zM1081 1466h455c158.667 0 280 36.5 364 109.5s137.333 156.833 160 251.5l70 282
c13.333 60 20 151.667 20 275c0 108.667 -39.5 177.5 -118.5 206.5s-173.167 43.5 -282.5 43.5h-381z" />
    <glyph glyph-name="afii10019" unicode="&#x412;" horiz-adv-x="2712" 
d="M283 74l639.002 2560h-377l16 73h1282c191.333 0 343.5 -26.833 456.5 -80.5s190.833 -118.5 233.5 -194.5s64 -152 64 -228c0 -105.333 -27.667 -211 -83 -317s-141.666 -198.5 -259 -277.5c-117.333 -79 -264 -132.167 -440 -159.5v-29
c102 -4.66699 200.5 -23.334 295.5 -56.001s176 -89.667 243 -171s100.5 -191.333 100.5 -330c0 -108.667 -31.833 -229 -95.5 -361s-183.834 -248.833 -360.501 -350.5s-419.334 -152.5 -728.001 -152.5h-1385l21 74h377zM729.002 74.001l548.999 -0.000976562
c129.333 0 246.333 25.833 351 77.5s180 170.5 226 356.5l91 364c16 74 24 137 24 189c0 98 -24.5 171.333 -73.5 220s-105.667 78.834 -170 90.501s-136.166 17.5 -215.499 17.5h-446zM1081 1466h455c158.667 0 280 36.5 364 109.5s137.333 156.833 160 251.5l70 282
c13.333 60 20 151.667 20 275c0 108.667 -39.5 177.5 -118.5 206.5s-173.167 43.5 -282.5 43.5h-381z" />
    <glyph glyph-name="afii10020" unicode="&#xc3;" horiz-adv-x="2314" 
d="M918 2634h-377l20 73h1983l-189 -753h-65c2.66699 27.333 4 68.333 4 123c0 371.333 -140.667 557 -422 557h-504l-639 -2560h377l-16 -74h-1205l17 74h381z" />
    <glyph glyph-name="afii10020" unicode="&#x413;" horiz-adv-x="2314" 
d="M918 2634h-377l20 73h1983l-189 -753h-65c2.66699 27.333 4 68.333 4 123c0 371.333 -140.667 557 -422 557h-504l-639 -2560h377l-16 -74h-1205l17 74h381z" />
    <glyph glyph-name="afii10021" unicode="&#xc4;" horiz-adv-x="2728" 
d="M1851 53l398 -0.000976562l-242 -958h-82c8 106 12 168.667 12 188c0 190 -39.833 352.833 -119.5 488.5s-224.167 203.5 -433.5 203.5h-847c-362 0 -647.333 -293.333 -856 -880h-82l237 958c123.333 0 227.5 25.167 312.5 75.5s154.333 118 208 203
s94.667 165.833 123 242.5s78.833 225.334 151.5 446.001l307 930c57.333 166.667 86 290.667 86 372c0 108 -21.167 187 -63.5 237s-119.5 75 -231.5 75h-115l21 73h2265l-16 -73h-373zM2056 2634h-471.001c-120.667 0 -213.167 -25.5 -277.5 -76.5
s-110.166 -109.5 -137.499 -175.5s-76 -206 -146 -420l-324 -975c-65.333 -195.333 -117.5 -339 -156.5 -431s-75 -169.5 -108 -232.5s-55.167 -116.167 -66.5 -159.5v-66c12 -30 50 -45 114 -45h926z" />
    <glyph glyph-name="afii10021" unicode="&#x414;" horiz-adv-x="2728" 
d="M1851 53l398 -0.000976562l-242 -958h-82c8 106 12 168.667 12 188c0 190 -39.833 352.833 -119.5 488.5s-224.167 203.5 -433.5 203.5h-847c-362 0 -647.333 -293.333 -856 -880h-82l237 958c123.333 0 227.5 25.167 312.5 75.5s154.333 118 208 203
s94.667 165.833 123 242.5s78.833 225.334 151.5 446.001l307 930c57.333 166.667 86 290.667 86 372c0 108 -21.167 187 -63.5 237s-119.5 75 -231.5 75h-115l21 73h2265l-16 -73h-373zM2056 2634h-471.001c-120.667 0 -213.167 -25.5 -277.5 -76.5
s-110.166 -109.5 -137.499 -175.5s-76 -206 -146 -420l-324 -975c-65.333 -195.333 -117.5 -339 -156.5 -431s-75 -169.5 -108 -232.5s-55.167 -116.167 -66.5 -159.5v-66c12 -30 50 -45 114 -45h926z" />
    <glyph glyph-name="afii10022" unicode="&#xc5;" horiz-adv-x="2601" 
d="M2179 848l78.002 -0.00195312l-209 -848h-2163l21 74h377l639 2560h-377l16 73h1983l-185 -741l-78 4c6 27.333 9 68.333 9 123c0 98 -18.833 188.333 -56.5 271s-93.834 148.334 -168.5 197.001c-74.667 48.667 -163.667 73 -267 73h-430l-278 -1114h344
c152 0 275.333 42.833 370 128.5s161 192.834 199 321.501l65 -4l-253 -1024h-70v172c0 136.667 -44.833 225.5 -134.5 266.5s-166.5 61.5 -230.5 61.5h-307l-340 -1368h434c134 0 259.667 21.833 377 65.5s230.166 122.667 338.499 237s207.166 271.5 296.499 471.5z" />
    <glyph glyph-name="afii10022" unicode="&#x415;" horiz-adv-x="2601" 
d="M2179 848l78.002 -0.00195312l-209 -848h-2163l21 74h377l639 2560h-377l16 73h1983l-185 -741l-78 4c6 27.333 9 68.333 9 123c0 98 -18.833 188.333 -56.5 271s-93.834 148.334 -168.5 197.001c-74.667 48.667 -163.667 73 -267 73h-430l-278 -1114h344
c152 0 275.333 42.833 370 128.5s161 192.834 199 321.501l65 -4l-253 -1024h-70v172c0 136.667 -44.833 225.5 -134.5 266.5s-166.5 61.5 -230.5 61.5h-307l-340 -1368h434c134 0 259.667 21.833 377 65.5s230.166 122.667 338.499 237s207.166 271.5 296.499 471.5z" />
    <glyph glyph-name="afii10024" unicode="&#xc6;" horiz-adv-x="4014" 
d="M3686 410l69.998 -28.998c-52 -77.333 -106.333 -147.666 -163 -210.999s-117.5 -113 -182.5 -149s-134.167 -54 -207.5 -54c-99.333 0 -182.833 31 -250.5 93s-101.5 144.333 -101.5 247c0 42.667 5.33301 82.334 16 119.001l119 496c8 40.667 12 78.667 12 114
c0 111.333 -36.167 200 -108.5 266s-161.833 99 -268.5 99h-344l-331 -1327h376l-16 -74h-1204l16 74h381l328 1327h-352c-134.667 0 -253 -35.833 -355 -107.5s-173.667 -166.834 -215 -285.501l-205 -582c-108 -306 -285.333 -459 -532 -459
c-106 0 -187.833 34.167 -245.5 102.5s-108.167 172.166 -151.5 311.499l69 33c40 -97.333 74.333 -170.833 103 -220.5s64 -74.5 106 -74.5c14.667 0 27.834 5 39.501 15s21.5 22.833 29.5 38.5s14.667 30.667 20 45l14 36.5l217 643
c61.333 182.667 156.5 309.5 285.5 380.5s310.833 118.833 545.5 143.5l12 37c-76 59.333 -114 141.333 -114 246c0 28.667 5.33301 65.667 16 111l103 405c13.333 45.333 20 105.333 20 180c0 39.333 -10.667 79.666 -32 121c-21.333 41.333 -54.333 69.333 -99 84h-78
c-24.667 -18.667 -37 -36.334 -37 -53c0 -35.333 5.66699 -65.333 17 -90c32.667 -73.333 49 -130.666 49 -172c0 -56.667 -23.833 -106.334 -71.5 -149.001s-115.5 -64 -203.5 -64c-86 0 -151.167 30 -195.5 90s-66.5 135 -66.5 225c0 92 36.833 173 110.5 243
s181.5 105 323.5 105c124.667 0 215.334 -37.167 272.001 -111.5s85 -174.833 85 -301.5c0 -27.333 -5.66699 -64.333 -17 -111l-106 -418c-8 -32.667 -12 -61.334 -12 -86.001c0 -71.333 23.833 -128 71.5 -170s111.167 -63 190.5 -63h409l287 1155h-377l17 73h1204
l-17 -73h-381l-286 -1155h356c224 0 362 84.667 414 254l160 524c49.333 158.667 107 278.834 173 360.5c66 81.667 165.333 122.5 298 122.5c122.667 0 216 -33.5 280 -100.5s96 -144.167 96 -231.5c0 -88 -23.167 -165.167 -69.5 -231.5s-111.833 -99.5 -196.5 -99.5
c-80 0 -147.833 22.5 -203.5 67.5s-83.5 116.5 -83.5 214.5c0 14 5.66699 36 17 66c6.66699 14.667 20.667 33.834 42 57.501s32 41.167 32 52.5c0 54.667 -23.333 82 -70 82c-54 0 -98.333 -34.833 -133 -104.5s-71 -164.5 -109 -284.5l-164 -516
c-19.333 -64 -42.5 -115.833 -69.5 -155.5s-78.833 -77.834 -155.5 -114.501l-8 -37c379.333 -30.667 569 -191.667 569 -483c0 -57.333 -10.667 -135.333 -32 -234l-111 -455c0.666992 -19.333 4.16699 -43.833 10.5 -73.5s19.166 -44.5 38.5 -44.5
c94.667 0 198.334 98.333 311 295z" />
    <glyph glyph-name="afii10024" unicode="&#x416;" horiz-adv-x="4014" 
d="M3686 410l69.998 -28.998c-52 -77.333 -106.333 -147.666 -163 -210.999s-117.5 -113 -182.5 -149s-134.167 -54 -207.5 -54c-99.333 0 -182.833 31 -250.5 93s-101.5 144.333 -101.5 247c0 42.667 5.33301 82.334 16 119.001l119 496c8 40.667 12 78.667 12 114
c0 111.333 -36.167 200 -108.5 266s-161.833 99 -268.5 99h-344l-331 -1327h376l-16 -74h-1204l16 74h381l328 1327h-352c-134.667 0 -253 -35.833 -355 -107.5s-173.667 -166.834 -215 -285.501l-205 -582c-108 -306 -285.333 -459 -532 -459
c-106 0 -187.833 34.167 -245.5 102.5s-108.167 172.166 -151.5 311.499l69 33c40 -97.333 74.333 -170.833 103 -220.5s64 -74.5 106 -74.5c14.667 0 27.834 5 39.501 15s21.5 22.833 29.5 38.5s14.667 30.667 20 45l14 36.5l217 643
c61.333 182.667 156.5 309.5 285.5 380.5s310.833 118.833 545.5 143.5l12 37c-76 59.333 -114 141.333 -114 246c0 28.667 5.33301 65.667 16 111l103 405c13.333 45.333 20 105.333 20 180c0 39.333 -10.667 79.666 -32 121c-21.333 41.333 -54.333 69.333 -99 84h-78
c-24.667 -18.667 -37 -36.334 -37 -53c0 -35.333 5.66699 -65.333 17 -90c32.667 -73.333 49 -130.666 49 -172c0 -56.667 -23.833 -106.334 -71.5 -149.001s-115.5 -64 -203.5 -64c-86 0 -151.167 30 -195.5 90s-66.5 135 -66.5 225c0 92 36.833 173 110.5 243
s181.5 105 323.5 105c124.667 0 215.334 -37.167 272.001 -111.5s85 -174.833 85 -301.5c0 -27.333 -5.66699 -64.333 -17 -111l-106 -418c-8 -32.667 -12 -61.334 -12 -86.001c0 -71.333 23.833 -128 71.5 -170s111.167 -63 190.5 -63h409l287 1155h-377l17 73h1204
l-17 -73h-381l-286 -1155h356c224 0 362 84.667 414 254l160 524c49.333 158.667 107 278.834 173 360.5c66 81.667 165.333 122.5 298 122.5c122.667 0 216 -33.5 280 -100.5s96 -144.167 96 -231.5c0 -88 -23.167 -165.167 -69.5 -231.5s-111.833 -99.5 -196.5 -99.5
c-80 0 -147.833 22.5 -203.5 67.5s-83.5 116.5 -83.5 214.5c0 14 5.66699 36 17 66c6.66699 14.667 20.667 33.834 42 57.501s32 41.167 32 52.5c0 54.667 -23.333 82 -70 82c-54 0 -98.333 -34.833 -133 -104.5s-71 -164.5 -109 -284.5l-164 -516
c-19.333 -64 -42.5 -115.833 -69.5 -155.5s-78.833 -77.834 -155.5 -114.501l-8 -37c379.333 -30.667 569 -191.667 569 -483c0 -57.333 -10.667 -135.333 -32 -234l-111 -455c0.666992 -19.333 4.16699 -43.833 10.5 -73.5s19.166 -44.5 38.5 -44.5
c94.667 0 198.334 98.333 311 295z" />
    <glyph glyph-name="afii10025" unicode="&#xc7;" horiz-adv-x="2421" 
d="M586 1999l-70 4.00293l213 737h74c0 -37.333 8.83301 -66.5 26.5 -87.5s34.834 -31.5 51.501 -31.5c31.333 0 86.833 7.83301 166.5 23.5s133.167 28.5 160.5 38.5c128 38 263.333 57 406 57c262 0 438 -56.333 528 -169s135 -233.667 135 -363
c0 -94 -30 -195.833 -90 -305.5s-145 -206 -255 -289s-236.667 -134.833 -380 -155.5l-4 -24c155.333 0 288.5 -39.833 399.5 -119.5s166.5 -194.167 166.5 -343.5c0 -152.667 -51.333 -306.834 -154 -462.501s-255.834 -284.834 -459.501 -387.501
s-445.834 -154 -726.501 -154c-207.333 0 -366.5 32.667 -477.5 98s-183.333 137.833 -217 217.5s-50.5 152.167 -50.5 217.5c0 85.333 23.667 157.833 71 217.5s120.333 89.5 219 89.5c89.333 0 160.833 -28 214.5 -84s80.5 -121 80.5 -195
c0 -53.333 -16.167 -107.166 -48.5 -161.499s-74.833 -90.5 -127.5 -108.5c-26.667 -8.66699 -45.5 -18.334 -56.5 -29.001s-16.5 -36.334 -16.5 -77.001c0 -38.667 40.333 -66.834 121 -84.501s167 -26.5 259 -26.5c167.333 0 304.5 28.667 411.5 86
s186.333 125.333 238 204s89.167 162.334 112.5 251.001l78 307c19.333 84 29 159 29 225c0 194 -138 291 -414 291h-479l20 74h512c87.333 0 159.833 9.5 217.5 28.5s110.334 61.833 158.001 128.5s89.167 168.667 124.5 306l86 331c10.667 36.667 16 73.667 16 111
c0 95.333 -35 166.166 -105 212.5c-70 46.333 -156.333 69.5 -259 69.5c-120 0 -235.5 -33 -346.5 -99s-209.667 -146.167 -296 -240.5s-173.833 -203.5 -262.5 -327.5z" />
    <glyph glyph-name="afii10025" unicode="&#x417;" horiz-adv-x="2421" 
d="M586 1999l-70 4.00293l213 737h74c0 -37.333 8.83301 -66.5 26.5 -87.5s34.834 -31.5 51.501 -31.5c31.333 0 86.833 7.83301 166.5 23.5s133.167 28.5 160.5 38.5c128 38 263.333 57 406 57c262 0 438 -56.333 528 -169s135 -233.667 135 -363
c0 -94 -30 -195.833 -90 -305.5s-145 -206 -255 -289s-236.667 -134.833 -380 -155.5l-4 -24c155.333 0 288.5 -39.833 399.5 -119.5s166.5 -194.167 166.5 -343.5c0 -152.667 -51.333 -306.834 -154 -462.501s-255.834 -284.834 -459.501 -387.501
s-445.834 -154 -726.501 -154c-207.333 0 -366.5 32.667 -477.5 98s-183.333 137.833 -217 217.5s-50.5 152.167 -50.5 217.5c0 85.333 23.667 157.833 71 217.5s120.333 89.5 219 89.5c89.333 0 160.833 -28 214.5 -84s80.5 -121 80.5 -195
c0 -53.333 -16.167 -107.166 -48.5 -161.499s-74.833 -90.5 -127.5 -108.5c-26.667 -8.66699 -45.5 -18.334 -56.5 -29.001s-16.5 -36.334 -16.5 -77.001c0 -38.667 40.333 -66.834 121 -84.501s167 -26.5 259 -26.5c167.333 0 304.5 28.667 411.5 86
s186.333 125.333 238 204s89.167 162.334 112.5 251.001l78 307c19.333 84 29 159 29 225c0 194 -138 291 -414 291h-479l20 74h512c87.333 0 159.833 9.5 217.5 28.5s110.334 61.833 158.001 128.5s89.167 168.667 124.5 306l86 331c10.667 36.667 16 73.667 16 111
c0 95.333 -35 166.166 -105 212.5c-70 46.333 -156.333 69.5 -259 69.5c-120 0 -235.5 -33 -346.5 -99s-209.667 -146.167 -296 -240.5s-173.833 -203.5 -262.5 -327.5z" />
    <glyph glyph-name="afii10026" unicode="&#xc8;" horiz-adv-x="3142" 
d="M2314 2011l-1515 -1663l-70 -274h381l-20 -74h-1205l21 74h377l639 2560h-381l20 73h1204l-20 -73h-377l-528 -2114l1519 1663l111 451h-377l16 73h1205l-17 -73h-381l-635 -2560h377l-20 -74h-1204l20 74h381z" />
    <glyph glyph-name="afii10026" unicode="&#x418;" horiz-adv-x="3142" 
d="M2314 2011l-1515 -1663l-70 -274h381l-20 -74h-1205l21 74h377l639 2560h-381l20 73h1204l-20 -73h-377l-528 -2114l1519 1663l111 451h-377l16 73h1205l-17 -73h-381l-635 -2560h377l-20 -74h-1204l20 74h381z" />
    <glyph glyph-name="afii10027" unicode="&#xc9;" horiz-adv-x="3142" 
d="M2314 2011l-1515 -1663l-70 -274h377l-16 -74h-1205l17 74h381l639 2560h-381l20 73h1204l-20 -73h-377l-528 -2114l1515 1663l115 451h-377l16 73h1205l-17 -73h-381l-639 -2560h381l-20 -74h-1204l20 74h377zM2720 3420l68.999 -16
c-38 -66 -88.667 -132.833 -152 -200.5s-131.5 -127.334 -204.5 -179c-73 -51.667 -148 -92.834 -225 -123.5c-77 -30.667 -149.167 -46 -216.5 -46c-106 0 -196 30.5 -270 91.5s-111 141.167 -111 240.5c0 70.667 22.833 130.667 68.5 180s104.5 74 176.5 74
c81.333 0 143.333 -24 186 -72s64 -102 64 -162c0 -57.333 -20.333 -106.333 -61 -147c-18 -19.333 -27.667 -31.666 -29 -37v-41c6.66699 -24.667 27.334 -37 62.001 -37c89.333 0 198.333 50.5 327 151.5s234 208.833 316 323.5z" />
    <glyph glyph-name="afii10027" unicode="&#x419;" horiz-adv-x="3142" 
d="M2314 2011l-1515 -1663l-70 -274h377l-16 -74h-1205l17 74h381l639 2560h-381l20 73h1204l-20 -73h-377l-528 -2114l1515 1663l115 451h-377l16 73h1205l-17 -73h-381l-639 -2560h381l-20 -74h-1204l20 74h377zM2720 3420l68.999 -16
c-38 -66 -88.667 -132.833 -152 -200.5s-131.5 -127.334 -204.5 -179c-73 -51.667 -148 -92.834 -225 -123.5c-77 -30.667 -149.167 -46 -216.5 -46c-106 0 -196 30.5 -270 91.5s-111 141.167 -111 240.5c0 70.667 22.833 130.667 68.5 180s104.5 74 176.5 74
c81.333 0 143.333 -24 186 -72s64 -102 64 -162c0 -57.333 -20.333 -106.333 -61 -147c-18 -19.333 -27.667 -31.666 -29 -37v-41c6.66699 -24.667 27.334 -37 62.001 -37c89.333 0 198.333 50.5 327 151.5s234 208.833 316 323.5z" />
    <glyph glyph-name="afii10028" unicode="&#xca;" horiz-adv-x="2830" 
d="M2507 410l65 -28.9971c-95.333 -142 -186.166 -246.5 -272.5 -313.5c-86.333 -67 -178.5 -100.5 -276.5 -100.5c-100.667 0 -184.5 31.5 -251.5 94.5s-100.5 146.167 -100.5 249.5c0 35.333 4 73.666 12 114.999l119 496c8.66699 38.667 13 76.667 13 114
c0 104.667 -32.5 191.667 -97.5 261s-158.167 104 -279.5 104h-377l-332 -1327h377l-16 -74h-1205l17 74h381l635 2560h-377l16 73h1204l-16 -73h-381l-287 -1155h393c72 0 150.167 15.667 234.5 47s142.833 100.333 175.5 207l160 524
c49.333 163.333 110.5 284.666 183.5 363.999s170.167 119 291.5 119c114.667 0 205.5 -30 272.5 -90s100.5 -140.667 100.5 -242c0 -99.333 -25.833 -179.333 -77.5 -240s-114.834 -91 -189.5 -91c-80 0 -147 22.5 -201 67.5s-81 116.5 -81 214.5c0 16 5.33301 38 16 66
c10 24.667 24.167 45.5 42.5 62.5s27.5 32.833 27.5 47.5c0 54.667 -23.333 82 -70 82c-32.667 0 -61.167 -13 -85.5 -39s-46.166 -60.167 -65.499 -102.5s-34.833 -82.333 -46.5 -120l-39.5 -127.5l-168 -516c-22.667 -70 -51 -127.833 -85 -173.5
s-90.333 -77.834 -169 -96.501l-4 -12c205.333 -20 355.666 -68.667 450.999 -146s143 -191.333 143 -342c0 -66 -11 -150.667 -33 -254l-107 -455c0.666992 -19.333 4.16699 -43.833 10.5 -73.5s19.166 -44.5 38.5 -44.5c46 0 97.5 28.5 154.5 85.5
s109.5 126.833 157.5 209.5z" />
    <glyph glyph-name="afii10028" unicode="&#x41a;" horiz-adv-x="2830" 
d="M2507 410l65 -28.9971c-95.333 -142 -186.166 -246.5 -272.5 -313.5c-86.333 -67 -178.5 -100.5 -276.5 -100.5c-100.667 0 -184.5 31.5 -251.5 94.5s-100.5 146.167 -100.5 249.5c0 35.333 4 73.666 12 114.999l119 496c8.66699 38.667 13 76.667 13 114
c0 104.667 -32.5 191.667 -97.5 261s-158.167 104 -279.5 104h-377l-332 -1327h377l-16 -74h-1205l17 74h381l635 2560h-377l16 73h1204l-16 -73h-381l-287 -1155h393c72 0 150.167 15.667 234.5 47s142.833 100.333 175.5 207l160 524
c49.333 163.333 110.5 284.666 183.5 363.999s170.167 119 291.5 119c114.667 0 205.5 -30 272.5 -90s100.5 -140.667 100.5 -242c0 -99.333 -25.833 -179.333 -77.5 -240s-114.834 -91 -189.5 -91c-80 0 -147 22.5 -201 67.5s-81 116.5 -81 214.5c0 16 5.33301 38 16 66
c10 24.667 24.167 45.5 42.5 62.5s27.5 32.833 27.5 47.5c0 54.667 -23.333 82 -70 82c-32.667 0 -61.167 -13 -85.5 -39s-46.166 -60.167 -65.499 -102.5s-34.833 -82.333 -46.5 -120l-39.5 -127.5l-168 -516c-22.667 -70 -51 -127.833 -85 -173.5
s-90.333 -77.834 -169 -96.501l-4 -12c205.333 -20 355.666 -68.667 450.999 -146s143 -191.333 143 -342c0 -66 -11 -150.667 -33 -254l-107 -455c0.666992 -19.333 4.16699 -43.833 10.5 -73.5s19.166 -44.5 38.5 -44.5c46 0 97.5 28.5 154.5 85.5
s109.5 126.833 157.5 209.5z" />
    <glyph glyph-name="afii10029" unicode="&#xcb;" horiz-adv-x="2699" 
d="M2028 2634l-185.002 -0.000976562c-147.333 0 -265.166 -16 -353.499 -48s-155.333 -75.167 -201 -129.5s-83 -123 -112 -206l-78.5 -231.5l-459 -1319c-66 -190.667 -122 -335 -168 -433s-101.167 -172.5 -165.5 -223.5s-147.166 -76.5 -248.499 -76.5
c-115.333 0 -201.5 34.333 -258.5 103s-85.5 150.334 -85.5 245.001c0 80 22 152 66 216s108 96 192 96c83.333 0 153.333 -19.167 210 -57.5s85 -94.5 85 -168.5c0 -78 -21.667 -136.667 -65 -176c-12.667 -11.333 -33.667 -24.5 -63 -39.5s-44 -27.833 -44 -38.5
c0 -51.333 38.333 -77 115 -77c52 0 104.5 46 157.5 138s123.5 264.333 211.5 517l462 1339c36 100.667 54 170.334 54 209c0 240.667 -93 361 -279 361h-139l16 73h2179l-16 -73h-381l-639 -2560h381l-21 -74h-1204l21 74h377z" />
    <glyph glyph-name="afii10029" unicode="&#x41b;" horiz-adv-x="2699" 
d="M2028 2634l-185.002 -0.000976562c-147.333 0 -265.166 -16 -353.499 -48s-155.333 -75.167 -201 -129.5s-83 -123 -112 -206l-78.5 -231.5l-459 -1319c-66 -190.667 -122 -335 -168 -433s-101.167 -172.5 -165.5 -223.5s-147.166 -76.5 -248.499 -76.5
c-115.333 0 -201.5 34.333 -258.5 103s-85.5 150.334 -85.5 245.001c0 80 22 152 66 216s108 96 192 96c83.333 0 153.333 -19.167 210 -57.5s85 -94.5 85 -168.5c0 -78 -21.667 -136.667 -65 -176c-12.667 -11.333 -33.667 -24.5 -63 -39.5s-44 -27.833 -44 -38.5
c0 -51.333 38.333 -77 115 -77c52 0 104.5 46 157.5 138s123.5 264.333 211.5 517l462 1339c36 100.667 54 170.334 54 209c0 240.667 -93 361 -279 361h-139l16 73h2179l-16 -73h-381l-639 -2560h381l-21 -74h-1204l21 74h377z" />
    <glyph glyph-name="afii10030" unicode="&#xcc;" horiz-adv-x="3461" 
d="M1507 537l1295 2170h831l-16 -73h-377l-639 -2560h377l-17 -74h-1204l17 74h380l599 2412l-1508 -2519h-74l-262 2495l-467 -1925c-16 -66 -24 -122 -24 -168c0 -186.667 98.333 -285 295 -295l-21 -74h-807l17 74c91.333 14 181 56.667 269 128
s152.667 189.666 194 354.999l413 1630c16.667 66 25 131.667 25 197c0 166.667 -64.333 250 -193 250h-168l17 73h856z" />
    <glyph glyph-name="afii10030" unicode="&#x41c;" horiz-adv-x="3461" 
d="M1507 537l1295 2170h831l-16 -73h-377l-639 -2560h377l-17 -74h-1204l17 74h380l599 2412l-1508 -2519h-74l-262 2495l-467 -1925c-16 -66 -24 -122 -24 -168c0 -186.667 98.333 -285 295 -295l-21 -74h-807l17 74c91.333 14 181 56.667 269 128
s152.667 189.666 194 354.999l413 1630c16.667 66 25 131.667 25 197c0 166.667 -64.333 250 -193 250h-168l17 73h856z" />
    <glyph glyph-name="afii10031" unicode="&#xcd;" horiz-adv-x="3129" 
d="M1098 1552h1089l271 1082h-377l16 73h1204l-16 -73h-381l-635 -2560h377l-20 -74h-1205l21 74h377l352 1405h-1094l-348 -1405h377l-16 -74h-1205l17 74h381l635 2560h-377l20 73h1204l-20 -73h-377z" />
    <glyph glyph-name="afii10031" unicode="&#x41d;" horiz-adv-x="3129" 
d="M1098 1552h1089l271 1082h-377l16 73h1204l-16 -73h-381l-635 -2560h377l-20 -74h-1205l21 74h377l352 1405h-1094l-348 -1405h377l-16 -74h-1205l17 74h381l635 2560h-377l20 73h1204l-20 -73h-377z" />
    <glyph glyph-name="afii10032" unicode="&#xce;" horiz-adv-x="2851" 
d="M229 1004c-2.66699 21.333 -3.99902 56.667 -3.99902 106c0 191.333 31.5 383 94.5 575s156.333 368.167 280 528.5s276.167 288.166 457.5 383.5c181.333 95.333 386 143 614 143c218 0 403.167 -51 555.5 -153s265.833 -233.333 340.5 -394s112 -327.667 112 -501
c0 -180.667 -31.667 -371.667 -95 -573s-155.833 -389.166 -277.5 -563.499s-273.834 -316 -456.501 -425s-387 -163.5 -613 -163.5c-202 0 -377 45.167 -525 135.5s-262.5 214.166 -343.5 371.499s-127.5 334 -139.5 530zM848.001 1839l-197.001 -795.001
c-24.667 -103.333 -37 -274 -37 -512c0 -159.333 58.167 -282.333 174.5 -369s261.833 -130 436.5 -130c408 0 678.333 300.333 811 901l176 786c19.333 82.667 29 231.667 29 447c0 110.667 -27 204.334 -81 281.001s-123.667 133 -209 169s-174.666 54 -267.999 54
c-188.667 0 -357.5 -67.333 -506.5 -202s-258.5 -344.667 -328.5 -630z" />
    <glyph glyph-name="afii10032" unicode="&#x41e;" horiz-adv-x="2851" 
d="M229 1004c-2.66699 21.333 -3.99902 56.667 -3.99902 106c0 191.333 31.5 383 94.5 575s156.333 368.167 280 528.5s276.167 288.166 457.5 383.5c181.333 95.333 386 143 614 143c218 0 403.167 -51 555.5 -153s265.833 -233.333 340.5 -394s112 -327.667 112 -501
c0 -180.667 -31.667 -371.667 -95 -573s-155.833 -389.166 -277.5 -563.499s-273.834 -316 -456.501 -425s-387 -163.5 -613 -163.5c-202 0 -377 45.167 -525 135.5s-262.5 214.166 -343.5 371.499s-127.5 334 -139.5 530zM848.001 1839l-197.001 -795.001
c-24.667 -103.333 -37 -274 -37 -512c0 -159.333 58.167 -282.333 174.5 -369s261.833 -130 436.5 -130c408 0 678.333 300.333 811 901l176 786c19.333 82.667 29 231.667 29 447c0 110.667 -27 204.334 -81 281.001s-123.667 133 -209 169s-174.666 54 -267.999 54
c-188.667 0 -357.5 -67.333 -506.5 -202s-258.5 -344.667 -328.5 -630z" />
    <glyph glyph-name="afii10033" unicode="&#xcf;" horiz-adv-x="3129" 
d="M918 2634h-377l20 73h2740l-16 -73h-381l-635 -2560h377l-20 -74h-1205l21 74h377l639 2560h-1090l-639 -2560h377l-16 -74h-1205l17 74h381z" />
    <glyph glyph-name="afii10033" unicode="&#x41f;" horiz-adv-x="3129" 
d="M918 2634h-377l20 73h2740l-16 -73h-381l-635 -2560h377l-20 -74h-1205l21 74h377l639 2560h-1090l-639 -2560h377l-16 -74h-1205l17 74h381z" />
    <glyph glyph-name="afii10034" unicode="&#xd0;" horiz-adv-x="2654" 
d="M979 2634h-381l20 73h1205c255.333 0 462.5 -44.5 621.5 -133.5s238.5 -235.5 238.5 -439.5c0 -216 -69.167 -420.833 -207.5 -614.5s-448.833 -290.5 -931.5 -290.5h-471l-287 -1155h381l-20 -74h-1204l16 74h381zM1094 1303h498.999c272.667 0 443.334 131 512.001 393
l103 413c16 66 24 122 24 168c0 128.667 -37.167 218.834 -111.5 270.5c-74.333 51.667 -158.5 80.5 -252.5 86.5h-443z" />
    <glyph glyph-name="afii10034" unicode="&#x420;" horiz-adv-x="2654" 
d="M979 2634h-381l20 73h1205c255.333 0 462.5 -44.5 621.5 -133.5s238.5 -235.5 238.5 -439.5c0 -216 -69.167 -420.833 -207.5 -614.5s-448.833 -290.5 -931.5 -290.5h-471l-287 -1155h381l-20 -74h-1204l16 74h381zM1094 1303h498.999c272.667 0 443.334 131 512.001 393
l103 413c16 66 24 122 24 168c0 128.667 -37.167 218.834 -111.5 270.5c-74.333 51.667 -158.5 80.5 -252.5 86.5h-443z" />
    <glyph glyph-name="afii10035" unicode="&#xd1;" horiz-adv-x="2482" 
d="M2060 791l73.999 3.99805l-209 -795h-74c-5.33301 32.667 -17.666 57.167 -36.999 73.5s-37 24.5 -53 24.5c-68.667 0 -143.667 -16.333 -225 -49c-79.333 -29.333 -144.166 -50.333 -194.499 -63s-119.166 -19 -206.499 -19c-155.333 0 -302.5 33.167 -441.5 99.5
s-251.167 168.333 -336.5 306s-128 305.834 -128 504.501c0 222.667 34.5 445.334 103.5 668.001s166.333 424.167 292 604.5s275 323.833 448 430.5s358.833 160 557.5 160c103.333 0 177 -9 221 -27s93 -44.667 147 -80s104.667 -53 152 -53c76 0 141.667 42.333 197 127
h78l-176 -778h-70c0 146 -23.333 274.667 -70 386s-110.5 197.666 -191.5 259c-81 61.333 -169.833 92 -266.5 92c-90 0 -182.333 -21.167 -277 -63.5s-187.334 -127.333 -278.001 -255s-163.667 -308.167 -219 -541.5l-222 -934c-24.667 -111.333 -37 -200 -37 -266
c0 -229.333 56.333 -380.833 169 -454.5s230 -110.5 352 -110.5c204 0 384.667 59 542 177s283.666 309 378.999 573z" />
    <glyph glyph-name="afii10035" unicode="&#x421;" horiz-adv-x="2482" 
d="M2060 791l73.999 3.99805l-209 -795h-74c-5.33301 32.667 -17.666 57.167 -36.999 73.5s-37 24.5 -53 24.5c-68.667 0 -143.667 -16.333 -225 -49c-79.333 -29.333 -144.166 -50.333 -194.499 -63s-119.166 -19 -206.499 -19c-155.333 0 -302.5 33.167 -441.5 99.5
s-251.167 168.333 -336.5 306s-128 305.834 -128 504.501c0 222.667 34.5 445.334 103.5 668.001s166.333 424.167 292 604.5s275 323.833 448 430.5s358.833 160 557.5 160c103.333 0 177 -9 221 -27s93 -44.667 147 -80s104.667 -53 152 -53c76 0 141.667 42.333 197 127
h78l-176 -778h-70c0 146 -23.333 274.667 -70 386s-110.5 197.666 -191.5 259c-81 61.333 -169.833 92 -266.5 92c-90 0 -182.333 -21.167 -277 -63.5s-187.334 -127.333 -278.001 -255s-163.667 -308.167 -219 -541.5l-222 -934c-24.667 -111.333 -37 -200 -37 -266
c0 -229.333 56.333 -380.833 169 -454.5s230 -110.5 352 -110.5c204 0 384.667 59 542 177s283.666 309 378.999 573z" />
    <glyph glyph-name="afii10036" unicode="&#xd2;" horiz-adv-x="2474" 
d="M1343 2634h-270.001c-137.333 0 -258.666 -40.5 -363.999 -121.5s-189.5 -172.833 -252.5 -275.5s-114.167 -202.667 -153.5 -300h-74l238 770h2236l-188 -770h-82c10.667 51.333 16 113 16 185c0 91.333 -14 175.833 -42 253.5s-74.667 140.167 -140 187.5
s-149.333 71 -252 71h-225l-639 -2560h381l-21 -74h-1204l21 74h377z" />
    <glyph glyph-name="afii10036" unicode="&#x422;" horiz-adv-x="2474" 
d="M1343 2634h-270.001c-137.333 0 -258.666 -40.5 -363.999 -121.5s-189.5 -172.833 -252.5 -275.5s-114.167 -202.667 -153.5 -300h-74l238 770h2236l-188 -770h-82c10.667 51.333 16 113 16 185c0 91.333 -14 175.833 -42 253.5s-74.667 140.167 -140 187.5
s-149.333 71 -252 71h-225l-639 -2560h381l-21 -74h-1204l21 74h377z" />
    <glyph glyph-name="afii10037" unicode="&#xd3;" horiz-adv-x="2499" 
d="M1511 872l712.999 1135c50 80 85.667 149.333 107 208s32 127.334 32 206c0 66.667 -23 118.834 -69 156.5c-46 37.667 -106 56.5 -180 56.5h-50l17 73h934l-13 -73c-133.333 0 -257.333 -61.667 -372 -185c-48.667 -48.667 -90.667 -97.667 -126 -147
s-97.333 -143.666 -186 -282.999l-1040 -1663c-161.333 -259.333 -364.666 -389 -609.999 -389c-148.667 0 -261.667 41.5 -339 124.5s-116 182.167 -116 297.5c0 85.333 30.833 155.166 92.5 209.499s142.834 81.5 243.501 81.5c96 0 163.667 -28 203 -84
s59 -122.333 59 -199c0 -90 -45 -159.667 -135 -209c-50.667 -28 -79.334 -51 -86.001 -69v-41c13.333 -27.333 50 -41 110 -41c102.667 0 193.5 31.833 272.5 95.5s156.167 150.5 231.5 260.5l-745 2241h-287l16 73h1033l-13 -73h-295z" />
    <glyph glyph-name="afii10037" unicode="&#x423;" horiz-adv-x="2499" 
d="M1511 872l712.999 1135c50 80 85.667 149.333 107 208s32 127.334 32 206c0 66.667 -23 118.834 -69 156.5c-46 37.667 -106 56.5 -180 56.5h-50l17 73h934l-13 -73c-133.333 0 -257.333 -61.667 -372 -185c-48.667 -48.667 -90.667 -97.667 -126 -147
s-97.333 -143.666 -186 -282.999l-1040 -1663c-161.333 -259.333 -364.666 -389 -609.999 -389c-148.667 0 -261.667 41.5 -339 124.5s-116 182.167 -116 297.5c0 85.333 30.833 155.166 92.5 209.499s142.834 81.5 243.501 81.5c96 0 163.667 -28 203 -84
s59 -122.333 59 -199c0 -90 -45 -159.667 -135 -209c-50.667 -28 -79.334 -51 -86.001 -69v-41c13.333 -27.333 50 -41 110 -41c102.667 0 193.5 31.833 272.5 95.5s156.167 150.5 231.5 260.5l-745 2241h-287l16 73h1033l-13 -73h-295z" />
    <glyph glyph-name="afii10038" unicode="&#xd4;" horiz-adv-x="3604" 
d="M2126 459l-306.999 -0.000976562l-95 -385h377l-16 -74h-1204l16 74h381l94 385h-323c-112 0 -230.833 21.833 -356.5 65.5s-234.334 120.834 -326.001 231.501s-137.5 257.334 -137.5 440.001c0 190 44.5 374.5 133.5 553.5s227.833 326 416.5 441s422 172.5 700 172.5
h368l95 385h-406l16 74h1205l-17 -74h-348l-98 -385h270c237.333 0 420.833 -44.5 550.5 -133.5s215 -186.333 256 -292s61.5 -195.834 61.5 -270.501c0 -106 -11.667 -220.167 -35 -342.5s-77.333 -251 -162 -386s-217.667 -248.667 -399 -341s-418 -138.5 -710 -138.5z
M1839 531.999l286.999 -0.000976562c118 0 217.833 10.833 299.5 32.5s158.834 74.167 231.5 157.5c72.667 83.333 130.334 210 173.001 380l140 553c16 60.667 24 123.334 24 188.001c0 82 -15.833 156.833 -47.5 224.5s-82.667 121.667 -153 162
s-161.833 60.5 -274.5 60.5h-242zM1393 531.998l438 1758h-250c-414.667 0 -671.334 -191.333 -770.001 -574l-139 -532c-19.333 -66.667 -29 -163.667 -29 -291c0 -75.333 33.333 -154.333 100 -237s201.334 -124 404.001 -124h246z" />
    <glyph glyph-name="afii10038" unicode="&#x424;" horiz-adv-x="3604" 
d="M2126 459l-306.999 -0.000976562l-95 -385h377l-16 -74h-1204l16 74h381l94 385h-323c-112 0 -230.833 21.833 -356.5 65.5s-234.334 120.834 -326.001 231.501s-137.5 257.334 -137.5 440.001c0 190 44.5 374.5 133.5 553.5s227.833 326 416.5 441s422 172.5 700 172.5
h368l95 385h-406l16 74h1205l-17 -74h-348l-98 -385h270c237.333 0 420.833 -44.5 550.5 -133.5s215 -186.333 256 -292s61.5 -195.834 61.5 -270.501c0 -106 -11.667 -220.167 -35 -342.5s-77.333 -251 -162 -386s-217.667 -248.667 -399 -341s-418 -138.5 -710 -138.5z
M1839 531.999l286.999 -0.000976562c118 0 217.833 10.833 299.5 32.5s158.834 74.167 231.5 157.5c72.667 83.333 130.334 210 173.001 380l140 553c16 60.667 24 123.334 24 188.001c0 82 -15.833 156.833 -47.5 224.5s-82.667 121.667 -153 162
s-161.833 60.5 -274.5 60.5h-242zM1393 531.998l438 1758h-250c-414.667 0 -671.334 -191.333 -770.001 -574l-139 -532c-19.333 -66.667 -29 -163.667 -29 -291c0 -75.333 33.333 -154.333 100 -237s201.334 -124 404.001 -124h246z" />
    <glyph glyph-name="afii10039" unicode="&#xd5;" horiz-adv-x="2535" 
d="M1200 1204l-646.999 -712.001c-76.667 -86 -115 -154.333 -115 -205c0 -53.333 23.833 -101.666 71.5 -144.999s122.167 -66 223.5 -68l-16 -74h-832v74c168 45.333 332 154.333 492 327l799 873l-480 1360h-303l13 73h1056l-12 -73h-283l365 -1024l565 651
c71.333 82 107 149 107 201c0 66.667 -28.833 112 -86.5 136s-110.834 36 -159.501 36h-41l12 73h836v-73c-133.333 -18.667 -237.5 -57.667 -312.5 -117s-156.5 -140.666 -244.5 -244l-652 -733l512 -1466h328l-24 -74h-1115l21 74h319z" />
    <glyph glyph-name="afii10039" unicode="&#x425;" horiz-adv-x="2535" 
d="M1200 1204l-646.999 -712.001c-76.667 -86 -115 -154.333 -115 -205c0 -53.333 23.833 -101.666 71.5 -144.999s122.167 -66 223.5 -68l-16 -74h-832v74c168 45.333 332 154.333 492 327l799 873l-480 1360h-303l13 73h1056l-12 -73h-283l365 -1024l565 651
c71.333 82 107 149 107 201c0 66.667 -28.833 112 -86.5 136s-110.834 36 -159.501 36h-41l12 73h836v-73c-133.333 -18.667 -237.5 -57.667 -312.5 -117s-156.5 -140.666 -244.5 -244l-652 -733l512 -1466h328l-24 -74h-1115l21 74h319z" />
    <glyph glyph-name="afii10040" unicode="&#xd6;" horiz-adv-x="3129" 
d="M2265 74h410l-246 -992h-90c10.667 77.333 16 207.333 16 390c0 352 -169.333 528 -508 528h-1962l17 74h381l635 2560h-377l16 73h1204l-16 -73h-381l-635 -2560h1090l639 2560h-381l20 73h1204l-20 -73h-377z" />
    <glyph glyph-name="afii10040" unicode="&#x426;" horiz-adv-x="3129" 
d="M2265 74h410l-246 -992h-90c10.667 77.333 16 207.333 16 390c0 352 -169.333 528 -508 528h-1962l17 74h381l635 2560h-377l16 73h1204l-16 -73h-381l-635 -2560h1090l639 2560h-381l20 73h1204l-20 -73h-377z" />
    <glyph glyph-name="afii10041" unicode="&#xd7;" horiz-adv-x="2707" 
d="M1397 74l318.999 1269c-239.333 -99.333 -434.166 -169.166 -584.499 -209.499s-289.833 -60.5 -418.5 -60.5c-134 0 -240.667 32.833 -320 98.5s-119 158.5 -119 278.5c0 47.333 8.33301 103.333 25 168l254 1016h-381l21 73h1204l-21 -73h-377l-241 -967
c-8.66699 -36 -18.5 -72.5 -29.5 -109.5s-18.5 -64.5 -22.5 -82.5s-6 -36 -6 -54c0 -66.667 10.167 -118.167 30.5 -154.5s60.833 -62.5 121.5 -78.5c16.667 -2.66699 42.667 -4 78 -4c49.333 0 86 1.33301 110 4c89.333 15.333 201.833 46.5 337.5 93.5
s255.5 94.833 359.5 143.5l299 1209h-377l16 73h1204l-16 -73h-381l-635 -2560h377l-20 -74h-1205l21 74h377z" />
    <glyph glyph-name="afii10041" unicode="&#x427;" horiz-adv-x="2707" 
d="M1397 74l318.999 1269c-239.333 -99.333 -434.166 -169.166 -584.499 -209.499s-289.833 -60.5 -418.5 -60.5c-134 0 -240.667 32.833 -320 98.5s-119 158.5 -119 278.5c0 47.333 8.33301 103.333 25 168l254 1016h-381l21 73h1204l-21 -73h-377l-241 -967
c-8.66699 -36 -18.5 -72.5 -29.5 -109.5s-18.5 -64.5 -22.5 -82.5s-6 -36 -6 -54c0 -66.667 10.167 -118.167 30.5 -154.5s60.833 -62.5 121.5 -78.5c16.667 -2.66699 42.667 -4 78 -4c49.333 0 86 1.33301 110 4c89.333 15.333 201.833 46.5 337.5 93.5
s255.5 94.833 359.5 143.5l299 1209h-377l16 73h1204l-16 -73h-381l-635 -2560h377l-20 -74h-1205l21 74h377z" />
    <glyph glyph-name="afii10042" unicode="&#xd8;" horiz-adv-x="4243" 
d="M2052 74h881l639 2560h-267l21 73h1089l-20 -73h-377l-639 -2560h381l-20 -74h-3855l17 74h381l635 2560h-377l20 73h1090l-21 -73h-262l-639 -2560h877l639 2560h-263l17 73h975l-17 -73h-266z" />
    <glyph glyph-name="afii10042" unicode="&#x428;" horiz-adv-x="4243" 
d="M2052 74h881l639 2560h-267l21 73h1089l-20 -73h-377l-639 -2560h381l-20 -74h-3855l17 74h381l635 2560h-377l20 73h1090l-21 -73h-262l-639 -2560h877l639 2560h-263l17 73h975l-17 -73h-266z" />
    <glyph glyph-name="afii10043" unicode="&#xd9;" horiz-adv-x="4243" 
d="M2052 74h881l635 2560h-263l21 73h1089l-20 -73h-377l-639 -2560h406l-246 -992h-86c10.667 77.333 16 207.333 16 390c0 352 -169.333 528 -508 528h-3076l17 74h381l635 2560h-377l16 73h1090l-17 -73h-266l-635 -2560h877l639 2560h-267l21 73h975l-21 -73h-262z" />
    <glyph glyph-name="afii10043" unicode="&#x429;" horiz-adv-x="4243" 
d="M2052 74h881l635 2560h-263l21 73h1089l-20 -73h-377l-639 -2560h406l-246 -992h-86c10.667 77.333 16 207.333 16 390c0 352 -169.333 528 -508 528h-3076l17 74h381l635 2560h-377l16 73h1090l-17 -73h-266l-635 -2560h877l639 2560h-267l21 73h975l-21 -73h-262z" />
    <glyph glyph-name="afii10044" unicode="&#xda;" horiz-adv-x="2925" 
d="M1556 1540l414.002 0.000976562c232.667 0 430.834 -44.167 594.5 -132.5c163.667 -88.333 245.5 -247.5 245.5 -477.5c0 -124.667 -34.333 -258.334 -103 -401.001s-187.834 -266.5 -357.501 -371.5s-394.5 -157.5 -674.5 -157.5h-1331l21 74h376l639 2560h-323
c-222.667 0 -399.834 -65.5 -531.501 -196.5s-222.167 -281.167 -271.5 -450.5h-82l184 720h1868l-16 -73h-381zM1536 1466l-344 -1392h520c278.667 0 452 137.667 520 413l103 422c18.667 72.667 28 150.667 28 234c0 134.667 -38.5 222.167 -115.5 262.5
s-180.5 60.5 -310.5 60.5h-401z" />
    <glyph glyph-name="afii10044" unicode="&#x42a;" horiz-adv-x="2925" 
d="M1556 1540l414.002 0.000976562c232.667 0 430.834 -44.167 594.5 -132.5c163.667 -88.333 245.5 -247.5 245.5 -477.5c0 -124.667 -34.333 -258.334 -103 -401.001s-187.834 -266.5 -357.501 -371.5s-394.5 -157.5 -674.5 -157.5h-1331l21 74h376l639 2560h-323
c-222.667 0 -399.834 -65.5 -531.501 -196.5s-222.167 -281.167 -271.5 -450.5h-82l184 720h1868l-16 -73h-381zM1536 1466l-344 -1392h520c278.667 0 452 137.667 520 413l103 422c18.667 72.667 28 150.667 28 234c0 134.667 -38.5 222.167 -115.5 262.5
s-180.5 60.5 -310.5 60.5h-401z" />
    <glyph glyph-name="afii10045" unicode="&#xdb;" horiz-adv-x="3899" 
d="M1094 1540h417c326 0 547.5 -61.5 664.5 -184.5s175.5 -264.833 175.5 -425.5c0 -124 -35 -257.5 -105 -400.5s-190.333 -267 -361 -372s-395 -157.5 -673 -157.5h-1327l17 74h381l635 2560h-377l16 73h1204l-16 -73h-377zM1077 1466l-348 -1392h524
c272.667 0 444.667 137.667 516 413l107 422c19.333 66 29 144 29 234c0 138.667 -42.833 227.167 -128.5 265.5s-186.167 57.5 -301.5 57.5h-398zM3228 2634h-381l20 73h1204l-20 -73h-377l-639 -2560h381l-20 -74h-1205l21 74h377z" />
    <glyph glyph-name="afii10045" unicode="&#x42b;" horiz-adv-x="3899" 
d="M1094 1540h417c326 0 547.5 -61.5 664.5 -184.5s175.5 -264.833 175.5 -425.5c0 -124 -35 -257.5 -105 -400.5s-190.333 -267 -361 -372s-395 -157.5 -673 -157.5h-1327l17 74h381l635 2560h-377l16 73h1204l-16 -73h-377zM1077 1466l-348 -1392h524
c272.667 0 444.667 137.667 516 413l107 422c19.333 66 29 144 29 234c0 138.667 -42.833 227.167 -128.5 265.5s-186.167 57.5 -301.5 57.5h-398zM3228 2634h-381l20 73h1204l-20 -73h-377l-639 -2560h381l-20 -74h-1205l21 74h377z" />
    <glyph glyph-name="afii10046" unicode="&#xdc;" horiz-adv-x="2466" 
d="M1094 1540h417c326 0 547.5 -61.5 664.5 -184.5s175.5 -264.833 175.5 -425.5c0 -124 -35 -257.5 -105 -400.5s-190.333 -267 -361 -372s-395 -157.5 -673 -157.5h-1327l17 74h381l635 2560h-377l16 73h1204l-16 -73h-377zM1077 1466l-348 -1392h524
c272.667 0 444.667 137.667 516 413l107 422c19.333 66 29 144 29 234c0 138.667 -42.833 227.167 -128.5 265.5s-186.167 57.5 -301.5 57.5h-398z" />
    <glyph glyph-name="afii10046" unicode="&#x42c;" horiz-adv-x="2466" 
d="M1094 1540h417c326 0 547.5 -61.5 664.5 -184.5s175.5 -264.833 175.5 -425.5c0 -124 -35 -257.5 -105 -400.5s-190.333 -267 -361 -372s-395 -157.5 -673 -157.5h-1327l17 74h381l635 2560h-377l16 73h1204l-16 -73h-377zM1077 1466l-348 -1392h524
c272.667 0 444.667 137.667 516 413l107 422c19.333 66 29 144 29 234c0 138.667 -42.833 227.167 -128.5 265.5s-186.167 57.5 -301.5 57.5h-398z" />
    <glyph glyph-name="afii10047" unicode="&#xdd;" horiz-adv-x="2494" 
d="M569 1929l-69.0039 0.00195312l159 811h78c4.66699 -70.667 55.334 -106 152.001 -106c34 0 94.833 11.833 182.5 35.5s158.334 41.334 212.001 53c53.667 11.667 115.834 17.5 186.501 17.5c167.333 0 315.833 -36 445.5 -108s229.834 -171.333 300.501 -298
s106 -268.334 106 -425.001c0 -102.667 -9.5 -215.667 -28.5 -339s-50 -254 -93 -392s-99.5 -274 -169.5 -408s-153 -255.333 -249 -364c-94 -108.667 -219.833 -209 -377.5 -301s-350.167 -138 -577.5 -138c-145.333 0 -271.833 25 -379.5 75s-190 115.167 -247 195.5
s-85.5 165.166 -85.5 254.499c0 92 24.5 172.333 73.5 241s129.5 103 241.5 103c111.333 0 187.666 -31.667 228.999 -95s62 -137 62 -221c0 -46 -7.16699 -84.167 -21.5 -114.5s-32.166 -52.833 -53.499 -67.5s-45.666 -26 -72.999 -34s-47.666 -13.667 -60.999 -17
c-40.667 -12 -61 -40.667 -61 -86c0 -42.667 27.667 -80 83 -112s149 -48 281 -48c132.667 0 244 21 334 63s174.167 128.167 252.5 258.5s151.833 323.5 220.5 579.5l119 442h-975l16 78h975l82 291c41.333 137.333 62 289 62 455c0 95.333 -19.833 177.666 -59.5 247
c-39.667 69.333 -94.834 121.833 -165.501 157.5s-151.334 53.5 -242.001 53.5c-204 0 -375.167 -65.167 -513.5 -195.5s-255.5 -310.833 -351.5 -541.5z" />
    <glyph glyph-name="afii10047" unicode="&#x42d;" horiz-adv-x="2494" 
d="M569 1929l-69.0039 0.00195312l159 811h78c4.66699 -70.667 55.334 -106 152.001 -106c34 0 94.833 11.833 182.5 35.5s158.334 41.334 212.001 53c53.667 11.667 115.834 17.5 186.501 17.5c167.333 0 315.833 -36 445.5 -108s229.834 -171.333 300.501 -298
s106 -268.334 106 -425.001c0 -102.667 -9.5 -215.667 -28.5 -339s-50 -254 -93 -392s-99.5 -274 -169.5 -408s-153 -255.333 -249 -364c-94 -108.667 -219.833 -209 -377.5 -301s-350.167 -138 -577.5 -138c-145.333 0 -271.833 25 -379.5 75s-190 115.167 -247 195.5
s-85.5 165.166 -85.5 254.499c0 92 24.5 172.333 73.5 241s129.5 103 241.5 103c111.333 0 187.666 -31.667 228.999 -95s62 -137 62 -221c0 -46 -7.16699 -84.167 -21.5 -114.5s-32.166 -52.833 -53.499 -67.5s-45.666 -26 -72.999 -34s-47.666 -13.667 -60.999 -17
c-40.667 -12 -61 -40.667 -61 -86c0 -42.667 27.667 -80 83 -112s149 -48 281 -48c132.667 0 244 21 334 63s174.167 128.167 252.5 258.5s151.833 323.5 220.5 579.5l119 442h-975l16 78h975l82 291c41.333 137.333 62 289 62 455c0 95.333 -19.833 177.666 -59.5 247
c-39.667 69.333 -94.834 121.833 -165.501 157.5s-151.334 53.5 -242.001 53.5c-204 0 -375.167 -65.167 -513.5 -195.5s-255.5 -310.833 -351.5 -541.5z" />
    <glyph glyph-name="afii10048" unicode="&#xde;" horiz-adv-x="4256" 
d="M1098 1552l590.001 0.00585938c38.667 161.333 98.667 314.166 180 458.499s181.166 270.833 299.499 379.5s254.666 194.167 409 256.5c154.333 62.333 320.833 93.5 499.5 93.5c217.333 0 402.333 -50.667 555 -152s266.334 -232.333 341 -393
c74.667 -160.667 112 -328.334 112 -503.001c0 -180.667 -31.333 -370.834 -94 -570.501s-155.5 -387.334 -278.5 -563.001s-275.667 -318.167 -458 -427.5s-387.5 -164 -615.5 -164c-202 0 -379 45.333 -531 136s-268.833 215.167 -350.5 373.5
s-122.5 334.166 -122.5 527.499c0 175.333 11 333.666 33 474.999h-590l-348 -1405h377l-16 -74h-1205l17 74h381l635 2560h-377l20 73h1204l-20 -73h-377zM2253 1839.01l-197 -795c-24.667 -103.333 -37 -274 -37 -512c0 -159.333 58.167 -282.333 174.5 -369
s261.833 -130 436.5 -130c408 0 678.333 300.333 811 901l176 786c18.667 80 28 229 28 447c0 112 -27 206 -81 282s-123.333 132 -208 168s-174 54 -268 54c-188.667 0 -357.5 -67.333 -506.5 -202s-258.5 -344.667 -328.5 -630z" />
    <glyph glyph-name="afii10048" unicode="&#x42e;" horiz-adv-x="4256" 
d="M1098 1552l590.001 0.00585938c38.667 161.333 98.667 314.166 180 458.499s181.166 270.833 299.499 379.5s254.666 194.167 409 256.5c154.333 62.333 320.833 93.5 499.5 93.5c217.333 0 402.333 -50.667 555 -152s266.334 -232.333 341 -393
c74.667 -160.667 112 -328.334 112 -503.001c0 -180.667 -31.333 -370.834 -94 -570.501s-155.5 -387.334 -278.5 -563.001s-275.667 -318.167 -458 -427.5s-387.5 -164 -615.5 -164c-202 0 -379 45.333 -531 136s-268.833 215.167 -350.5 373.5
s-122.5 334.166 -122.5 527.499c0 175.333 11 333.666 33 474.999h-590l-348 -1405h377l-16 -74h-1205l17 74h381l635 2560h-377l20 73h1204l-20 -73h-377zM2253 1839.01l-197 -795c-24.667 -103.333 -37 -274 -37 -512c0 -159.333 58.167 -282.333 174.5 -369
s261.833 -130 436.5 -130c408 0 678.333 300.333 811 901l176 786c18.667 80 28 229 28 447c0 112 -27 206 -81 282s-123.333 132 -208 168s-174 54 -268 54c-188.667 0 -357.5 -67.333 -506.5 -202s-258.5 -344.667 -328.5 -630z" />
    <glyph glyph-name="afii10049" unicode="&#xdf;" horiz-adv-x="2843" 
d="M1864 1393l-389.001 -0.000976562c-86.667 0 -162 -10.667 -226 -32s-126.833 -72.5 -188.5 -153.5s-117.5 -203.5 -167.5 -367.5c-110.667 -365.333 -230 -602.166 -358 -710.499s-257.333 -162.5 -388 -162.5c-209.333 0 -334.666 95.667 -375.999 287l61 45
c11.333 -47.333 34.166 -91.333 68.499 -132s67.5 -61 99.5 -61c50 0 87 19.333 111 58s52.667 98.667 86 180l221 541c144 354 407.333 532.667 790 536v25c-195.333 36 -341 110 -437 222s-144 230.333 -144 355c0 100 29.167 202 87.5 306s162.333 193 312 267
s350.834 111 603.501 111h1385l-17 -73h-381l-635 -2560h377l-20 -74h-1204l20 74h377zM1880 1466l291 1168h-434c-158.667 0 -283.667 -27.833 -375 -83.5s-156.333 -158.834 -195 -309.5l-82 -316c-13.333 -47.333 -20 -97.666 -20 -150.999c0 -205.333 142 -308 426 -308
h389z" />
    <glyph glyph-name="afii10049" unicode="&#x42f;" horiz-adv-x="2843" 
d="M1864 1393l-389.001 -0.000976562c-86.667 0 -162 -10.667 -226 -32s-126.833 -72.5 -188.5 -153.5s-117.5 -203.5 -167.5 -367.5c-110.667 -365.333 -230 -602.166 -358 -710.499s-257.333 -162.5 -388 -162.5c-209.333 0 -334.666 95.667 -375.999 287l61 45
c11.333 -47.333 34.166 -91.333 68.499 -132s67.5 -61 99.5 -61c50 0 87 19.333 111 58s52.667 98.667 86 180l221 541c144 354 407.333 532.667 790 536v25c-195.333 36 -341 110 -437 222s-144 230.333 -144 355c0 100 29.167 202 87.5 306s162.333 193 312 267
s350.834 111 603.501 111h1385l-17 -73h-381l-635 -2560h377l-20 -74h-1204l20 74h377zM1880 1466l291 1168h-434c-158.667 0 -283.667 -27.833 -375 -83.5s-156.333 -158.834 -195 -309.5l-82 -316c-13.333 -47.333 -20 -97.666 -20 -150.999c0 -205.333 142 -308 426 -308
h389z" />
    <glyph glyph-name="afii10065" unicode="&#xe0;" horiz-adv-x="2122" 
d="M1442 1495h19.999l62 250h364l-397 -1503c-8 -42 -12 -72 -12 -90c0 -18.667 7.33301 -35.667 22 -51s34.667 -23 60 -23c35.333 0 79 26 131 78c93.333 101.333 178 232.333 254 393l61 -29c-75.333 -146 -144.333 -260 -207 -342s-125 -139.667 -187 -173
s-131.333 -50 -208 -50c-81.333 0 -145.333 25.5 -192 76.5s-70 116.833 -70 197.5v45h-17c-67.333 -106 -138.5 -185.667 -213.5 -239s-166.167 -80 -273.5 -80c-98 0 -187.167 30.5 -267.5 91.5s-143.166 143.167 -188.499 246.5s-68 216 -68 338
c0 174.667 36.167 334 108.5 478s165 267 278 369s229.333 179.5 349 232.5s225.167 79.5 316.5 79.5c157.333 0 249 -98.333 275 -295zM1237 705l119.003 438.001c0 -6 6.83301 24.5 20.5 91.5s20.5 126.5 20.5 178.5c0 101.333 -23.167 180 -69.5 236s-102.5 84 -168.5 84
c-100.667 0 -189.334 -39.833 -266.001 -119.5s-135.834 -164.5 -177.501 -254.5s-69.834 -163.333 -84.501 -220l-115 -459c-40.667 -166 -61 -289 -61 -369c0 -94.667 22.167 -168.167 66.5 -220.5s98.5 -78.5 162.5 -78.5c106 0 209.833 60.667 311.5 182
s182.167 291.666 241.5 510.999z" />
    <glyph glyph-name="afii10065" unicode="&#x430;" horiz-adv-x="2122" 
d="M1442 1495h19.999l62 250h364l-397 -1503c-8 -42 -12 -72 -12 -90c0 -18.667 7.33301 -35.667 22 -51s34.667 -23 60 -23c35.333 0 79 26 131 78c93.333 101.333 178 232.333 254 393l61 -29c-75.333 -146 -144.333 -260 -207 -342s-125 -139.667 -187 -173
s-131.333 -50 -208 -50c-81.333 0 -145.333 25.5 -192 76.5s-70 116.833 -70 197.5v45h-17c-67.333 -106 -138.5 -185.667 -213.5 -239s-166.167 -80 -273.5 -80c-98 0 -187.167 30.5 -267.5 91.5s-143.166 143.167 -188.499 246.5s-68 216 -68 338
c0 174.667 36.167 334 108.5 478s165 267 278 369s229.333 179.5 349 232.5s225.167 79.5 316.5 79.5c157.333 0 249 -98.333 275 -295zM1237 705l119.003 438.001c0 -6 6.83301 24.5 20.5 91.5s20.5 126.5 20.5 178.5c0 101.333 -23.167 180 -69.5 236s-102.5 84 -168.5 84
c-100.667 0 -189.334 -39.833 -266.001 -119.5s-135.834 -164.5 -177.501 -254.5s-69.834 -163.333 -84.501 -220l-115 -459c-40.667 -166 -61 -289 -61 -369c0 -94.667 22.167 -168.167 66.5 -220.5s98.5 -78.5 162.5 -78.5c106 0 209.833 60.667 311.5 182
s182.167 291.666 241.5 510.999z" />
    <glyph glyph-name="afii10066" unicode="&#xe1;" horiz-adv-x="2028" 
d="M2134 2798h66.0039c-22 -123.333 -63.833 -243.666 -125.5 -360.999s-160.5 -176 -296.5 -176c-120.667 0 -209.667 5.33301 -267 16c-229.333 38.667 -368.333 58 -417 58c-200 0 -361 -109.667 -483 -329s-200 -448.333 -234 -687h16
c112.667 194 246.834 321 402.501 381s300.167 90 433.5 90c129.333 0 243.166 -34 341.499 -102s173.833 -159.333 226.5 -274s79 -238 79 -370c0 -168 -50.167 -337 -150.5 -507s-233 -309.5 -398 -418.5s-338.5 -163.5 -520.5 -163.5
c-134.667 0 -254.834 36.333 -360.501 109s-187.334 171.167 -245.001 295.5s-86.5 261.166 -86.5 410.499c0 162 31.333 350.167 94 564.5s149.167 421.833 259.5 622.5s237.166 365 380.499 493s291.666 192 444.999 192c65.333 0 131 -4 197 -12
c116 -19.333 193.667 -29 233 -29c205.333 0 342 65.667 410 197zM598.004 1118l-135 -495.001c-16.667 -62.667 -25 -125.667 -25 -189c0 -127.333 30 -229.5 90 -306.5s135.333 -115.5 226 -115.5c76.667 0 150.5 12.333 221.5 37s141.167 79.5 210.5 164.5
s126 209.167 170 372.5l123 454c30 104.667 45 200.334 45 287.001c0 83.333 -14.167 155.833 -42.5 217.5s-66.833 108.5 -115.5 140.5s-102.667 48 -162 48c-292.667 0 -494.667 -205 -606 -615z" />
    <glyph glyph-name="afii10066" unicode="&#x431;" horiz-adv-x="2028" 
d="M2134 2798h66.0039c-22 -123.333 -63.833 -243.666 -125.5 -360.999s-160.5 -176 -296.5 -176c-120.667 0 -209.667 5.33301 -267 16c-229.333 38.667 -368.333 58 -417 58c-200 0 -361 -109.667 -483 -329s-200 -448.333 -234 -687h16
c112.667 194 246.834 321 402.501 381s300.167 90 433.5 90c129.333 0 243.166 -34 341.499 -102s173.833 -159.333 226.5 -274s79 -238 79 -370c0 -168 -50.167 -337 -150.5 -507s-233 -309.5 -398 -418.5s-338.5 -163.5 -520.5 -163.5
c-134.667 0 -254.834 36.333 -360.501 109s-187.334 171.167 -245.001 295.5s-86.5 261.166 -86.5 410.499c0 162 31.333 350.167 94 564.5s149.167 421.833 259.5 622.5s237.166 365 380.499 493s291.666 192 444.999 192c65.333 0 131 -4 197 -12
c116 -19.333 193.667 -29 233 -29c205.333 0 342 65.667 410 197zM598.004 1118l-135 -495.001c-16.667 -62.667 -25 -125.667 -25 -189c0 -127.333 30 -229.5 90 -306.5s135.333 -115.5 226 -115.5c76.667 0 150.5 12.333 221.5 37s141.167 79.5 210.5 164.5
s126 209.167 170 372.5l123 454c30 104.667 45 200.334 45 287.001c0 83.333 -14.167 155.833 -42.5 217.5s-66.833 108.5 -115.5 140.5s-102.667 48 -162 48c-292.667 0 -494.667 -205 -606 -615z" />
    <glyph glyph-name="afii10067" unicode="&#xe2;" horiz-adv-x="1839" 
d="M1126 991l118.999 0.000976562c113.333 0 211.333 -19.5 294 -58.5s124 -130.167 124 -273.5c0 -121.333 -45.5 -236.5 -136.5 -345.5s-210.5 -196 -358.5 -261s-301 -97.5 -459 -97.5c-123.333 0 -230 30.833 -320 92.5s-158.167 145 -204.5 250
s-69.5 221.5 -69.5 349.5c0 190.667 59 374.5 177 551.5s267.5 319.833 448.5 428.5s356.167 163 525.5 163c136 0 236.833 -32.333 302.5 -97s98.5 -137.334 98.5 -218.001c0 -83.333 -42.667 -165.333 -128 -246s-221.666 -153 -408.999 -217zM564.999 799.001l-69 -258
c-24.667 -90 -37 -170.667 -37 -242c0 -52 17.5 -112.833 52.5 -182.5s108.833 -104.5 221.5 -104.5c244.667 0 403 149 475 447l29 123c10.667 43.333 16 88.333 16 135c0 145.333 -66.667 220.333 -200 225c-38.667 0 -88 -9.66699 -148 -29zM585.999 864.001l347.998 119
l97.5 35.5c35 13 69.167 31 102.5 54s65.5 56.833 96.5 101.5s55.167 99.667 72.5 165l28 107c14 50.667 21 93 21 127c0 106.667 -54.667 160 -164 160s-213.166 -55.833 -311.499 -167.5s-172.166 -258.167 -221.499 -439.5z" />
    <glyph glyph-name="afii10067" unicode="&#x432;" horiz-adv-x="1839" 
d="M1126 991l118.999 0.000976562c113.333 0 211.333 -19.5 294 -58.5s124 -130.167 124 -273.5c0 -121.333 -45.5 -236.5 -136.5 -345.5s-210.5 -196 -358.5 -261s-301 -97.5 -459 -97.5c-123.333 0 -230 30.833 -320 92.5s-158.167 145 -204.5 250
s-69.5 221.5 -69.5 349.5c0 190.667 59 374.5 177 551.5s267.5 319.833 448.5 428.5s356.167 163 525.5 163c136 0 236.833 -32.333 302.5 -97s98.5 -137.334 98.5 -218.001c0 -83.333 -42.667 -165.333 -128 -246s-221.666 -153 -408.999 -217zM564.999 799.001l-69 -258
c-24.667 -90 -37 -170.667 -37 -242c0 -52 17.5 -112.833 52.5 -182.5s108.833 -104.5 221.5 -104.5c244.667 0 403 149 475 447l29 123c10.667 43.333 16 88.333 16 135c0 145.333 -66.667 220.333 -200 225c-38.667 0 -88 -9.66699 -148 -29zM585.999 864.001l347.998 119
l97.5 35.5c35 13 69.167 31 102.5 54s65.5 56.833 96.5 101.5s55.167 99.667 72.5 165l28 107c14 50.667 21 93 21 127c0 106.667 -54.667 160 -164 160s-213.166 -55.833 -311.499 -167.5s-172.166 -258.167 -221.499 -439.5z" />
    <glyph glyph-name="afii10068" unicode="&#xe3;" horiz-adv-x="1606" 
d="M1331 618l58.0029 -31.999c-54 -86 -123.333 -176.167 -208 -270.5s-189.334 -178 -314.001 -251s-259.334 -109.5 -404.001 -109.5c-139.333 0 -241.833 38.167 -307.5 114.5s-98.5 162.5 -98.5 258.5c0 61.333 15.833 120.166 47.5 176.499s72.667 108.833 123 157.5
s111.166 100.5 182.499 155.5l225 173.5l290.5 219.5c77.667 59 132.667 107.5 165 145.5s48.5 77.667 48.5 119c0 172 -71 258 -213 258c-104.667 0 -210.167 -41.833 -316.5 -125.5s-196.166 -179.834 -269.499 -288.501l-53 33c220.667 292 444.334 438 671.001 438
c133.333 0 246 -32.5 338 -97.5s138 -149.833 138 -254.5c0 -142 -59 -263.667 -177 -365l-704 -606c-44.667 -38 -81.167 -85.167 -109.5 -141.5s-42.5 -110.166 -42.5 -161.499c0 -30 15.667 -59.333 47 -88s78.666 -43 141.999 -43c80 0 164.5 26.833 253.5 80.5
s175.667 125 260 214s160.166 185.833 227.499 290.5z" />
    <glyph glyph-name="afii10068" unicode="&#x433;" horiz-adv-x="1606" 
d="M1331 618l58.0029 -31.999c-54 -86 -123.333 -176.167 -208 -270.5s-189.334 -178 -314.001 -251s-259.334 -109.5 -404.001 -109.5c-139.333 0 -241.833 38.167 -307.5 114.5s-98.5 162.5 -98.5 258.5c0 61.333 15.833 120.166 47.5 176.499s72.667 108.833 123 157.5
s111.166 100.5 182.499 155.5l225 173.5l290.5 219.5c77.667 59 132.667 107.5 165 145.5s48.5 77.667 48.5 119c0 172 -71 258 -213 258c-104.667 0 -210.167 -41.833 -316.5 -125.5s-196.166 -179.834 -269.499 -288.501l-53 33c220.667 292 444.334 438 671.001 438
c133.333 0 246 -32.5 338 -97.5s138 -149.833 138 -254.5c0 -142 -59 -263.667 -177 -365l-704 -606c-44.667 -38 -81.167 -85.167 -109.5 -141.5s-42.5 -110.166 -42.5 -161.499c0 -30 15.667 -59.333 47 -88s78.666 -43 141.999 -43c80 0 164.5 26.833 253.5 80.5
s175.667 125 260 214s160.166 185.833 227.499 290.5z" />
    <glyph glyph-name="afii10069" unicode="&#xe4;" horiz-adv-x="2150" 
d="M1565 1327l20.001 -0.000976562c87.333 285.333 131 505.333 131 660c0 244 -50.333 413.5 -151 508.5s-215.334 142.5 -344.001 142.5c-144 0 -267.333 -51.667 -370 -155s-200.667 -240 -294 -410l-57 41c218 409.333 496.333 614 835 614
c98.667 0 198.667 -26.667 300 -80s188.666 -152 261.999 -296s110 -339.667 110 -587c0 -242.667 -29.5 -474.667 -88.5 -696s-142 -415.166 -249 -581.499s-234.167 -296.666 -381.5 -390.999s-306.333 -141.5 -477 -141.5c-158.667 0 -290.5 42.167 -395.5 126.5
s-181.333 189 -229 314s-71.5 249.833 -71.5 374.5c0 155.333 49.5 312.666 148.5 471.999s230.333 290.5 394 393.5s333.5 154.5 509.5 154.5c260.667 0 393.334 -154.333 398.001 -463zM594.001 1122l-107.001 -413c-27.333 -112 -41 -213 -41 -303
c0 -133.333 35.167 -232.333 105.5 -297s155.5 -97 255.5 -97c104 0 192.833 29.5 266.5 88.5s131.834 130.167 174.501 213.5s76 168.333 100 255l106 398c27.333 105.333 41 225.333 41 360c0 270.667 -105 406 -315 406c-115.333 0 -227.5 -45.5 -336.5 -136.5
s-192.167 -249.167 -249.5 -474.5z" />
    <glyph glyph-name="afii10069" unicode="&#x434;" horiz-adv-x="2150" 
d="M1565 1327l20.001 -0.000976562c87.333 285.333 131 505.333 131 660c0 244 -50.333 413.5 -151 508.5s-215.334 142.5 -344.001 142.5c-144 0 -267.333 -51.667 -370 -155s-200.667 -240 -294 -410l-57 41c218 409.333 496.333 614 835 614
c98.667 0 198.667 -26.667 300 -80s188.666 -152 261.999 -296s110 -339.667 110 -587c0 -242.667 -29.5 -474.667 -88.5 -696s-142 -415.166 -249 -581.499s-234.167 -296.666 -381.5 -390.999s-306.333 -141.5 -477 -141.5c-158.667 0 -290.5 42.167 -395.5 126.5
s-181.333 189 -229 314s-71.5 249.833 -71.5 374.5c0 155.333 49.5 312.666 148.5 471.999s230.333 290.5 394 393.5s333.5 154.5 509.5 154.5c260.667 0 393.334 -154.333 398.001 -463zM594.001 1122l-107.001 -413c-27.333 -112 -41 -213 -41 -303
c0 -133.333 35.167 -232.333 105.5 -297s155.5 -97 255.5 -97c104 0 192.833 29.5 266.5 88.5s131.834 130.167 174.501 213.5s76 168.333 100 255l106 398c27.333 105.333 41 225.333 41 360c0 270.667 -105 406 -315 406c-115.333 0 -227.5 -45.5 -336.5 -136.5
s-192.167 -249.167 -249.5 -474.5z" />
    <glyph glyph-name="afii10070" unicode="&#xe5;" horiz-adv-x="1864" 
d="M508 750l-48.999 -197c-14 -48.667 -21 -103.334 -21 -164.001c0 -88 28.333 -172.833 85 -254.5s150 -122.5 280 -122.5c69.333 0 151 14.667 245 44s190.167 81.5 288.5 156.5s182.5 174.833 252.5 299.5l58 -25c-90 -121.333 -173 -219.166 -249 -293.499
s-163.5 -132.666 -262.5 -174.999s-218.167 -63.5 -357.5 -63.5c-142 0 -263 38.5 -363 115.5s-175 176 -225 297s-75 246.833 -75 377.5c0 195.333 57 373 171 533s256.167 285.333 426.5 376s334.166 136 491.499 136c105.333 0 194.5 -18 267.5 -54s128 -85.333 165 -148
s55.5 -133.334 55.5 -212.001c0 -150 -55.167 -262.667 -165.5 -338s-276.5 -136 -498.5 -182zM528.001 815l447.001 103c70 16 135 48.833 195 98.5s108.333 154.5 145 314.5l41 180c5.33301 33.333 8 55.333 8 66c0 104 -52 156 -156 156
c-116.667 0 -232.334 -50 -347.001 -150s-205 -276.667 -271 -530z" />
    <glyph glyph-name="afii10070" unicode="&#x435;" horiz-adv-x="1864" 
d="M508 750l-48.999 -197c-14 -48.667 -21 -103.334 -21 -164.001c0 -88 28.333 -172.833 85 -254.5s150 -122.5 280 -122.5c69.333 0 151 14.667 245 44s190.167 81.5 288.5 156.5s182.5 174.833 252.5 299.5l58 -25c-90 -121.333 -173 -219.166 -249 -293.499
s-163.5 -132.666 -262.5 -174.999s-218.167 -63.5 -357.5 -63.5c-142 0 -263 38.5 -363 115.5s-175 176 -225 297s-75 246.833 -75 377.5c0 195.333 57 373 171 533s256.167 285.333 426.5 376s334.166 136 491.499 136c105.333 0 194.5 -18 267.5 -54s128 -85.333 165 -148
s55.5 -133.334 55.5 -212.001c0 -150 -55.167 -262.667 -165.5 -338s-276.5 -136 -498.5 -182zM528.001 815l447.001 103c70 16 135 48.833 195 98.5s108.333 154.5 145 314.5l41 180c5.33301 33.333 8 55.333 8 66c0 104 -52 156 -156 156
c-116.667 0 -232.334 -50 -347.001 -150s-205 -276.667 -271 -530z" />
    <glyph glyph-name="afii10072" unicode="&#xe6;" horiz-adv-x="3613" 
d="M1581 922l-306.997 -4.00195c-49.333 -170.667 -120 -329.334 -212 -476.001s-198.833 -264.5 -320.5 -353.5s-245.834 -133.5 -372.501 -133.5c-104 0 -184 33 -240 99s-84 142.333 -84 229c0 78.667 22.667 143.334 68 194.001s103.333 76 174 76
c79.333 0 137.333 -25 174 -75s55 -108.333 55 -175c0 -26.667 -3.66699 -49.167 -11 -67.5s-16.833 -32.333 -28.5 -42s-24.334 -17.667 -38.001 -24l-37.5 -17.5c-14.667 -7.33301 -28.5 -20 -41.5 -38s-19.5 -34 -19.5 -48c0 -10.667 7.66699 -21 23 -31
s32.333 -15 51 -15c61.333 0 113.666 24.667 156.999 74s77.166 105.666 101.499 168.999s48.5 138 72.5 224l168 623c14.667 49.333 28 113.333 40 192s18 147 18 205c0 75.333 -22.667 131.833 -68 169.5s-91 56.5 -137 56.5c-142.667 0 -318.667 -169.333 -528 -508
l-45 37c84 129.333 150.333 226.333 199 291s109.334 120.334 182.001 167.001s157 70 253 70c100 0 186.333 -30.167 259 -90.5s127.667 -142.5 165 -246.5s56 -217 56 -339c0 -28.667 -5.66699 -75 -17 -139l307 4l205 766h340l-205 -766l299 8
c52.667 166 130.667 310 234 432s215 214.333 335 277s231 94 333 94c83.333 0 153 -17.333 209 -52s97.167 -78.5 123.5 -131.5s39.5 -106.5 39.5 -160.5c0 -64.667 -25.5 -117.667 -76.5 -159s-108.833 -62 -173.5 -62c-65.333 0 -117.166 20.5 -155.5 61.5
c-38.333 41 -57.5 88.833 -57.5 143.5c0 60.667 22 108.334 66 143.001l33.5 24c11 8 20.5 17.333 28.5 28s12 23.334 12 38.001c0 18 -9 33.5 -27 46.5s-43.333 19.5 -76 19.5c-82.667 0 -155.334 -43.833 -218 -131.5c-62.667 -87.667 -109.334 -175 -140 -262
c-30.667 -87 -57.334 -173.167 -80 -258.5l-135 -504c-19.333 -66.667 -29 -171.667 -29 -315c0 -90 25.667 -153.5 77 -190.5s109 -55.5 173 -55.5c77.333 0 157.833 30 241.5 90s160.334 130.833 230 212.5c69.667 81.667 130.834 162.5 183.5 242.5l45 -33
c-54.667 -88.667 -117.5 -175 -188.5 -259s-153.333 -156.667 -247 -218s-191.5 -92 -293.5 -92c-93.333 0 -180.666 28.833 -262 86.5c-81.333 57.667 -146 135.167 -194 232.5s-72 201.333 -72 312c0 132 13.667 246.667 41 344l-295 -8l-242 -922h-340z" />
    <glyph glyph-name="afii10072" unicode="&#x436;" horiz-adv-x="3613" 
d="M1581 922l-306.997 -4.00195c-49.333 -170.667 -120 -329.334 -212 -476.001s-198.833 -264.5 -320.5 -353.5s-245.834 -133.5 -372.501 -133.5c-104 0 -184 33 -240 99s-84 142.333 -84 229c0 78.667 22.667 143.334 68 194.001s103.333 76 174 76
c79.333 0 137.333 -25 174 -75s55 -108.333 55 -175c0 -26.667 -3.66699 -49.167 -11 -67.5s-16.833 -32.333 -28.5 -42s-24.334 -17.667 -38.001 -24l-37.5 -17.5c-14.667 -7.33301 -28.5 -20 -41.5 -38s-19.5 -34 -19.5 -48c0 -10.667 7.66699 -21 23 -31
s32.333 -15 51 -15c61.333 0 113.666 24.667 156.999 74s77.166 105.666 101.499 168.999s48.5 138 72.5 224l168 623c14.667 49.333 28 113.333 40 192s18 147 18 205c0 75.333 -22.667 131.833 -68 169.5s-91 56.5 -137 56.5c-142.667 0 -318.667 -169.333 -528 -508
l-45 37c84 129.333 150.333 226.333 199 291s109.334 120.334 182.001 167.001s157 70 253 70c100 0 186.333 -30.167 259 -90.5s127.667 -142.5 165 -246.5s56 -217 56 -339c0 -28.667 -5.66699 -75 -17 -139l307 4l205 766h340l-205 -766l299 8
c52.667 166 130.667 310 234 432s215 214.333 335 277s231 94 333 94c83.333 0 153 -17.333 209 -52s97.167 -78.5 123.5 -131.5s39.5 -106.5 39.5 -160.5c0 -64.667 -25.5 -117.667 -76.5 -159s-108.833 -62 -173.5 -62c-65.333 0 -117.166 20.5 -155.5 61.5
c-38.333 41 -57.5 88.833 -57.5 143.5c0 60.667 22 108.334 66 143.001l33.5 24c11 8 20.5 17.333 28.5 28s12 23.334 12 38.001c0 18 -9 33.5 -27 46.5s-43.333 19.5 -76 19.5c-82.667 0 -155.334 -43.833 -218 -131.5c-62.667 -87.667 -109.334 -175 -140 -262
c-30.667 -87 -57.334 -173.167 -80 -258.5l-135 -504c-19.333 -66.667 -29 -171.667 -29 -315c0 -90 25.667 -153.5 77 -190.5s109 -55.5 173 -55.5c77.333 0 157.833 30 241.5 90s160.334 130.833 230 212.5c69.667 81.667 130.834 162.5 183.5 242.5l45 -33
c-54.667 -88.667 -117.5 -175 -188.5 -259s-153.333 -156.667 -247 -218s-191.5 -92 -293.5 -92c-93.333 0 -180.666 28.833 -262 86.5c-81.333 57.667 -146 135.167 -194 232.5s-72 201.333 -72 312c0 132 13.667 246.667 41 344l-295 -8l-242 -922h-340z" />
    <glyph glyph-name="afii10073" unicode="&#xe7;" horiz-adv-x="1741" 
d="M389 1221l-61 -0.000976562l143 569h66c28 -57.333 77 -86 147 -86c68 0 111.667 3.33301 131 10s34.833 17.334 46.5 32.001s34.834 25.667 69.501 33s101 11 199 11c162.667 0 281.167 -33.833 355.5 -101.5s111.5 -147.167 111.5 -238.5
c0 -82 -25.5 -155.5 -76.5 -220.5s-121 -117.5 -210 -157.5s-188.5 -65.667 -298.5 -77l-4 -24c85.333 -3.33301 164.166 -19.666 236.499 -48.999s131.5 -74.333 177.5 -135s69 -136 69 -226c0 -110 -39.667 -211.5 -119 -304.5s-183.833 -166.5 -313.5 -220.5
s-266.834 -81 -411.501 -81c-142 0 -257 24.167 -345 72.5s-150.833 107 -188.5 176s-56.5 136.5 -56.5 202.5c0 84 30.333 148.667 91 194s130 68 208 68c60 0 109.167 -22 147.5 -66s57.5 -102.667 57.5 -176c0 -104.667 -42.333 -173 -127 -205
c-54.667 -20 -82 -44.667 -82 -74c0 -30 17.333 -60 52 -90s103.334 -45 206.001 -45c210 0 348 125.667 414 377l49 189c11.333 45.333 17 83.333 17 114c0 69.333 -20.167 127.833 -60.5 175.5s-96.833 76.5 -169.5 86.5c-13.333 2.66699 -35 4 -65 4l-226 -8l17 58l237 8
c58 1.33301 106.5 6.66602 145.5 15.999s77.333 34.333 115 75s68.5 104.334 92.5 191.001l45 164c8 24.667 12 78 12 160c0 27.333 -12.167 52.666 -36.5 75.999s-61.5 35 -111.5 35c-250.667 0 -482.667 -170.667 -696 -512z" />
    <glyph glyph-name="afii10073" unicode="&#x437;" horiz-adv-x="1741" 
d="M389 1221l-61 -0.000976562l143 569h66c28 -57.333 77 -86 147 -86c68 0 111.667 3.33301 131 10s34.833 17.334 46.5 32.001s34.834 25.667 69.501 33s101 11 199 11c162.667 0 281.167 -33.833 355.5 -101.5s111.5 -147.167 111.5 -238.5
c0 -82 -25.5 -155.5 -76.5 -220.5s-121 -117.5 -210 -157.5s-188.5 -65.667 -298.5 -77l-4 -24c85.333 -3.33301 164.166 -19.666 236.499 -48.999s131.5 -74.333 177.5 -135s69 -136 69 -226c0 -110 -39.667 -211.5 -119 -304.5s-183.833 -166.5 -313.5 -220.5
s-266.834 -81 -411.501 -81c-142 0 -257 24.167 -345 72.5s-150.833 107 -188.5 176s-56.5 136.5 -56.5 202.5c0 84 30.333 148.667 91 194s130 68 208 68c60 0 109.167 -22 147.5 -66s57.5 -102.667 57.5 -176c0 -104.667 -42.333 -173 -127 -205
c-54.667 -20 -82 -44.667 -82 -74c0 -30 17.333 -60 52 -90s103.334 -45 206.001 -45c210 0 348 125.667 414 377l49 189c11.333 45.333 17 83.333 17 114c0 69.333 -20.167 127.833 -60.5 175.5s-96.833 76.5 -169.5 86.5c-13.333 2.66699 -35 4 -65 4l-226 -8l17 58l237 8
c58 1.33301 106.5 6.66602 145.5 15.999s77.333 34.333 115 75s68.5 104.334 92.5 191.001l45 164c8 24.667 12 78 12 160c0 27.333 -12.167 52.666 -36.5 75.999s-61.5 35 -111.5 35c-250.667 0 -482.667 -170.667 -696 -512z" />
    <glyph glyph-name="afii10074" unicode="&#xe8;" horiz-adv-x="2191" 
d="M1962 1745l-397 -1503c-8.66699 -36.667 -13 -66.667 -13 -90c0 -49.333 27.333 -74 82 -74c73.333 0 171.666 102.333 294.999 307c50 86.667 80 141.334 90 164.001l58 -29c-72 -158.667 -144.333 -280 -217 -364s-139.167 -138.5 -199.5 -163.5
s-120.833 -37.5 -181.5 -37.5c-80.667 0 -144.5 25.833 -191.5 77.5s-70.5 117.167 -70.5 196.5c0 33.333 15 115.333 45 246l16 70h-12c-102 -159.333 -233 -297.5 -393 -414.5s-306.333 -175.5 -439 -175.5c-92.667 0 -163 19.5 -211 58.5s-78.667 85.333 -92 139
s-20 113.5 -20 179.5c0 58 12 129 36 213l304 1143h-394l17 57h741l-336 -1307c-13.333 -57.333 -20 -121.333 -20 -192c0 -29.333 11.167 -60.666 33.5 -93.999s61.5 -50 117.5 -50c72.667 0 154.834 32.667 246.501 98s180.5 149.5 266.5 252.5s156.667 207.5 212 313.5
l258 979h369z" />
    <glyph glyph-name="afii10074" unicode="&#x438;" horiz-adv-x="2191" 
d="M1962 1745l-397 -1503c-8.66699 -36.667 -13 -66.667 -13 -90c0 -49.333 27.333 -74 82 -74c73.333 0 171.666 102.333 294.999 307c50 86.667 80 141.334 90 164.001l58 -29c-72 -158.667 -144.333 -280 -217 -364s-139.167 -138.5 -199.5 -163.5
s-120.833 -37.5 -181.5 -37.5c-80.667 0 -144.5 25.833 -191.5 77.5s-70.5 117.167 -70.5 196.5c0 33.333 15 115.333 45 246l16 70h-12c-102 -159.333 -233 -297.5 -393 -414.5s-306.333 -175.5 -439 -175.5c-92.667 0 -163 19.5 -211 58.5s-78.667 85.333 -92 139
s-20 113.5 -20 179.5c0 58 12 129 36 213l304 1143h-394l17 57h741l-336 -1307c-13.333 -57.333 -20 -121.333 -20 -192c0 -29.333 11.167 -60.666 33.5 -93.999s61.5 -50 117.5 -50c72.667 0 154.834 32.667 246.501 98s180.5 149.5 266.5 252.5s156.667 207.5 212 313.5
l258 979h369z" />
    <glyph glyph-name="afii10075" unicode="&#xe9;" horiz-adv-x="2191" 
d="M1958 1745l-397 -1503c-8.66699 -36.667 -13 -66.667 -13 -90c0 -18.667 7.33301 -35.667 22 -51s34.667 -23 60 -23c32.667 0 61.334 11 86.001 33c69.333 56.667 170.333 202.667 303 438l58 -29c-74 -143.333 -142.833 -256.666 -206.5 -339.999
s-126.334 -141.666 -188.001 -174.999s-130.834 -50 -207.501 -50c-82 0 -146.333 25.5 -193 76.5s-70 116.833 -70 197.5c0 72 15 154 45 246l21 70h-12c-114 -164.667 -247.333 -304.167 -400 -418.5s-296.667 -171.5 -432 -171.5c-218.667 0 -328 125.667 -328 377
c0 40 12.333 111 37 213l303 1143h-389l13 57h745l-336 -1307c-13.333 -57.333 -20 -121.333 -20 -192c0 -29.333 11.167 -60.666 33.5 -93.999s61.5 -50 117.5 -50c72.667 0 154.834 32.667 246.501 98s180.5 149.5 266.5 252.5s156.667 207.5 212 313.5l258 979h365z
M1901 2605l41 -48.999c-114 -126 -243.5 -241.5 -388.5 -346.5s-287.5 -157.5 -427.5 -157.5c-102.667 0 -189.667 30.167 -261 90.5s-107 138.166 -107 233.5c0 78 25.5 139.167 76.5 183.5s112.833 66.5 185.5 66.5c74 0 131.333 -22.667 172 -68s61 -98 61 -158
c0 -72.667 -21.667 -123 -65 -151c-7.33301 -4.66699 -22.5 -10.834 -45.5 -18.5c-23 -7.66699 -39.667 -14.834 -50 -21.501s-15.5 -18 -15.5 -34c0 -38 26 -57 78 -57c84.667 0 197.667 44.833 339 134.5s277 207.167 407 352.5z" />
    <glyph glyph-name="afii10075" unicode="&#x439;" horiz-adv-x="2191" 
d="M1958 1745l-397 -1503c-8.66699 -36.667 -13 -66.667 -13 -90c0 -18.667 7.33301 -35.667 22 -51s34.667 -23 60 -23c32.667 0 61.334 11 86.001 33c69.333 56.667 170.333 202.667 303 438l58 -29c-74 -143.333 -142.833 -256.666 -206.5 -339.999
s-126.334 -141.666 -188.001 -174.999s-130.834 -50 -207.501 -50c-82 0 -146.333 25.5 -193 76.5s-70 116.833 -70 197.5c0 72 15 154 45 246l21 70h-12c-114 -164.667 -247.333 -304.167 -400 -418.5s-296.667 -171.5 -432 -171.5c-218.667 0 -328 125.667 -328 377
c0 40 12.333 111 37 213l303 1143h-389l13 57h745l-336 -1307c-13.333 -57.333 -20 -121.333 -20 -192c0 -29.333 11.167 -60.666 33.5 -93.999s61.5 -50 117.5 -50c72.667 0 154.834 32.667 246.501 98s180.5 149.5 266.5 252.5s156.667 207.5 212 313.5l258 979h365z
M1901 2605l41 -48.999c-114 -126 -243.5 -241.5 -388.5 -346.5s-287.5 -157.5 -427.5 -157.5c-102.667 0 -189.667 30.167 -261 90.5s-107 138.166 -107 233.5c0 78 25.5 139.167 76.5 183.5s112.833 66.5 185.5 66.5c74 0 131.333 -22.667 172 -68s61 -98 61 -158
c0 -72.667 -21.667 -123 -65 -151c-7.33301 -4.66699 -22.5 -10.834 -45.5 -18.5c-23 -7.66699 -39.667 -14.834 -50 -21.501s-15.5 -18 -15.5 -34c0 -38 26 -57 78 -57c84.667 0 197.667 44.833 339 134.5s277 207.167 407 352.5z" />
    <glyph glyph-name="afii10076" unicode="&#xea;" horiz-adv-x="2077" 
d="M872 1745l-196 -758.004c30.667 19.333 71.667 29 123 29c6 0 37.667 -1.33301 95 -4s91 -4 101 -4c60.667 2.66699 108 12 142 28s59.333 38.333 76 67s30.334 68.334 41.001 119.001l28 134c33.333 148.667 78.5 258.167 135.5 328.5s138.833 105.5 245.5 105.5
c101.333 0 176.5 -27.167 225.5 -81.5s73.5 -118.5 73.5 -192.5c0 -71.333 -21.5 -129.5 -64.5 -174.5s-96.5 -67.5 -160.5 -67.5c-66 0 -118.667 19.333 -158 58s-59 86.334 -59 143.001c0 20.667 3.5 37.834 10.5 51.501s16.5 27.334 28.5 41.001s19.333 23.5 22 29.5
c2.66699 16.667 4 41.334 4 74.001c0 11.333 -20.333 17 -61 17c-69.333 0 -131 -116.333 -185 -349c-28 -116 -54.333 -201.167 -79 -255.5s-73.334 -87.833 -146.001 -100.5v-16c131.333 -22.667 225.5 -61.834 282.5 -117.501s89.833 -129.834 98.5 -222.501v-127
c-2 -26 -17 -113.333 -45 -262c-0.666992 -5.33301 -2 -12.5 -4 -21.5s-3.83301 -18 -5.5 -27s-2.5 -16.167 -2.5 -21.5c0 -60 12.333 -90 37 -90c53.333 0 119.166 46.333 197.499 139s147.5 200.667 207.5 324l57 -21c-60 -137.333 -141.667 -265.833 -245 -385.5
s-223.666 -179.5 -360.999 -179.5c-108.667 0 -180.167 34.833 -214.5 104.5s-51.5 165.834 -51.5 288.501c0 23.333 2.33301 45.833 7 67.5s11.334 47.5 20.001 77.5s14.667 52.667 18 68c8 31.333 13.167 52 15.5 62l11.5 48.5l14 57.5c10.667 26 16 52 16 78
c0 44.667 -17.333 79.667 -52 105s-74.667 38 -120 38c-37.333 0 -64.833 -7.5 -82.5 -22.5s-63.834 -22.5 -138.501 -22.5c-54 0 -90.667 8.33301 -110 25l-242 -930h-365l447 1688h-393l16 57h745z" />
    <glyph glyph-name="afii10076" unicode="&#x43a;" horiz-adv-x="2077" 
d="M872 1745l-196 -758.004c30.667 19.333 71.667 29 123 29c6 0 37.667 -1.33301 95 -4s91 -4 101 -4c60.667 2.66699 108 12 142 28s59.333 38.333 76 67s30.334 68.334 41.001 119.001l28 134c33.333 148.667 78.5 258.167 135.5 328.5s138.833 105.5 245.5 105.5
c101.333 0 176.5 -27.167 225.5 -81.5s73.5 -118.5 73.5 -192.5c0 -71.333 -21.5 -129.5 -64.5 -174.5s-96.5 -67.5 -160.5 -67.5c-66 0 -118.667 19.333 -158 58s-59 86.334 -59 143.001c0 20.667 3.5 37.834 10.5 51.501s16.5 27.334 28.5 41.001s19.333 23.5 22 29.5
c2.66699 16.667 4 41.334 4 74.001c0 11.333 -20.333 17 -61 17c-69.333 0 -131 -116.333 -185 -349c-28 -116 -54.333 -201.167 -79 -255.5s-73.334 -87.833 -146.001 -100.5v-16c131.333 -22.667 225.5 -61.834 282.5 -117.501s89.833 -129.834 98.5 -222.501v-127
c-2 -26 -17 -113.333 -45 -262c-0.666992 -5.33301 -2 -12.5 -4 -21.5s-3.83301 -18 -5.5 -27s-2.5 -16.167 -2.5 -21.5c0 -60 12.333 -90 37 -90c53.333 0 119.166 46.333 197.499 139s147.5 200.667 207.5 324l57 -21c-60 -137.333 -141.667 -265.833 -245 -385.5
s-223.666 -179.5 -360.999 -179.5c-108.667 0 -180.167 34.833 -214.5 104.5s-51.5 165.834 -51.5 288.501c0 23.333 2.33301 45.833 7 67.5s11.334 47.5 20.001 77.5s14.667 52.667 18 68c8 31.333 13.167 52 15.5 62l11.5 48.5l14 57.5c10.667 26 16 52 16 78
c0 44.667 -17.333 79.667 -52 105s-74.667 38 -120 38c-37.333 0 -64.833 -7.5 -82.5 -22.5s-63.834 -22.5 -138.501 -22.5c-54 0 -90.667 8.33301 -110 25l-242 -930h-365l447 1688h-393l16 57h745z" />
    <glyph glyph-name="afii10077" unicode="&#xeb;" horiz-adv-x="2097" 
d="M1487 1688l-160 -0.00195312c-85.333 0 -147.666 -9.16699 -186.999 -27.5s-73.833 -56.666 -103.5 -114.999s-88.834 -213.666 -177.501 -465.999l-159 -448.5c-67.333 -184 -123.666 -322.167 -168.999 -414.5s-96.166 -159 -152.499 -200
s-129.166 -61.5 -218.499 -61.5c-101.333 0 -172.5 28.333 -213.5 85s-61.5 117 -61.5 181c0 74 21.833 135.5 65.5 184.5s102.5 73.5 176.5 73.5c66 0 118 -19.5 156 -58.5s57 -87.833 57 -146.5c0 -78 -27.333 -127 -82 -147c-6.66699 -2.66699 -16.834 -6 -30.501 -10
s-24.334 -9.83301 -32.001 -17.5s-11.5 -18.834 -11.5 -33.501c0 -36 20.667 -54 62 -54c57.333 0 110.666 36.333 159.999 109s93.833 160 133.5 262l185.5 502c122.667 337.333 184 546 184 626c0 118 -65.333 177 -196 177h-82l12 57h1225l-398 -1503
c-8 -34 -12 -64 -12 -90c0 -49.333 27.333 -74 82 -74c32 0 59.5 10.333 82.5 31s51.5 51.334 85.5 92.001c96 120.667 168.333 236.667 217 348l57 -29c-73.333 -161.333 -146 -283.333 -218 -366s-138 -136.5 -198 -161.5s-120.667 -37.5 -182 -37.5
c-80.667 0 -144.5 25.833 -191.5 77.5s-70.5 117.167 -70.5 196.5c0 54.667 15 136.667 45 246z" />
    <glyph glyph-name="afii10077" unicode="&#x43b;" horiz-adv-x="2097" 
d="M1487 1688l-160 -0.00195312c-85.333 0 -147.666 -9.16699 -186.999 -27.5s-73.833 -56.666 -103.5 -114.999s-88.834 -213.666 -177.501 -465.999l-159 -448.5c-67.333 -184 -123.666 -322.167 -168.999 -414.5s-96.166 -159 -152.499 -200
s-129.166 -61.5 -218.499 -61.5c-101.333 0 -172.5 28.333 -213.5 85s-61.5 117 -61.5 181c0 74 21.833 135.5 65.5 184.5s102.5 73.5 176.5 73.5c66 0 118 -19.5 156 -58.5s57 -87.833 57 -146.5c0 -78 -27.333 -127 -82 -147c-6.66699 -2.66699 -16.834 -6 -30.501 -10
s-24.334 -9.83301 -32.001 -17.5s-11.5 -18.834 -11.5 -33.501c0 -36 20.667 -54 62 -54c57.333 0 110.666 36.333 159.999 109s93.833 160 133.5 262l185.5 502c122.667 337.333 184 546 184 626c0 118 -65.333 177 -196 177h-82l12 57h1225l-398 -1503
c-8 -34 -12 -64 -12 -90c0 -49.333 27.333 -74 82 -74c32 0 59.5 10.333 82.5 31s51.5 51.334 85.5 92.001c96 120.667 168.333 236.667 217 348l57 -29c-73.333 -161.333 -146 -283.333 -218 -366s-138 -136.5 -198 -161.5s-120.667 -37.5 -182 -37.5
c-80.667 0 -144.5 25.833 -191.5 77.5s-70.5 117.167 -70.5 196.5c0 54.667 15 136.667 45 246z" />
    <glyph glyph-name="afii10078" unicode="&#xec;" horiz-adv-x="2884" 
d="M1405 471l860.002 1274h385l-393 -1503c-8 -34 -12 -64 -12 -90c0 -49.333 27.333 -74 82 -74c72.667 0 170.667 102.333 294 307c52 89.333 82.333 144 91 164l57 -29c-58.667 -134.667 -142.834 -262.5 -252.5 -383.5c-109.667 -121 -224.834 -181.5 -345.501 -181.5
c-80.667 0 -144.5 24.833 -191.5 74.5s-70.5 116.167 -70.5 199.5c0 52.667 15 134.667 45 246l299 1135l-1090 -1655h-37l-94 1638l-414 -1134l-56 -147c-26 -68 -55.833 -127.667 -89.5 -179s-75.834 -93.833 -126.501 -127.5s-111.334 -50.5 -182.001 -50.5
c-95.333 0 -165.666 28.333 -210.999 85s-68 117 -68 181c0 78.667 23.667 142 71 190s104.333 72 171 72s118.834 -22.5 156.501 -67.5s56.5 -102.833 56.5 -173.5c0 -52.667 -28.667 -91 -86 -115c-7.33301 -2.66699 -18.333 -5.5 -33 -8.5s-25.834 -7.5 -33.501 -13.5
s-11.5 -16.333 -11.5 -31c0 -32.667 24.667 -49 74 -49c58 0 108 29.333 150 88s97 182 165 370l353 971c13.333 42 20 73.333 20 94c0 87.333 -64.333 131 -193 131h-53l17 66h618z" />
    <glyph glyph-name="afii10078" unicode="&#x43c;" horiz-adv-x="2884" 
d="M1405 471l860.002 1274h385l-393 -1503c-8 -34 -12 -64 -12 -90c0 -49.333 27.333 -74 82 -74c72.667 0 170.667 102.333 294 307c52 89.333 82.333 144 91 164l57 -29c-58.667 -134.667 -142.834 -262.5 -252.5 -383.5c-109.667 -121 -224.834 -181.5 -345.501 -181.5
c-80.667 0 -144.5 24.833 -191.5 74.5s-70.5 116.167 -70.5 199.5c0 52.667 15 134.667 45 246l299 1135l-1090 -1655h-37l-94 1638l-414 -1134l-56 -147c-26 -68 -55.833 -127.667 -89.5 -179s-75.834 -93.833 -126.501 -127.5s-111.334 -50.5 -182.001 -50.5
c-95.333 0 -165.666 28.333 -210.999 85s-68 117 -68 181c0 78.667 23.667 142 71 190s104.333 72 171 72s118.834 -22.5 156.501 -67.5s56.5 -102.833 56.5 -173.5c0 -52.667 -28.667 -91 -86 -115c-7.33301 -2.66699 -18.333 -5.5 -33 -8.5s-25.834 -7.5 -33.501 -13.5
s-11.5 -16.333 -11.5 -31c0 -32.667 24.667 -49 74 -49c58 0 108 29.333 150 88s97 182 165 370l353 971c13.333 42 20 73.333 20 94c0 87.333 -64.333 131 -193 131h-53l17 66h618z" />
    <glyph glyph-name="afii10079" unicode="&#xed;" 
d="M664 942h704l213 803h369l-402 -1503c-8 -42 -12 -72 -12 -90c0 -18.667 7.33301 -35.667 22 -51s34.667 -23 60 -23c32 0 60.667 11 86 33c69.333 56.667 170.333 202.667 303 438l57 -29c-75.333 -146 -144.333 -260 -207 -342s-125 -139.667 -187 -173
s-131.333 -50 -208 -50c-81.333 0 -145.333 25.5 -192 76.5s-70 116.833 -70 197.5c0 34.667 15 116.667 45 246l107 410h-701l-229 -885h-365l447 1688h-393l16 57h745z" />
    <glyph glyph-name="afii10079" unicode="&#x43d;" 
d="M664 942h704l213 803h369l-402 -1503c-8 -42 -12 -72 -12 -90c0 -18.667 7.33301 -35.667 22 -51s34.667 -23 60 -23c32 0 60.667 11 86 33c69.333 56.667 170.333 202.667 303 438l57 -29c-75.333 -146 -144.333 -260 -207 -342s-125 -139.667 -187 -173
s-131.333 -50 -208 -50c-81.333 0 -145.333 25.5 -192 76.5s-70 116.833 -70 197.5c0 34.667 15 116.667 45 246l107 410h-701l-229 -885h-365l447 1688h-393l16 57h745z" />
    <glyph glyph-name="afii10080" unicode="&#xee;" horiz-adv-x="2077" 
d="M115 770c0 136.667 33.502 267.667 100.502 393s156.5 235 268.5 329s235.667 167.167 371 219.5s268 78.5 398 78.5c133.333 0 249.333 -34.333 348 -103s174 -160.667 226 -276s78 -240.333 78 -375c0 -166.667 -49.667 -334.5 -149 -503.5
s-231.833 -307.5 -397.5 -415.5s-339.834 -162 -522.501 -162c-142.667 0 -268.834 36.5 -378.501 109.5s-194.167 172 -253.5 297s-89 261.167 -89 408.5zM631.002 1155l-144.001 -532c-16 -60 -24 -123 -24 -189c0 -136 34.333 -240.333 103 -313s158.667 -109 270 -109
c128 0 238.167 47.167 330.5 141.5s156.833 208.5 193.5 342.5l160 589c18.667 72 28 159.667 28 263c0 118.667 -28.167 212.5 -84.5 281.5s-130.5 103.5 -222.5 103.5c-108.667 0 -205.667 -31.5 -291 -94.5s-154.166 -138.667 -206.499 -227
s-89.833 -173.833 -112.5 -256.5z" />
    <glyph glyph-name="afii10080" unicode="&#x43e;" horiz-adv-x="2077" 
d="M115 770c0 136.667 33.502 267.667 100.502 393s156.5 235 268.5 329s235.667 167.167 371 219.5s268 78.5 398 78.5c133.333 0 249.333 -34.333 348 -103s174 -160.667 226 -276s78 -240.333 78 -375c0 -166.667 -49.667 -334.5 -149 -503.5
s-231.833 -307.5 -397.5 -415.5s-339.834 -162 -522.501 -162c-142.667 0 -268.834 36.5 -378.501 109.5s-194.167 172 -253.5 297s-89 261.167 -89 408.5zM631.002 1155l-144.001 -532c-16 -60 -24 -123 -24 -189c0 -136 34.333 -240.333 103 -313s158.667 -109 270 -109
c128 0 238.167 47.167 330.5 141.5s156.833 208.5 193.5 342.5l160 589c18.667 72 28 159.667 28 263c0 118.667 -28.167 212.5 -84.5 281.5s-130.5 103.5 -222.5 103.5c-108.667 0 -205.667 -31.5 -291 -94.5s-154.166 -138.667 -206.499 -227
s-89.833 -173.833 -112.5 -256.5z" />
    <glyph glyph-name="afii10081" unicode="&#xef;" horiz-adv-x="2220" 
d="M733 1200l12.001 0.000976562c144.667 192.667 291.167 339.167 439.5 439.5s285.833 150.5 412.5 150.5c81.333 0 154.333 -25 219 -75s97 -135.667 97 -257c0 -78.667 -13.667 -164.667 -41 -258l-283 -958c-8 -26 -12 -56 -12 -90c0 -18.667 7.33301 -35.667 22 -51
s34.667 -23 60 -23c35.333 0 79 26 131 78c93.333 101.333 178 232.333 254 393l61 -29c-75.333 -146 -144.333 -260 -207 -342s-125 -139.667 -187 -173s-131.333 -50 -208 -50c-81.333 0 -145.333 25.5 -192 76.5s-70 116.833 -70 197.5c0 72 15 154 45 246l246 832
c13.333 40.667 21.333 81.667 24 123v65c-4.66699 39.333 -19.834 73.666 -45.501 102.999s-62.167 44 -109.5 44c-98.667 0 -212 -57.333 -340 -172c-142.667 -126 -271 -289.667 -385 -491l-254 -979h-365l447 1688h-393l16 57h745z" />
    <glyph glyph-name="afii10081" unicode="&#x43f;" horiz-adv-x="2220" 
d="M733 1200l12.001 0.000976562c144.667 192.667 291.167 339.167 439.5 439.5s285.833 150.5 412.5 150.5c81.333 0 154.333 -25 219 -75s97 -135.667 97 -257c0 -78.667 -13.667 -164.667 -41 -258l-283 -958c-8 -26 -12 -56 -12 -90c0 -18.667 7.33301 -35.667 22 -51
s34.667 -23 60 -23c35.333 0 79 26 131 78c93.333 101.333 178 232.333 254 393l61 -29c-75.333 -146 -144.333 -260 -207 -342s-125 -139.667 -187 -173s-131.333 -50 -208 -50c-81.333 0 -145.333 25.5 -192 76.5s-70 116.833 -70 197.5c0 72 15 154 45 246l246 832
c13.333 40.667 21.333 81.667 24 123v65c-4.66699 39.333 -19.834 73.666 -45.501 102.999s-62.167 44 -109.5 44c-98.667 0 -212 -57.333 -340 -172c-142.667 -126 -271 -289.667 -385 -491l-254 -979h-365l447 1688h-393l16 57h745z" />
    <glyph glyph-name="afii10082" unicode="&#xf0;" horiz-adv-x="2138" 
d="M774 1397h17c32 76.667 68.333 142.834 109 198.501s94.834 102 162.501 139s149.167 55.5 244.5 55.5c112 0 219 -34.333 321 -103s183.833 -167 245.5 -295s92.5 -276.667 92.5 -446c0 -172.667 -44.333 -335.334 -133 -488.001s-205.834 -274.667 -351.501 -366
s-298.167 -137 -457.5 -137c-143.333 0 -253.5 44.833 -330.5 134.5s-117.167 199.167 -120.5 328.5h-24l-291 -1221h-373l619 2491h-393l12 57h745zM737 1036l-65 -281.998c-22 -100.667 -33 -185.334 -33 -254.001c0 -195.333 39.833 -325.5 119.5 -390.5
s154.5 -97.5 224.5 -97.5c135.333 0 239.833 57.833 313.5 173.5s130.167 265.5 169.5 449.5l95 438c16 74 24 142.333 24 205c0 92 -15.5 172.667 -46.5 242s-72 122.166 -123 158.499s-105.167 54.5 -162.5 54.5c-100 0 -184.5 -36.167 -253.5 -108.5
s-122.5 -157.5 -160.5 -255.5s-72 -209 -102 -333z" />
    <glyph glyph-name="afii10082" unicode="&#x440;" horiz-adv-x="2138" 
d="M774 1397h17c32 76.667 68.333 142.834 109 198.501s94.834 102 162.501 139s149.167 55.5 244.5 55.5c112 0 219 -34.333 321 -103s183.833 -167 245.5 -295s92.5 -276.667 92.5 -446c0 -172.667 -44.333 -335.334 -133 -488.001s-205.834 -274.667 -351.501 -366
s-298.167 -137 -457.5 -137c-143.333 0 -253.5 44.833 -330.5 134.5s-117.167 199.167 -120.5 328.5h-24l-291 -1221h-373l619 2491h-393l12 57h745zM737 1036l-65 -281.998c-22 -100.667 -33 -185.334 -33 -254.001c0 -195.333 39.833 -325.5 119.5 -390.5
s154.5 -97.5 224.5 -97.5c135.333 0 239.833 57.833 313.5 173.5s130.167 265.5 169.5 449.5l95 438c16 74 24 142.333 24 205c0 92 -15.5 172.667 -46.5 242s-72 122.166 -123 158.499s-105.167 54.5 -162.5 54.5c-100 0 -184.5 -36.167 -253.5 -108.5
s-122.5 -157.5 -160.5 -255.5s-72 -209 -102 -333z" />
    <glyph glyph-name="afii10083" unicode="&#xf1;" horiz-adv-x="1892" 
d="M1532 606l57 -33.002c-85.333 -150.667 -169.5 -271.334 -252.5 -362.001s-168.667 -156 -257 -196s-183.166 -60 -284.499 -60c-120 0 -232 27 -336 81s-187.333 135.167 -250 243.5s-94 240.5 -94 396.5s31.167 302.333 93.5 439s146.666 255.667 252.999 357
s223.833 179.666 352.5 234.999s258.667 83 390 83c110.667 0 205 -18.167 283 -54.5s136.333 -83.833 175 -142.5s58 -120 58 -184c0 -74 -21.667 -141.667 -65 -203s-109 -92 -197 -92c-83.333 0 -145.166 24.667 -185.499 74s-60.5 105.333 -60.5 168
c0 48.667 26 96.334 78 143.001c52 44.667 78 80.334 78 107.001c0 84.667 -57.333 127 -172 127c-280.667 0 -473.334 -220 -578.001 -660l-102 -393c-24.667 -81.333 -37 -162 -37 -242c0 -131.333 32.167 -235.166 96.5 -311.499s151.166 -114.5 260.499 -114.5
c102 0 215.333 41.333 340 124s243.334 239.334 356.001 470.001z" />
    <glyph glyph-name="afii10083" unicode="&#x441;" horiz-adv-x="1892" 
d="M1532 606l57 -33.002c-85.333 -150.667 -169.5 -271.334 -252.5 -362.001s-168.667 -156 -257 -196s-183.166 -60 -284.499 -60c-120 0 -232 27 -336 81s-187.333 135.167 -250 243.5s-94 240.5 -94 396.5s31.167 302.333 93.5 439s146.666 255.667 252.999 357
s223.833 179.666 352.5 234.999s258.667 83 390 83c110.667 0 205 -18.167 283 -54.5s136.333 -83.833 175 -142.5s58 -120 58 -184c0 -74 -21.667 -141.667 -65 -203s-109 -92 -197 -92c-83.333 0 -145.166 24.667 -185.499 74s-60.5 105.333 -60.5 168
c0 48.667 26 96.334 78 143.001c52 44.667 78 80.334 78 107.001c0 84.667 -57.333 127 -172 127c-280.667 0 -473.334 -220 -578.001 -660l-102 -393c-24.667 -81.333 -37 -162 -37 -242c0 -131.333 32.167 -235.166 96.5 -311.499s151.166 -114.5 260.499 -114.5
c102 0 215.333 41.333 340 124s243.334 239.334 356.001 470.001z" />
    <glyph glyph-name="afii10084" unicode="&#xf2;" horiz-adv-x="3285" 
d="M733 1200l12 0.000976562c110.667 156.667 239.5 294.167 386.5 412.5s291.5 177.5 433.5 177.5c92 0 167.5 -28.667 226.5 -86s88.5 -139.333 88.5 -246c0 -48.667 -8.33301 -118.334 -25 -209.001h25c100 142.667 224.5 268.5 373.5 377.5s286.5 163.5 412.5 163.5
c85.333 0 159.333 -24.833 222 -74.5s94 -135.5 94 -257.5c0 -76 -13.667 -162 -41 -258l-283 -958c-8 -34 -12 -64 -12 -90c0 -49.333 27.333 -74 82 -74c32 0 59.5 10.333 82.5 31s51.5 51.334 85.5 92.001c96 120.667 168.333 236.667 217 348l57 -29
c-73.333 -161.333 -146 -283.333 -218 -366s-138 -136.5 -198 -161.5s-120.667 -37.5 -182 -37.5c-80.667 0 -144.5 25.833 -191.5 77.5s-70.5 117.167 -70.5 196.5c0 72 15 154 45 246l246 832c4.66699 18 11.334 59 20 123v65c-4 47.333 -20.333 83.666 -49 108.999
s-64 38 -106 38c-66.667 0 -143.334 -31.333 -230.001 -94c-104 -77.333 -186 -155.666 -246 -234.999s-132 -190.666 -216 -333.999l-250 -979h-369l348 1307c8 28.667 15 69.667 21 123v65c-4.66699 41.333 -20.667 76.166 -48 104.499s-63.333 42.5 -108 42.5
c-67.333 0 -143.666 -31.333 -228.999 -94c-104 -76.667 -186.167 -154.834 -246.5 -234.501s-132.5 -191.167 -216.5 -334.5l-250 -979h-369l447 1688h-393l16 57h745z" />
    <glyph glyph-name="afii10084" unicode="&#x442;" horiz-adv-x="3285" 
d="M733 1200l12 0.000976562c110.667 156.667 239.5 294.167 386.5 412.5s291.5 177.5 433.5 177.5c92 0 167.5 -28.667 226.5 -86s88.5 -139.333 88.5 -246c0 -48.667 -8.33301 -118.334 -25 -209.001h25c100 142.667 224.5 268.5 373.5 377.5s286.5 163.5 412.5 163.5
c85.333 0 159.333 -24.833 222 -74.5s94 -135.5 94 -257.5c0 -76 -13.667 -162 -41 -258l-283 -958c-8 -34 -12 -64 -12 -90c0 -49.333 27.333 -74 82 -74c32 0 59.5 10.333 82.5 31s51.5 51.334 85.5 92.001c96 120.667 168.333 236.667 217 348l57 -29
c-73.333 -161.333 -146 -283.333 -218 -366s-138 -136.5 -198 -161.5s-120.667 -37.5 -182 -37.5c-80.667 0 -144.5 25.833 -191.5 77.5s-70.5 117.167 -70.5 196.5c0 72 15 154 45 246l246 832c4.66699 18 11.334 59 20 123v65c-4 47.333 -20.333 83.666 -49 108.999
s-64 38 -106 38c-66.667 0 -143.334 -31.333 -230.001 -94c-104 -77.333 -186 -155.666 -246 -234.999s-132 -190.666 -216 -333.999l-250 -979h-369l348 1307c8 28.667 15 69.667 21 123v65c-4.66699 41.333 -20.667 76.166 -48 104.499s-63.333 42.5 -108 42.5
c-67.333 0 -143.666 -31.333 -228.999 -94c-104 -76.667 -186.167 -154.834 -246.5 -234.501s-132.5 -191.167 -216.5 -334.5l-250 -979h-369l447 1688h-393l16 57h745z" />
    <glyph glyph-name="afii10085" unicode="&#xf3;" horiz-adv-x="2068" 
d="M1954 1745l-401.999 -1503c-80 -296.667 -189.333 -532 -328 -706s-280.5 -293.167 -425.5 -357.5s-280.167 -96.5 -405.5 -96.5c-170 0 -301.167 41.167 -393.5 123.5s-138.5 175.166 -138.5 278.499c0 66.667 24.5 125.667 73.5 177s113.167 77 192.5 77
c77.333 0 137.666 -26 180.999 -78s65 -112 65 -180c0 -62.667 -24.667 -114.667 -74 -156c-6.66699 -6.66699 -21.334 -16.167 -44.001 -28.5s-39.5 -23.333 -50.5 -33s-16.5 -21.834 -16.5 -36.501c0 -57.333 68.333 -86 205 -86c164.667 0 298.667 60.5 402 181.5
s192 303.5 266 547.5l205 676h-4c-114 -164.667 -247.333 -304.167 -400 -418.5s-296.667 -171.5 -432 -171.5c-218.667 0 -328 125.667 -328 377c0 40 12.333 111 37 213l303 1143h-393l12 57h746l-336 -1307c-10.667 -47.333 -16 -111.333 -16 -192
c0 -96 50.333 -144 151 -144c72.667 0 154.834 32.667 246.501 98s180.5 149.5 266.5 252.5s156.667 207.5 212 313.5l258 979h365z" />
    <glyph glyph-name="afii10085" unicode="&#x443;" horiz-adv-x="2068" 
d="M1954 1745l-401.999 -1503c-80 -296.667 -189.333 -532 -328 -706s-280.5 -293.167 -425.5 -357.5s-280.167 -96.5 -405.5 -96.5c-170 0 -301.167 41.167 -393.5 123.5s-138.5 175.166 -138.5 278.499c0 66.667 24.5 125.667 73.5 177s113.167 77 192.5 77
c77.333 0 137.666 -26 180.999 -78s65 -112 65 -180c0 -62.667 -24.667 -114.667 -74 -156c-6.66699 -6.66699 -21.334 -16.167 -44.001 -28.5s-39.5 -23.333 -50.5 -33s-16.5 -21.834 -16.5 -36.501c0 -57.333 68.333 -86 205 -86c164.667 0 298.667 60.5 402 181.5
s192 303.5 266 547.5l205 676h-4c-114 -164.667 -247.333 -304.167 -400 -418.5s-296.667 -171.5 -432 -171.5c-218.667 0 -328 125.667 -328 377c0 40 12.333 111 37 213l303 1143h-393l12 57h746l-336 -1307c-10.667 -47.333 -16 -111.333 -16 -192
c0 -96 50.333 -144 151 -144c72.667 0 154.834 32.667 246.501 98s180.5 149.5 266.5 252.5s156.667 207.5 212 313.5l258 979h365z" />
    <glyph glyph-name="afii10086" unicode="&#xf4;" horiz-adv-x="3117" 
d="M1225 422l-16.999 0.00195312c-71.333 -120.667 -162.333 -228.667 -273 -324s-238 -143 -382 -143c-160 0 -273 73.167 -339 219.5s-99 314.833 -99 505.5c0 224.667 55 421.5 165 590.5s242.167 297.833 396.5 386.5s292.166 133 413.499 133
c122.667 0 212 -52.833 268 -158.5s85.333 -216.834 88 -333.501l12 -4l340 1286h-393l16 58h738l-361 -1397h12c88 167.333 188.5 300.666 301.5 399.999s227.167 149 342.5 149c84.667 0 164.834 -25.5 240.5 -76.5c75.667 -51 136.334 -123.5 182 -217.5
c45.667 -94 68.5 -202.333 68.5 -325c0 -187.333 -44 -375.833 -132 -565.5s-206.833 -345.5 -356.5 -467.5s-309.167 -183 -478.5 -183c-215.333 0 -345 148.667 -389 446h-4l-323 -1261h-377zM1729 942.002l-78.001 -303c-8.66699 -97.333 -13 -157.333 -13 -180
c0 -102 27 -201.333 81 -298s135 -145 243 -145c122.667 0 217.167 51.5 283.5 154.5s123.5 242.833 171.5 419.5l106 401c36 129.333 58 241.333 66 336v148c-19.333 155.333 -86.333 233 -201 233c-77.333 0 -160.5 -41.667 -249.5 -125s-170.667 -185 -245 -305
s-129.166 -232 -164.499 -336zM1298 717.002l78.001 295c8.66699 62 13 124.667 13 188c0 333.333 -82 500 -246 500c-93.333 0 -183.833 -37.833 -271.5 -113.5s-156.834 -211.167 -207.501 -406.5l-168 -643c-36 -148 -54 -238.333 -54 -271c0 -166.667 56 -250 168 -250
c81.333 0 170.5 39.333 267.5 118s184.333 173.5 262 284.5s130.5 210.5 158.5 298.5z" />
    <glyph glyph-name="afii10086" unicode="&#x444;" horiz-adv-x="3117" 
d="M1225 422l-16.999 0.00195312c-71.333 -120.667 -162.333 -228.667 -273 -324s-238 -143 -382 -143c-160 0 -273 73.167 -339 219.5s-99 314.833 -99 505.5c0 224.667 55 421.5 165 590.5s242.167 297.833 396.5 386.5s292.166 133 413.499 133
c122.667 0 212 -52.833 268 -158.5s85.333 -216.834 88 -333.501l12 -4l340 1286h-393l16 58h738l-361 -1397h12c88 167.333 188.5 300.666 301.5 399.999s227.167 149 342.5 149c84.667 0 164.834 -25.5 240.5 -76.5c75.667 -51 136.334 -123.5 182 -217.5
c45.667 -94 68.5 -202.333 68.5 -325c0 -187.333 -44 -375.833 -132 -565.5s-206.833 -345.5 -356.5 -467.5s-309.167 -183 -478.5 -183c-215.333 0 -345 148.667 -389 446h-4l-323 -1261h-377zM1729 942.002l-78.001 -303c-8.66699 -97.333 -13 -157.333 -13 -180
c0 -102 27 -201.333 81 -298s135 -145 243 -145c122.667 0 217.167 51.5 283.5 154.5s123.5 242.833 171.5 419.5l106 401c36 129.333 58 241.333 66 336v148c-19.333 155.333 -86.333 233 -201 233c-77.333 0 -160.5 -41.667 -249.5 -125s-170.667 -185 -245 -305
s-129.166 -232 -164.499 -336zM1298 717.002l78.001 295c8.66699 62 13 124.667 13 188c0 333.333 -82 500 -246 500c-93.333 0 -183.833 -37.833 -271.5 -113.5s-156.834 -211.167 -207.501 -406.5l-168 -643c-36 -148 -54 -238.333 -54 -271c0 -166.667 56 -250 168 -250
c81.333 0 170.5 39.333 267.5 118s184.333 173.5 262 284.5s130.5 210.5 158.5 298.5z" />
    <glyph glyph-name="afii10087" unicode="&#xf5;" horiz-adv-x="2376" 
d="M1331 1053l106.999 -693c14.667 -95.333 33 -169 55 -221s70.333 -78 145 -78c88 0 167.833 38.5 239.5 115.5s169.5 198.5 293.5 364.5l41 -33c-115.333 -177.333 -230.833 -313.833 -346.5 -409.5s-244.5 -143.5 -386.5 -143.5c-243.333 0 -384 135 -422 405l-49 336
l-105 -150l-105.5 -145l-88.5 -118c-64.667 -86 -111.167 -146.167 -139.5 -180.5s-68.166 -67.5 -119.499 -99.5s-110 -48 -176 -48c-98.667 0 -178.5 35.667 -239.5 107s-91.5 151.666 -91.5 240.999c0 71.333 26.167 133.5 78.5 186.5s114.833 79.5 187.5 79.5
c55.333 0 106 -18.667 152 -56s69 -85.333 69 -144c0 -38 -4.33301 -69.667 -13 -95s-20 -46.666 -34 -63.999s-28.167 -31.666 -42.5 -42.999l-45.5 -36c-14 -10.667 -21 -34 -21 -70c0 -21.333 23.333 -32 70 -32c31.333 0 64.833 14 100.5 42s77.667 71.333 126 130
s90.166 112.834 125.499 162.501l295 410.5l-90 586c-17.333 115.333 -34.166 197.333 -50.499 246s-52.833 73 -109.5 73c-77.333 0 -166 -61.333 -266 -184l-119 -131l-41 33c118.667 145.333 219.834 247.166 303.501 305.499s175.167 87.5 274.5 87.5
c106.667 0 194 -28.167 262 -84.5s109 -138.833 123 -247.5l41 -328c144 252 269.667 425 377 519s202.666 141 285.999 141c90 0 168.5 -27.833 235.5 -83.5s100.5 -119.167 100.5 -190.5c0 -76 -20.833 -138.833 -62.5 -188.5s-93.167 -74.5 -154.5 -74.5
c-64.667 0 -121 20.5 -169 61.5s-72 91.5 -72 151.5c0 36.667 11.333 74 34 112s46.667 62.333 72 73c16.667 5.33301 25 14.666 25 27.999c0 30 -13.667 45 -41 45c-158.667 0 -365 -223.667 -619 -671z" />
    <glyph glyph-name="afii10087" unicode="&#x445;" horiz-adv-x="2376" 
d="M1331 1053l106.999 -693c14.667 -95.333 33 -169 55 -221s70.333 -78 145 -78c88 0 167.833 38.5 239.5 115.5s169.5 198.5 293.5 364.5l41 -33c-115.333 -177.333 -230.833 -313.833 -346.5 -409.5s-244.5 -143.5 -386.5 -143.5c-243.333 0 -384 135 -422 405l-49 336
l-105 -150l-105.5 -145l-88.5 -118c-64.667 -86 -111.167 -146.167 -139.5 -180.5s-68.166 -67.5 -119.499 -99.5s-110 -48 -176 -48c-98.667 0 -178.5 35.667 -239.5 107s-91.5 151.666 -91.5 240.999c0 71.333 26.167 133.5 78.5 186.5s114.833 79.5 187.5 79.5
c55.333 0 106 -18.667 152 -56s69 -85.333 69 -144c0 -38 -4.33301 -69.667 -13 -95s-20 -46.666 -34 -63.999s-28.167 -31.666 -42.5 -42.999l-45.5 -36c-14 -10.667 -21 -34 -21 -70c0 -21.333 23.333 -32 70 -32c31.333 0 64.833 14 100.5 42s77.667 71.333 126 130
s90.166 112.834 125.499 162.501l295 410.5l-90 586c-17.333 115.333 -34.166 197.333 -50.499 246s-52.833 73 -109.5 73c-77.333 0 -166 -61.333 -266 -184l-119 -131l-41 33c118.667 145.333 219.834 247.166 303.501 305.499s175.167 87.5 274.5 87.5
c106.667 0 194 -28.167 262 -84.5s109 -138.833 123 -247.5l41 -328c144 252 269.667 425 377 519s202.666 141 285.999 141c90 0 168.5 -27.833 235.5 -83.5s100.5 -119.167 100.5 -190.5c0 -76 -20.833 -138.833 -62.5 -188.5s-93.167 -74.5 -154.5 -74.5
c-64.667 0 -121 20.5 -169 61.5s-72 91.5 -72 151.5c0 36.667 11.333 74 34 112s46.667 62.333 72 73c16.667 5.33301 25 14.666 25 27.999c0 30 -13.667 45 -41 45c-158.667 0 -365 -223.667 -619 -671z" />
    <glyph glyph-name="afii10088" unicode="&#xf6;" horiz-adv-x="2191" 
d="M1962 1745l-397.001 -1503c-8.66699 -36.667 -13 -66.667 -13 -90c0 -49.333 27.333 -74 82 -74c73.333 0 171.666 102.333 294.999 307c50 86.667 80 141.334 90 164.001l58 -29l-41 -82c-51.333 -91.333 -85.833 -173.666 -103.5 -246.999s-35.167 -178 -52.5 -314
c-20 -168.667 -45.5 -303.334 -76.5 -404.001s-91.167 -186.667 -180.5 -258s-220.666 -111.333 -393.999 -120l-25 49c46.667 2.66699 82.667 19.5 108 50.5s62.5 97.667 111.5 200s105.167 210.833 168.5 325.5s151 250.334 263 407.001l-16 12
c-93.333 -122.667 -213.333 -184 -360 -184c-80.667 0 -144.5 24.833 -191.5 74.5s-70.5 116.167 -70.5 199.5c0 52.667 15 134.667 45 246l16 70h-12c-102 -159.333 -233 -297.5 -393 -414.5s-306.333 -175.5 -439 -175.5c-218.667 0 -328 125.667 -328 377
c0 30.667 13.667 101.667 41 213l304 1143h-394l17 57h741l-336 -1307c-13.333 -57.333 -20 -121.333 -20 -192c0 -29.333 11.167 -60.666 33.5 -93.999s61.5 -50 117.5 -50c72.667 0 154.834 32.667 246.501 98s180.5 149.5 266.5 252.5s156.667 207.5 212 313.5l258 979
h369z" />
    <glyph glyph-name="afii10088" unicode="&#x446;" horiz-adv-x="2191" 
d="M1962 1745l-397.001 -1503c-8.66699 -36.667 -13 -66.667 -13 -90c0 -49.333 27.333 -74 82 -74c73.333 0 171.666 102.333 294.999 307c50 86.667 80 141.334 90 164.001l58 -29l-41 -82c-51.333 -91.333 -85.833 -173.666 -103.5 -246.999s-35.167 -178 -52.5 -314
c-20 -168.667 -45.5 -303.334 -76.5 -404.001s-91.167 -186.667 -180.5 -258s-220.666 -111.333 -393.999 -120l-25 49c46.667 2.66699 82.667 19.5 108 50.5s62.5 97.667 111.5 200s105.167 210.833 168.5 325.5s151 250.334 263 407.001l-16 12
c-93.333 -122.667 -213.333 -184 -360 -184c-80.667 0 -144.5 24.833 -191.5 74.5s-70.5 116.167 -70.5 199.5c0 52.667 15 134.667 45 246l16 70h-12c-102 -159.333 -233 -297.5 -393 -414.5s-306.333 -175.5 -439 -175.5c-218.667 0 -328 125.667 -328 377
c0 30.667 13.667 101.667 41 213l304 1143h-394l17 57h741l-336 -1307c-13.333 -57.333 -20 -121.333 -20 -192c0 -29.333 11.167 -60.666 33.5 -93.999s61.5 -50 117.5 -50c72.667 0 154.834 32.667 246.501 98s180.5 149.5 266.5 252.5s156.667 207.5 212 313.5l258 979
h369z" />
    <glyph glyph-name="afii10089" unicode="&#xf7;" horiz-adv-x="1962" 
d="M1217 1188l147 557.001h369l-398 -1503c-2.66699 -10.667 -5 -19.5 -7 -26.5s-3.66699 -13.167 -5 -18.5v-45c8 -49.333 35.333 -74 82 -74c48 0 104 41 168 123c88.667 110.667 161 226.667 217 348l57 -29c-108 -210 -204.833 -356.667 -290.5 -440
s-188.167 -125 -307.5 -125c-83.333 0 -148.5 25.333 -195.5 76s-70.5 116.667 -70.5 198c0 56 15 138 45 246l131 488h-4c-94 -113.333 -203.5 -213.5 -328.5 -300.5s-251.833 -130.5 -380.5 -130.5c-212.667 0 -319 108 -319 324c0 32 13.667 97.667 41 197l188 635h-299
l17 57h651l-233 -860c-11.333 -46.667 -17 -108.334 -17 -185.001c0 -38 45 -57 135 -57c84 0 185.167 49.833 303.5 149.5s219.5 231.5 303.5 395.5z" />
    <glyph glyph-name="afii10089" unicode="&#x447;" horiz-adv-x="1962" 
d="M1217 1188l147 557.001h369l-398 -1503c-2.66699 -10.667 -5 -19.5 -7 -26.5s-3.66699 -13.167 -5 -18.5v-45c8 -49.333 35.333 -74 82 -74c48 0 104 41 168 123c88.667 110.667 161 226.667 217 348l57 -29c-108 -210 -204.833 -356.667 -290.5 -440
s-188.167 -125 -307.5 -125c-83.333 0 -148.5 25.333 -195.5 76s-70.5 116.667 -70.5 198c0 56 15 138 45 246l131 488h-4c-94 -113.333 -203.5 -213.5 -328.5 -300.5s-251.833 -130.5 -380.5 -130.5c-212.667 0 -319 108 -319 324c0 32 13.667 97.667 41 197l188 635h-299
l17 57h651l-233 -860c-11.333 -46.667 -17 -108.334 -17 -185.001c0 -38 45 -57 135 -57c84 0 185.167 49.833 303.5 149.5s219.5 231.5 303.5 395.5z" />
    <glyph glyph-name="afii10090" unicode="&#xf8;" horiz-adv-x="3187" 
d="M2957 1745l-396.996 -1503c-8 -34 -12 -64 -12 -90c0 -49.333 27.333 -74 82 -74c72 0 170.333 102.333 295 307l39.5 67c21.667 36.667 38.5 69 50.5 97l57 -29c-72 -158.667 -144.333 -280 -217 -364s-139.167 -138.5 -199.5 -163.5s-120.833 -37.5 -181.5 -37.5
c-80.667 0 -144.5 25.833 -191.5 77.5s-70.5 117.167 -70.5 196.5c0 28 2.33301 55.167 7 81.5s11.5 56.833 20.5 91.5s14.833 59 17.5 73l16 70h-12c-82.667 -146 -192.834 -280.833 -330.501 -404.5s-271.834 -185.5 -402.501 -185.5c-218.667 0 -328 125.667 -328 377
c0 21.333 13.667 92.333 41 213h-29c-82.667 -146 -192.834 -280.833 -330.501 -404.5s-271.834 -185.5 -402.501 -185.5c-218 0 -327 125.667 -327 377c0 38.667 13.667 109.667 41 213l299 1143h-390l17 57h741l-336 -1278c-13.333 -58 -20 -122.333 -20 -193
c0 -95.333 50.333 -143 151 -143c88.667 0 193.5 63.833 314.5 191.5s225.167 285.167 312.5 472.5l258 950h369l-336 -1278c-14 -57.333 -21 -121.666 -21 -192.999c0 -95.333 50.667 -143 152 -143c88.667 0 193.5 63.833 314.5 191.5s225.167 285.167 312.5 472.5
l258 950h368z" />
    <glyph glyph-name="afii10090" unicode="&#x448;" horiz-adv-x="3187" 
d="M2957 1745l-396.996 -1503c-8 -34 -12 -64 -12 -90c0 -49.333 27.333 -74 82 -74c72 0 170.333 102.333 295 307l39.5 67c21.667 36.667 38.5 69 50.5 97l57 -29c-72 -158.667 -144.333 -280 -217 -364s-139.167 -138.5 -199.5 -163.5s-120.833 -37.5 -181.5 -37.5
c-80.667 0 -144.5 25.833 -191.5 77.5s-70.5 117.167 -70.5 196.5c0 28 2.33301 55.167 7 81.5s11.5 56.833 20.5 91.5s14.833 59 17.5 73l16 70h-12c-82.667 -146 -192.834 -280.833 -330.501 -404.5s-271.834 -185.5 -402.501 -185.5c-218.667 0 -328 125.667 -328 377
c0 21.333 13.667 92.333 41 213h-29c-82.667 -146 -192.834 -280.833 -330.501 -404.5s-271.834 -185.5 -402.501 -185.5c-218 0 -327 125.667 -327 377c0 38.667 13.667 109.667 41 213l299 1143h-390l17 57h741l-336 -1278c-13.333 -58 -20 -122.333 -20 -193
c0 -95.333 50.333 -143 151 -143c88.667 0 193.5 63.833 314.5 191.5s225.167 285.167 312.5 472.5l258 950h369l-336 -1278c-14 -57.333 -21 -121.666 -21 -192.999c0 -95.333 50.667 -143 152 -143c88.667 0 193.5 63.833 314.5 191.5s225.167 285.167 312.5 472.5
l258 950h368z" />
    <glyph glyph-name="afii10091" unicode="&#xf9;" horiz-adv-x="3142" 
d="M2912 1745l-397.006 -1503c-10.667 -38.667 -16 -68.667 -16 -90c0 -49.333 28.667 -74 86 -74c43.333 0 99.333 41 168 123c31.333 36.667 70.666 93.5 118 170.5c47.333 77 80.333 136.167 99 177.5l57 -29l-41 -82c-48 -78.667 -81.667 -157.5 -101 -236.5
s-37.666 -192.5 -55 -340.5c-12.667 -116.667 -28.167 -215 -46.5 -295s-49 -154.667 -92 -224s-106.333 -126.166 -190 -170.499s-191.167 -69.833 -322.5 -76.5l-25 49c48 4.66699 84.667 22.167 110 52.5s63.333 98.666 114 204.999s107.667 216 171 329
s149 245.167 257 396.5l-17 12c-89.333 -122.667 -210.666 -184 -363.999 -184c-78.667 0 -142 24.667 -190 74s-72 116 -72 200c0 77.333 15 159.333 45 246l20 70h-12c-83.333 -146.667 -193.666 -281.667 -330.999 -405s-271.333 -185 -402 -185
c-218.667 0 -328 125.667 -328 377c0 40 12.333 111 37 213h-25c-248 -393.333 -492.333 -590 -733 -590c-218.667 0 -328 125.667 -328 377c0 40 12.333 111 37 213l303 1143h-389l13 57h741l-336 -1278c-10.667 -47.333 -16 -111.666 -16 -192.999
c0 -95.333 50.333 -143 151 -143c62.667 0 134.334 33.667 215.001 101s157.834 152.666 231.501 255.999s133.834 205.666 180.501 306.999l258 950h369l-340 -1278c-11.333 -46 -17 -110.333 -17 -193c0 -95.333 50.667 -143 152 -143c70 0 146.333 37.167 229 111.5
s160.167 164.5 232.501 270.5c72.333 106 127.5 200 165.5 282l258 950h368z" />
    <glyph glyph-name="afii10091" unicode="&#x449;" horiz-adv-x="3142" 
d="M2912 1745l-397.006 -1503c-10.667 -38.667 -16 -68.667 -16 -90c0 -49.333 28.667 -74 86 -74c43.333 0 99.333 41 168 123c31.333 36.667 70.666 93.5 118 170.5c47.333 77 80.333 136.167 99 177.5l57 -29l-41 -82c-48 -78.667 -81.667 -157.5 -101 -236.5
s-37.666 -192.5 -55 -340.5c-12.667 -116.667 -28.167 -215 -46.5 -295s-49 -154.667 -92 -224s-106.333 -126.166 -190 -170.499s-191.167 -69.833 -322.5 -76.5l-25 49c48 4.66699 84.667 22.167 110 52.5s63.333 98.666 114 204.999s107.667 216 171 329
s149 245.167 257 396.5l-17 12c-89.333 -122.667 -210.666 -184 -363.999 -184c-78.667 0 -142 24.667 -190 74s-72 116 -72 200c0 77.333 15 159.333 45 246l20 70h-12c-83.333 -146.667 -193.666 -281.667 -330.999 -405s-271.333 -185 -402 -185
c-218.667 0 -328 125.667 -328 377c0 40 12.333 111 37 213h-25c-248 -393.333 -492.333 -590 -733 -590c-218.667 0 -328 125.667 -328 377c0 40 12.333 111 37 213l303 1143h-389l13 57h741l-336 -1278c-10.667 -47.333 -16 -111.666 -16 -192.999
c0 -95.333 50.333 -143 151 -143c62.667 0 134.334 33.667 215.001 101s157.834 152.666 231.501 255.999s133.834 205.666 180.501 306.999l258 950h369l-340 -1278c-11.333 -46 -17 -110.333 -17 -193c0 -95.333 50.667 -143 152 -143c70 0 146.333 37.167 229 111.5
s160.167 164.5 232.501 270.5c72.333 106 127.5 200 165.5 282l258 950h368z" />
    <glyph glyph-name="afii10092" unicode="&#xfa;" horiz-adv-x="2007" 
d="M1130 1622l-23.9961 32.998c-50.667 -36.667 -136.334 -80 -257.001 -130s-203 -75 -247 -75c-43.333 0 -102 11 -176 33c-54.667 16 -94.334 24 -119.001 24c-87.333 0 -155.833 -15.333 -205.5 -46s-99.834 -85 -150.501 -163l-37 21c4 12 21.667 50.333 53 115
c124.667 234.667 273.667 352 447 352c34.667 0 69.167 -5.16699 103.5 -15.5s74.833 -25 121.5 -44s72.667 -29.167 78 -30.5c48.667 -14 95 -21 139 -21c155.333 0 316.333 38.333 483 115l74 -45c-128 -159.333 -197.667 -247 -209 -263s-60.333 -92.333 -147 -229
c-72 -114 -125.333 -215 -160 -303c139.333 183.333 301.666 275 486.999 275c110.667 0 202.334 -26 275.001 -78s125 -117.333 157 -196s48 -158 48 -238c0 -110 -45.833 -224.333 -137.5 -343s-210.667 -217.5 -357 -296.5s-295.5 -118.5 -447.5 -118.5
c-167.333 0 -298 59.5 -392 178.5s-141 264.167 -141 435.5c0 101.333 18.833 195.833 56.5 283.5s95.667 176.834 174 267.501s187.166 199.334 326.499 326.001l78 73.5zM1380 491.998l41.001 171.999c20.667 82.667 34.334 150.667 41.001 204c0 19.333 2.66699 51 8 95
c0 30 -2.66699 51.667 -8 65c-20.667 74 -75.334 111 -164.001 111c-132.667 0 -267.667 -99.667 -405 -299c-50.667 -73.333 -91.334 -165.666 -122.001 -276.999s-46 -206 -46 -284c0 -59.333 11.833 -120 35.5 -182s77.5 -93 161.5 -93c98 0 189.167 40.333 273.5 121
s145.833 203 184.5 367z" />
    <glyph glyph-name="afii10092" unicode="&#x44a;" horiz-adv-x="2007" 
d="M1130 1622l-23.9961 32.998c-50.667 -36.667 -136.334 -80 -257.001 -130s-203 -75 -247 -75c-43.333 0 -102 11 -176 33c-54.667 16 -94.334 24 -119.001 24c-87.333 0 -155.833 -15.333 -205.5 -46s-99.834 -85 -150.501 -163l-37 21c4 12 21.667 50.333 53 115
c124.667 234.667 273.667 352 447 352c34.667 0 69.167 -5.16699 103.5 -15.5s74.833 -25 121.5 -44s72.667 -29.167 78 -30.5c48.667 -14 95 -21 139 -21c155.333 0 316.333 38.333 483 115l74 -45c-128 -159.333 -197.667 -247 -209 -263s-60.333 -92.333 -147 -229
c-72 -114 -125.333 -215 -160 -303c139.333 183.333 301.666 275 486.999 275c110.667 0 202.334 -26 275.001 -78s125 -117.333 157 -196s48 -158 48 -238c0 -110 -45.833 -224.333 -137.5 -343s-210.667 -217.5 -357 -296.5s-295.5 -118.5 -447.5 -118.5
c-167.333 0 -298 59.5 -392 178.5s-141 264.167 -141 435.5c0 101.333 18.833 195.833 56.5 283.5s95.667 176.834 174 267.501s187.166 199.334 326.499 326.001l78 73.5zM1380 491.998l41.001 171.999c20.667 82.667 34.334 150.667 41.001 204c0 19.333 2.66699 51 8 95
c0 30 -2.66699 51.667 -8 65c-20.667 74 -75.334 111 -164.001 111c-132.667 0 -267.667 -99.667 -405 -299c-50.667 -73.333 -91.334 -165.666 -122.001 -276.999s-46 -206 -46 -284c0 -59.333 11.833 -120 35.5 -182s77.5 -93 161.5 -93c98 0 189.167 40.333 273.5 121
s145.833 203 184.5 367z" />
    <glyph glyph-name="afii10093" unicode="&#xfb;" horiz-adv-x="2691" 
d="M479 1688l-392.999 0.000976562l16 57h746l-221 -827c60 88.667 137.667 162 233 220s197.666 87 306.999 87c93.333 0 172.666 -20.833 237.999 -62.5s114.5 -96.5 147.5 -164.5s49.5 -140 49.5 -216c0 -102 -25.667 -202.333 -77 -301s-121.5 -187.834 -210.5 -267.501
s-189 -142.667 -300 -189s-222.5 -69.5 -334.5 -69.5c-145.333 0 -265.666 50 -360.999 150s-143 223.333 -143 370c0 50 16.333 133.333 49 250zM1155 537.001l49 188c22 90.667 33 165.667 33 225c0 74.667 -20.333 123.334 -61 146.001s-79 34 -115 34
c-164.667 0 -317.667 -124 -459 -372c-23.333 -40.667 -51 -125.167 -83 -253.5s-48 -215.833 -48 -262.5c0 -57.333 18.833 -110 56.5 -158s102.167 -72 193.5 -72c102 0 186.833 36.667 254.5 110s127.5 211.666 179.5 414.999zM2093 1745h369l-398 -1503
c-2.66699 -10.667 -5 -19.5 -7 -26.5s-3.66699 -13.167 -5 -18.5v-45c0 -49.333 27.333 -74 82 -74c48 0 104 41 168 123c88.667 110.667 161 226.667 217 348l57 -29c-108 -210 -204.833 -356.667 -290.5 -440s-188.167 -125 -307.5 -125
c-83.333 0 -148.5 25.333 -195.5 76s-70.5 116.667 -70.5 198c0 54.667 15 136.667 45 246z" />
    <glyph glyph-name="afii10093" unicode="&#x44b;" horiz-adv-x="2691" 
d="M479 1688l-392.999 0.000976562l16 57h746l-221 -827c60 88.667 137.667 162 233 220s197.666 87 306.999 87c93.333 0 172.666 -20.833 237.999 -62.5s114.5 -96.5 147.5 -164.5s49.5 -140 49.5 -216c0 -102 -25.667 -202.333 -77 -301s-121.5 -187.834 -210.5 -267.501
s-189 -142.667 -300 -189s-222.5 -69.5 -334.5 -69.5c-145.333 0 -265.666 50 -360.999 150s-143 223.333 -143 370c0 50 16.333 133.333 49 250zM1155 537.001l49 188c22 90.667 33 165.667 33 225c0 74.667 -20.333 123.334 -61 146.001s-79 34 -115 34
c-164.667 0 -317.667 -124 -459 -372c-23.333 -40.667 -51 -125.167 -83 -253.5s-48 -215.833 -48 -262.5c0 -57.333 18.833 -110 56.5 -158s102.167 -72 193.5 -72c102 0 186.833 36.667 254.5 110s127.5 211.666 179.5 414.999zM2093 1745h369l-398 -1503
c-2.66699 -10.667 -5 -19.5 -7 -26.5s-3.66699 -13.167 -5 -18.5v-45c0 -49.333 27.333 -74 82 -74c48 0 104 41 168 123c88.667 110.667 161 226.667 217 348l57 -29c-108 -210 -204.833 -356.667 -290.5 -440s-188.167 -125 -307.5 -125
c-83.333 0 -148.5 25.333 -195.5 76s-70.5 116.667 -70.5 198c0 54.667 15 136.667 45 246z" />
    <glyph glyph-name="afii10094" unicode="&#xfc;" horiz-adv-x="1774" 
d="M479 1688l-392.999 0.000976562l16 57h746l-221 -827c60 88.667 137.667 162 233 220s197.666 87 306.999 87c93.333 0 172.666 -20.833 237.999 -62.5s114.5 -96.5 147.5 -164.5s49.5 -140 49.5 -216c0 -102 -25.667 -202.333 -77 -301s-121.5 -187.834 -210.5 -267.501
s-189 -142.667 -300 -189s-222.5 -69.5 -334.5 -69.5c-145.333 0 -265.666 50 -360.999 150s-143 223.333 -143 370c0 50 16.333 133.333 49 250zM1155 537.001l49 188c22 90.667 33 165.667 33 225c0 74.667 -20.333 123.334 -61 146.001s-79 34 -115 34
c-164.667 0 -317.667 -124 -459 -372c-23.333 -40.667 -51 -125.167 -83 -253.5s-48 -215.833 -48 -262.5c0 -57.333 18.833 -110 56.5 -158s102.167 -72 193.5 -72c102 0 186.833 36.667 254.5 110s127.5 211.666 179.5 414.999z" />
    <glyph glyph-name="afii10094" unicode="&#x44c;" horiz-adv-x="1774" 
d="M479 1688l-392.999 0.000976562l16 57h746l-221 -827c60 88.667 137.667 162 233 220s197.666 87 306.999 87c93.333 0 172.666 -20.833 237.999 -62.5s114.5 -96.5 147.5 -164.5s49.5 -140 49.5 -216c0 -102 -25.667 -202.333 -77 -301s-121.5 -187.834 -210.5 -267.501
s-189 -142.667 -300 -189s-222.5 -69.5 -334.5 -69.5c-145.333 0 -265.666 50 -360.999 150s-143 223.333 -143 370c0 50 16.333 133.333 49 250zM1155 537.001l49 188c22 90.667 33 165.667 33 225c0 74.667 -20.333 123.334 -61 146.001s-79 34 -115 34
c-164.667 0 -317.667 -124 -459 -372c-23.333 -40.667 -51 -125.167 -83 -253.5s-48 -215.833 -48 -262.5c0 -57.333 18.833 -110 56.5 -158s102.167 -72 193.5 -72c102 0 186.833 36.667 254.5 110s127.5 211.666 179.5 414.999z" />
    </font>
</defs>
</svg>
